<svg width="17" height="17" viewBox="0 0 17 17" fill="none" xmlns="http://www.w3.org/2000/svg">
<path d="M3.45306 12.75H3.85149V7.10546C3.85149 4.76298 5.58304 2.82558 7.83587 2.50351V1.85937C7.83587 1.49247 8.13304 1.19531 8.49993 1.19531C8.86683 1.19531 9.16399 1.49247 9.16399 1.85937V2.50351C11.4168 2.82558 13.1484 4.76298 13.1484 7.10546V12.75H13.5468C13.8407 12.75 14.0781 12.9874 14.0781 13.2812V13.8125C14.0781 13.8855 14.0183 13.9453 13.9452 13.9453H10.3593C10.3593 14.9713 9.52591 15.8047 8.49993 15.8047C7.47396 15.8047 6.64056 14.9713 6.64056 13.9453H3.05462C2.98157 13.9453 2.92181 13.8855 2.92181 13.8125V13.2812C2.92181 12.9874 3.15921 12.75 3.45306 12.75ZM8.49993 14.7422C8.93987 14.7422 9.29681 14.3852 9.29681 13.9453H7.70306C7.70306 14.3852 8.05999 14.7422 8.49993 14.7422Z" fill="#02BDC4"/>
</svg>
