<svg width="108" height="56" viewBox="0 0 108 56" fill="none" xmlns="http://www.w3.org/2000/svg">
<path d="M0.613297 54.5769C0.417886 54.6959 0.35599 54.9509 0.475049 55.1463C0.594107 55.3417 0.849034 55.4036 1.04445 55.2845L0.613297 54.5769ZM77.0259 8.50603L76.9856 8.09367L76.8913 8.10288L76.8103 8.15221L77.0259 8.50603ZM107.491 5.82825C107.637 5.6515 107.611 5.39041 107.434 5.24508L104.554 2.87683C104.377 2.7315 104.116 2.75697 103.971 2.93372C103.826 3.11047 103.851 3.37157 104.028 3.5169L106.588 5.62201L104.483 8.18226C104.338 8.35901 104.363 8.6201 104.54 8.76543C104.717 8.91076 104.978 8.88529 105.123 8.70854L107.491 5.82825ZM1.04445 55.2845L3.16103 53.9949L2.72988 53.2873L0.613297 54.5769L1.04445 55.2845ZM7.3942 51.4158L11.6274 48.8366L11.1962 48.129L6.96305 50.7081L7.3942 51.4158ZM15.8605 46.2575L20.0937 43.6784L19.6625 42.9707L15.4294 45.5499L15.8605 46.2575ZM24.3269 41.0992L28.56 38.5201L28.1289 37.8124L23.8957 40.3916L24.3269 41.0992ZM32.7932 35.9409L37.0264 33.3618L36.5952 32.6541L32.362 35.2333L32.7932 35.9409ZM41.2595 30.7826L45.4927 28.2035L45.0615 27.4958L40.8284 30.075L41.2595 30.7826ZM49.7259 25.6243L53.959 23.0452L53.5279 22.3375L49.2947 24.9167L49.7259 25.6243ZM58.1922 20.466L62.4254 17.8869L61.9942 17.1792L57.7611 19.7584L58.1922 20.466ZM66.6585 15.3077L70.8917 12.7286L70.4606 12.0209L66.2274 14.6001L66.6585 15.3077ZM75.1249 10.1494L77.2414 8.85986L76.8103 8.15221L74.6937 9.44178L75.1249 10.1494ZM77.0661 8.9184L79.5782 8.67332L79.4978 7.8486L76.9856 8.09367L77.0661 8.9184ZM84.6025 8.18316L89.6267 7.69301L89.5462 6.86829L84.522 7.35844L84.6025 8.18316ZM94.6509 7.20286L99.6752 6.71271L99.5947 5.88798L94.5705 6.37813L94.6509 7.20286ZM104.699 6.22255L107.212 5.97748L107.131 5.15275L104.619 5.39783L104.699 6.22255ZM0.397723 54.223C0.00690157 54.4612 -0.11689 54.971 0.121226 55.3618C0.359342 55.7527 0.869197 55.8765 1.26002 55.6383L0.397723 54.223ZM77.0259 8.50603L76.9454 7.6813L76.7567 7.69972L76.5947 7.79839L77.0259 8.50603ZM107.811 6.09139C108.102 5.73789 108.051 5.2157 107.698 4.92505L101.937 0.188547C101.583 -0.102107 101.061 -0.0511634 100.771 0.30233C100.48 0.655832 100.531 1.17802 100.884 1.46867L106.005 5.6789L101.795 10.7994C101.504 11.1529 101.555 11.6751 101.909 11.9658C102.262 12.2564 102.784 12.2055 103.075 11.852L107.811 6.09139ZM1.26002 55.6383L3.3766 54.3488L2.51431 52.9335L0.397723 54.223L1.26002 55.6383ZM7.60977 51.7696L11.8429 49.1905L10.9806 47.7752L6.74747 50.3543L7.60977 51.7696ZM16.0761 46.6113L20.3093 44.0322L19.447 42.6169L15.2138 45.196L16.0761 46.6113ZM24.5424 41.453L28.7756 38.8739L27.9133 37.4586L23.6801 40.0377L24.5424 41.453ZM33.0088 36.2947L37.2419 33.7156L36.3796 32.3003L32.1465 34.8794L33.0088 36.2947ZM41.4751 31.1364L45.7083 28.5573L44.846 27.142L40.6128 29.7211L41.4751 31.1364ZM49.9414 25.9781L54.1746 23.399L53.3123 21.9837L49.0791 24.5628L49.9414 25.9781ZM58.4078 20.8198L62.6409 18.2407L61.7787 16.8254L57.5455 19.4045L58.4078 20.8198ZM66.8741 15.6615L71.1073 13.0824L70.245 11.6671L66.0118 14.2463L66.8741 15.6615ZM75.3405 10.5032L77.457 9.21368L76.5947 7.79839L74.4782 9.08795L75.3405 10.5032ZM77.1063 9.33076L79.6184 9.08568L79.4575 7.43623L76.9454 7.6813L77.1063 9.33076ZM84.6427 8.59553L89.6669 8.10538L89.506 6.45592L84.4818 6.94608L84.6427 8.59553ZM94.6912 7.61522L99.7154 7.12507L99.5545 5.47562L94.5302 5.96577L94.6912 7.61522ZM104.74 6.63492L107.252 6.38984L107.091 4.74038L104.579 4.98546L104.74 6.63492Z" fill="white"/>
</svg>
