<svg width="133" height="104" viewBox="0 0 133 104" fill="none" xmlns="http://www.w3.org/2000/svg">
<path d="M0.662609 102.382C0.459313 102.571 0.447254 102.888 0.635675 103.091C0.824095 103.295 1.14164 103.307 1.34494 103.118L0.662609 102.382ZM103.891 7.39175L103.891 6.88987L103.694 6.88987L103.549 7.02366L103.891 7.39175ZM132.351 7.74664C132.547 7.55064 132.547 7.23286 132.351 7.03686L129.157 3.84288C128.961 3.64688 128.643 3.64687 128.447 3.84287C128.251 4.03888 128.251 4.35666 128.447 4.55266L131.286 7.39175L128.447 10.2308C128.251 10.4268 128.251 10.7446 128.447 10.9406C128.643 11.1366 128.961 11.1366 129.157 10.9406L132.351 7.74664ZM1.34494 103.118L3.48841 101.132L2.80608 100.396L0.662609 102.382L1.34494 103.118ZM7.77536 97.1585L12.0623 93.1852L11.38 92.449L7.09303 96.4223L7.77536 97.1585ZM16.3493 89.2119L20.6362 85.2387L19.9539 84.5025L15.6669 88.4757L16.3493 89.2119ZM24.9232 81.2654L29.2101 77.2921L28.5278 76.5559L24.2408 80.5292L24.9232 81.2654ZM33.4971 73.3188L37.784 69.3456L37.1017 68.6094L32.8147 72.5826L33.4971 73.3188ZM42.071 65.3723L46.3579 61.399L45.6756 60.6628L41.3886 64.6361L42.071 65.3723ZM50.6449 57.4257L54.9318 53.4525L54.2495 52.7163L49.9625 56.6896L50.6449 57.4257ZM59.2188 49.4792L63.5057 45.5059L62.8234 44.7697L58.5364 48.743L59.2188 49.4792ZM67.7927 41.5327L72.0796 37.5594L71.3973 36.8232L67.1103 40.7965L67.7927 41.5327ZM76.3666 33.5861L80.6535 29.6128L79.9712 28.8766L75.6842 32.8499L76.3666 33.5861ZM84.9405 25.6396L89.2274 21.6663L88.5451 20.9301L84.2581 24.9034L84.9405 25.6396ZM93.5144 17.693L97.8013 13.7197L97.119 12.9836L92.832 16.9568L93.5144 17.693ZM102.088 9.74648L104.232 7.75985L103.549 7.02366L101.406 9.01028L102.088 9.74648ZM103.891 7.89363L107.404 7.89364L107.404 6.88986L103.891 6.88987L103.891 7.89363ZM114.43 7.89364L121.457 7.89364L121.457 6.88987L114.43 6.88986L114.43 7.89364ZM128.483 7.89364L131.996 7.89363L131.996 6.88987L128.483 6.88987L128.483 7.89364ZM0.321444 102.014C-0.0851472 102.391 -0.109265 103.026 0.267576 103.433C0.644416 103.839 1.27951 103.863 1.6861 103.486L0.321444 102.014ZM103.891 7.39175L103.891 6.38798L103.497 6.38798L103.208 6.65556L103.891 7.39175ZM132.706 8.10152C133.098 7.70953 133.098 7.07397 132.706 6.68197L126.318 0.293996C125.926 -0.0980029 125.29 -0.098004 124.898 0.294002C124.506 0.685995 124.506 1.32155 124.898 1.71355L130.577 7.39176L124.898 13.07C124.506 13.462 124.506 14.0975 124.898 14.4895C125.29 14.8815 125.926 14.8815 126.318 14.4895L132.706 8.10152ZM1.6861 103.486L3.82958 101.5L2.46492 100.027L0.321444 102.014L1.6861 103.486ZM8.11653 97.5266L12.4035 93.5533L11.0388 92.0809L6.75187 96.0542L8.11653 97.5266ZM16.6904 89.58L20.9774 85.6068L19.6127 84.1344L15.3258 88.1076L16.6904 89.58ZM25.2643 81.6335L29.5513 77.6602L28.1866 76.1878L23.8997 80.1611L25.2643 81.6335ZM33.8382 73.6869L38.1252 69.7137L36.7605 68.2413L32.4736 72.2145L33.8382 73.6869ZM42.4121 65.7404L46.6991 61.7671L45.3344 60.2947L41.0475 64.268L42.4121 65.7404ZM50.986 57.7939L55.273 53.8206L53.9083 52.3482L49.6214 56.3215L50.986 57.7939ZM59.5599 49.8473L63.8469 45.874L62.4822 44.4016L58.1953 48.3749L59.5599 49.8473ZM68.1338 41.9008L72.4208 37.9275L71.0561 36.4551L66.7692 40.4284L68.1338 41.9008ZM76.7077 33.9542L80.9947 29.9809L79.63 28.5085L75.3431 32.4818L76.7077 33.9542ZM85.2816 26.0077L89.5686 22.0344L88.2039 20.562L83.917 24.5353L85.2816 26.0077ZM93.8555 18.0611L98.1425 14.0878L96.7778 12.6154L92.4909 16.5887L93.8555 18.0611ZM102.429 10.1146L104.573 8.12795L103.208 6.65556L101.065 8.64218L102.429 10.1146ZM103.891 8.39553L107.404 8.39553L107.404 6.38798L103.891 6.38798L103.891 8.39553ZM114.43 8.39553L121.457 8.39552L121.457 6.38797L114.43 6.38798L114.43 8.39553ZM128.483 8.39552L131.996 8.39553L131.996 6.38798L128.483 6.38798L128.483 8.39552Z" fill="white"/>
</svg>
