<svg width="25" height="12" viewBox="0 0 25 12" fill="none" xmlns="http://www.w3.org/2000/svg">
<path opacity="0.35" fill-rule="evenodd" clip-rule="evenodd" d="M3.51412 0.515153C2.47805 0.515153 2.06836 0.594479 1.64548 0.82124C1.28847 1.01268 1.01136 1.29053 0.820425 1.64849C0.594268 2.0725 0.515153 2.48328 0.515153 3.52211V8.15468C0.515153 9.19351 0.594268 9.6043 0.820425 10.0283C1.01136 10.3863 1.28847 10.6641 1.64548 10.8556C2.06836 11.0823 2.47805 11.1616 3.51412 11.1616H19.0951C20.1311 11.1616 20.5408 11.0823 20.9637 10.8556C21.3207 10.6641 21.5978 10.3863 21.7888 10.0283C22.0149 9.6043 22.094 9.19351 22.094 8.15468V3.52211C22.094 2.48328 22.0149 2.0725 21.7888 1.64849C21.5978 1.29053 21.3207 1.01268 20.9637 0.82124C20.5408 0.594479 20.1311 0.515153 19.0951 0.515153H3.51412Z" fill="white" stroke="white"/>
<path opacity="0.4" d="M23.6354 3.77779V7.89901C24.4623 7.54997 25.0001 6.738 25.0001 5.8384C25.0001 4.93881 24.4623 4.12684 23.6354 3.77779Z" fill="white"/>
<path d="M3.81296 2.06063H18.7964C19.4071 2.06063 19.6286 2.12439 19.8518 2.24411C20.0751 2.36384 20.2503 2.53953 20.3698 2.7634C20.4892 2.98727 20.5528 3.20933 20.5528 3.82168V7.85514C20.5528 8.4675 20.4892 8.68956 20.3698 8.91343C20.2503 9.1373 20.0751 9.31299 19.8518 9.43271C19.6286 9.55244 19.4071 9.6162 18.7964 9.6162H3.81296C3.20223 9.6162 2.98076 9.55244 2.75749 9.43271C2.53422 9.31299 2.35899 9.1373 2.23958 8.91343C2.12018 8.68956 2.05659 8.4675 2.05659 7.85514V3.82168C2.05659 3.20933 2.12018 2.98727 2.23958 2.7634C2.35899 2.53953 2.53422 2.36384 2.75749 2.24411C2.98076 2.12439 3.20223 2.06063 3.81296 2.06063Z" fill="white"/>
</svg>
