<svg width="22" height="12" viewBox="0 0 22 12" fill="none" xmlns="http://www.w3.org/2000/svg">
<path opacity="0.35" fill-rule="evenodd" clip-rule="evenodd" d="M3.41943 0.501272C2.41128 0.501272 2.01263 0.578461 1.60114 0.799112C1.25375 0.985395 0.984107 1.25576 0.79832 1.60408C0.578256 2.01666 0.501272 2.41637 0.501272 3.42721V7.93496C0.501272 8.9458 0.578256 9.34552 0.79832 9.7581C0.984107 10.1064 1.25375 10.3768 1.60114 10.5631C2.01263 10.7837 2.41128 10.8609 3.41943 10.8609H18.5806C19.5887 10.8609 19.9874 10.7837 20.3989 10.5631C20.7462 10.3768 21.0159 10.1064 21.2017 9.7581C21.4217 9.34552 21.4987 8.9458 21.4987 7.93496V3.42721C21.4987 2.41637 21.4217 2.01666 21.2017 1.60408C21.0159 1.25576 20.7462 0.985395 20.3989 0.799112C19.9874 0.578461 19.5887 0.501272 18.5806 0.501272H3.41943Z" fill="white" stroke="white"/>
</svg>
