<svg width="40" height="40" viewBox="0 0 40 40" fill="none" xmlns="http://www.w3.org/2000/svg">
<path d="M24.277 36.3317H24.3237C25.2037 36.3317 26.0354 35.985 26.6654 35.355L31.1854 30.835C31.3403 30.6804 31.4632 30.4967 31.547 30.2945C31.6309 30.0923 31.674 29.8756 31.674 29.6567C31.674 29.4378 31.6309 29.221 31.547 29.0188C31.4632 28.8167 31.3403 28.633 31.1854 28.4783L24.5187 21.8117C24.364 21.6568 24.1804 21.5339 23.9782 21.45C23.776 21.3662 23.5592 21.323 23.3404 21.323C23.1215 21.323 22.9047 21.3662 22.7025 21.45C22.5003 21.5339 22.3167 21.6568 22.162 21.8117L19.5054 24.4683C18.2737 24.1017 15.9754 23.2683 14.5187 21.8117C13.062 20.355 12.2287 18.0567 11.862 16.825L14.5187 14.1683C14.6736 14.0137 14.7965 13.83 14.8804 13.6278C14.9642 13.4256 15.0074 13.2089 15.0074 12.99C15.0074 12.7711 14.9642 12.5544 14.8804 12.3522C14.7965 12.15 14.6736 11.9663 14.5187 11.8117L7.85203 5.145C7.5334 4.84425 7.11184 4.67672 6.67369 4.67672C6.23555 4.67672 5.81399 4.84425 5.49536 5.145L0.977028 9.665C0.343694 10.2983 -0.0129724 11.1683 0.000360908 12.0567C0.0386942 14.43 0.667027 22.6733 7.16369 29.17C13.6604 35.6667 21.9037 36.2933 24.277 36.3317ZM6.67536 8.68L10.9854 12.99L8.83036 15.145C8.63425 15.3406 8.49019 15.5821 8.4113 15.8476C8.33241 16.1131 8.3212 16.3941 8.37869 16.665C8.41869 16.8567 9.39703 21.4017 12.1637 24.1683C14.9304 26.935 19.4754 27.9133 19.667 27.9533C19.9379 28.0111 20.219 28.0001 20.4846 27.9212C20.7501 27.8423 20.9916 27.698 21.187 27.5017L23.342 25.3467L27.652 29.6567L24.3087 32.9983C22.2287 32.9633 15.112 32.405 9.52036 26.8117C3.91036 21.2017 3.36703 14.06 3.33369 12.0217L6.67536 8.68ZM29.9987 17.9983H33.332C33.332 9.44833 26.877 3 18.3154 3V6.33333C25.0854 6.33333 29.9987 11.2383 29.9987 17.9983Z" fill="white"/>
<path d="M21.6649 13.3333C25.1699 13.3333 26.6649 14.8283 26.6649 18.3333H29.9983C29.9983 12.9583 27.0399 10 21.6649 10V13.3333Z" fill="white"/>
</svg>
