<svg width="18" height="8" viewBox="0 0 18 8" fill="none" xmlns="http://www.w3.org/2000/svg">
<path d="M1.70926 0H16.2907C16.8851 0 17.1006 0.062049 17.3179 0.178564C17.5352 0.295078 17.7057 0.466059 17.8219 0.683922C17.9381 0.901786 18 1.11788 18 1.71382V5.63908C18 6.23501 17.9381 6.45111 17.8219 6.66897C17.7057 6.88683 17.5352 7.05781 17.3179 7.17433C17.1006 7.29084 16.8851 7.35289 16.2907 7.35289H1.70926C1.11491 7.35289 0.899387 7.29084 0.682103 7.17433C0.464819 7.05781 0.294293 6.88683 0.178088 6.66897C0.0618837 6.45111 0 6.23501 0 5.63908V1.71382C0 1.11788 0.0618837 0.901786 0.178088 0.683922C0.294293 0.466059 0.464819 0.295078 0.682103 0.178564C0.899387 0.062049 1.11491 0 1.70926 0Z" fill="white"/>
</svg>
