<svg width="16" height="16" viewBox="0 0 16 16" fill="none" xmlns="http://www.w3.org/2000/svg">
<path d="M8 6C8.27614 6 8.5 5.77614 8.5 5.5C8.5 5.22386 8.27614 5 8 5C7.72386 5 7.5 5.22386 7.5 5.5C7.5 5.77614 7.72386 6 8 6Z" fill="#01BDC3"/>
<path d="M8.00001 1C6.54184 1.00172 5.1439 1.58174 4.11282 2.61281C3.08174 3.64389 2.50173 5.04184 2.50001 6.5C2.49826 7.69161 2.8875 8.85089 3.60801 9.8C3.60801 9.8 3.75801 9.9975 3.78251 10.026L8.00001 15L12.2195 10.0235C12.2415 9.997 12.392 9.8 12.392 9.8L12.3925 9.7985C13.1127 8.84981 13.5017 7.69107 13.5 6.5C13.4983 5.04184 12.9183 3.64389 11.8872 2.61281C10.8561 1.58174 9.45817 1.00172 8.00001 1ZM8.00001 4C8.29668 4 8.58669 4.08797 8.83336 4.2528C9.08003 4.41762 9.27229 4.65189 9.38583 4.92597C9.49936 5.20006 9.52906 5.50166 9.47118 5.79264C9.41331 6.08361 9.27044 6.35088 9.06067 6.56066C8.85089 6.77044 8.58361 6.9133 8.29264 6.97118C8.00167 7.02906 7.70007 6.99935 7.42598 6.88582C7.15189 6.77229 6.91762 6.58003 6.7528 6.33336C6.58798 6.08668 6.50001 5.79667 6.50001 5.5C6.5004 5.1023 6.65857 4.721 6.93978 4.43978C7.221 4.15856 7.6023 4.0004 8.00001 4ZM10 9.5H9.00001V8.5H7.00001V9.5H6.00001V8.5C6.00027 8.23486 6.10571 7.98066 6.29319 7.79319C6.48067 7.60571 6.73487 7.50026 7.00001 7.5H9.00001C9.26514 7.50026 9.51934 7.60571 9.70682 7.79319C9.8943 7.98066 9.99974 8.23486 10 8.5V9.5Z" fill="#01BDC3"/>
</svg>
