<svg width="17" height="11" viewBox="0 0 17 11" fill="none" xmlns="http://www.w3.org/2000/svg">
<path d="M0.999996 6.68443H1.99999C2.55228 6.68443 2.99999 7.13333 2.99999 7.68709V9.69242C2.99999 10.2462 2.55228 10.6951 1.99999 10.6951H0.999996C0.447713 10.6951 0 10.2462 0 9.69242V7.68709C0 7.13333 0.447713 6.68443 0.999996 6.68443ZM5.66664 4.6791H6.66663C7.21891 4.6791 7.66663 5.12801 7.66663 5.68176V9.69242C7.66663 10.2462 7.21891 10.6951 6.66663 10.6951H5.66664C5.11435 10.6951 4.66664 10.2462 4.66664 9.69242V5.68176C4.66664 5.12801 5.11435 4.6791 5.66664 4.6791ZM10.3333 2.33955H11.3333C11.8856 2.33955 12.3333 2.78846 12.3333 3.34221V9.69242C12.3333 10.2462 11.8856 10.6951 11.3333 10.6951H10.3333C9.78102 10.6951 9.33331 10.2462 9.33331 9.69242V3.34221C9.33331 2.78846 9.78102 2.33955 10.3333 2.33955ZM14.9999 0H15.9999C16.5522 0 16.9999 0.448908 16.9999 1.00266V9.69242C16.9999 10.2462 16.5522 10.6951 15.9999 10.6951H14.9999C14.4477 10.6951 13.9999 10.2462 13.9999 9.69242V1.00266C13.9999 0.448908 14.4477 0 14.9999 0Z" fill="white"/>
</svg>
