<svg width="30" height="30" viewBox="0 0 30 30" fill="none" xmlns="http://www.w3.org/2000/svg">
<path d="M15 19.54C10.68 19.54 7.20001 16.06 7.20001 11.74C7.20001 9.82 7.92001 8.02 9.18001 6.58L10.08 7.36C9.00001 8.56 8.40001 10.12 8.40001 11.74C8.40001 15.4 11.34 18.34 15 18.34C15.96 18.34 16.86 18.16 17.76 17.74L18.24 18.82C17.22 19.3 16.14 19.54 15 19.54ZM20.82 16.96L19.92 16.18C21 14.98 21.6 13.42 21.6 11.8C21.6 8.14 18.66 5.2 15 5.2C14.04 5.2 13.14 5.38 12.24 5.8L11.76 4.72C12.78 4.24 13.86 4 15 4C19.32 4 22.8 7.48 22.8 11.8C22.8 13.66 22.08 15.52 20.82 16.96Z" fill="black"/>
<path d="M10.8 11.8H9.6V8.2H6V7H10.8V11.8ZM24 17.8H19.2V13H20.4V16.6H24V17.8Z" fill="black"/>
</svg>
