<svg width="21" height="21" viewBox="0 0 21 21" fill="none" xmlns="http://www.w3.org/2000/svg">
<g clip-path="url(#clip0_742_448)">
<path d="M18.75 9.18749H17.625V6.23437C17.625 2.79726 14.4281 0 10.5 0C6.57187 0 3.375 2.79726 3.375 6.23437V9.18749H2.25C1.00781 9.18749 0 10.0693 0 11.1562V19.0312C0 20.1181 1.00781 21 2.25 21H18.75C19.9922 21 21 20.1181 21 19.0312V11.1562C21 10.0693 19.9922 9.18749 18.75 9.18749ZM13.875 9.18749H7.12499V6.23437C7.12499 4.60605 8.63905 3.28125 10.5 3.28125C12.3609 3.28125 13.875 4.60605 13.875 6.23437V9.18749Z" fill="white"/>
</g>
<defs>
<clipPath id="clip0_742_448">
<rect width="20.0584" height="20.0584" fill="white" transform="scale(1.04694)"/>
</clipPath>
</defs>
</svg>
