<svg width="11" height="10" viewBox="0 0 11 10" fill="none" xmlns="http://www.w3.org/2000/svg">
<path d="M4.36728e-08 2.97052C-6.76404e-05 2.57582 0.0785378 2.18507 0.231222 1.8211C0.383907 1.45713 0.607608 1.12724 0.889251 0.850718C1.17089 0.574196 1.50483 0.356585 1.87154 0.210604C2.23825 0.0646232 2.63038 -0.0067999 3.02501 0.000509342C3.49194 -0.00197034 3.95407 0.0948179 4.38076 0.284459C4.80745 0.474101 5.18897 0.752264 5.50002 1.10051C5.81107 0.752264 6.19259 0.474101 6.61928 0.284459C7.04597 0.0948179 7.5081 -0.00197034 7.97503 0.000509342C8.36966 -0.0067999 8.76179 0.0646232 9.1285 0.210604C9.49521 0.356585 9.82915 0.574196 10.1108 0.850718C10.3924 1.12724 10.6161 1.45713 10.7688 1.8211C10.9215 2.18507 11.0001 2.57582 11 2.97052C11 5.91633 7.49158 8.14054 5.50002 9.90055C3.51286 8.12569 4.36728e-08 5.91853 4.36728e-08 2.97052Z" fill="white"/>
</svg>
