<svg width="64" height="77" viewBox="0 0 64 77" fill="none" xmlns="http://www.w3.org/2000/svg">
<path d="M64 75.7663C64 73.1663 53.3 62.4663 45.4 57.0663C38.4 52.2663 28.2 47.1663 18.2 43.2663C14.2 41.6663 11.1 40.0663 11.2 39.6663C11.4 39.2663 14.2 33.8663 17.4 27.6663C22.2 18.4663 23.7 16.2663 25.5 16.2663C27.5 16.2663 27.4 16.8663 22.8 25.9663C20.2 31.2663 18 36.0663 18 36.5663C18 37.0663 21 38.7663 24.7 40.2663C38 45.7663 53.5 57.9663 61.8 69.2663L63.9 72.2663L64 68.3663C64 66.1663 63.1 63.0663 61.9 61.1663C58.7 55.9663 47.6 46.4663 38.1 40.7663C33.4 37.9663 28.9 35.3663 28.1 34.8663C27.1 34.1663 28.2 31.2663 33.6 20.8663C37.3 13.6663 40.9 7.76633 41.7 7.76633C43.5 7.76633 52.5 12.3663 57.8 15.9663C64 20.1663 63.3 17.0663 56.7 11.0663C51 5.86633 38.8 -0.733674 36.6 0.0663264C35.8 0.366326 34 3.16633 32.6 6.16633C31.1 9.26633 29.7 11.7663 29.5 11.7663C29.2 11.7663 27.3 10.8663 25.3 9.76633C23.2 8.66633 21.1 7.76633 20.5 7.76633C19.6 7.76633 0 42.8663 0 44.5663C0 44.9663 1.1 45.4663 2.5 45.5663C3.8 45.6663 10.1 47.4663 16.3 49.6663C29.3 54.0663 43.3 61.7663 55.7 71.4663C62.7 76.8663 64 77.5663 64 75.7663Z" fill="#F05A23"/>
</svg>
