<svg width="70" height="82" viewBox="0 0 70 82" fill="none" xmlns="http://www.w3.org/2000/svg">
<path d="M0.200567 77.8885C0.100284 74.178 0.701986 73.2754 6.41815 67.5593C16.3462 57.5309 30.6868 48.9065 46.9328 42.8895C50.3424 41.6861 53.1503 40.4827 53.1503 40.2821C53.1503 40.0816 50.4427 34.8668 47.2336 28.6492C42.6206 20.0248 40.7152 17.2169 38.8098 16.7155C36.403 16.1138 36.5032 16.4146 41.2166 25.8413C43.9242 31.2566 46.1305 36.1705 46.1305 36.6719C46.1305 37.1733 43.122 38.8781 39.4115 40.3824C25.9735 45.9983 10.5298 58.1326 2.20624 69.4647L0.100284 72.4732L0 68.3615C0 63.3474 3.30936 58.3332 11.4323 51.3133C16.246 47.2017 33.4947 35.6691 36.5032 34.5659C37.9072 34.0645 23.9678 7.79022 22.3633 7.79022C20.5581 7.79022 11.5326 12.4033 6.31787 16.0135C0 20.3257 0.802269 17.1166 7.62156 10.899C13.3377 5.68426 25.1712 -0.733894 27.578 0.0683753C28.28 0.369226 30.0851 3.17717 31.4891 6.18568C32.9933 9.29447 34.3973 11.8016 34.5979 11.8016C34.8987 11.8016 36.8041 10.899 38.8098 9.79589C40.9157 8.69277 43.0217 7.79022 43.6234 7.79022C44.5259 7.79022 56.8608 29.4515 61.7747 39.881C68.594 54.2215 70.1986 58.0323 69.6971 58.9349C69.3963 59.5366 66.2875 59.9377 62.8779 59.9377C59.4682 60.038 53.752 60.6397 50.1418 61.442L43.6234 62.7457L50.1418 62.2442C55.0557 61.8431 56.9611 62.0437 57.7634 63.0465C58.7662 64.3502 62.1759 72.8743 62.1759 74.0777C62.1759 74.2783 56.4597 74.5791 49.4398 74.5791C34.5979 74.6794 23.5667 76.0834 10.3292 79.5933C5.21475 80.897 0.802269 82.0001 0.601702 82.0001C0.401135 82.0001 0.200567 80.195 0.200567 77.8885ZM15.7445 68.0607C25.472 62.5451 38.6092 57.5309 49.7407 55.2244L58.7662 53.4193L57.4625 50.2102C56.0586 46.6 55.7577 46.6 42.7208 51.6142C31.5894 55.8261 7.72184 70.3672 5.41532 74.2783C5.01418 74.88 5.5156 74.7797 6.61872 73.8771C7.62156 72.9746 11.8335 70.3672 15.7445 68.0607Z" fill="#E81E4C"/>
</svg>
