<svg width="115" height="111" viewBox="0 0 115 111" fill="none" xmlns="http://www.w3.org/2000/svg">
<path d="M34.9157 0.459682C35.2835 0.302722 35.6533 0.149478 36.025 0H78.9751C79.3468 0.149478 79.7166 0.302722 80.0844 0.459682H34.9157Z" fill="white"/>
<path d="M26.273 5.0565C26.5126 4.90154 26.7534 4.74831 26.9955 4.59682H88.0046C88.2467 4.74831 88.4875 4.90154 88.7271 5.0565H26.273Z" fill="white"/>
<path d="M20.6534 9.19364C20.471 9.34577 20.2895 9.499 20.109 9.65332H94.8911C94.7106 9.499 94.5291 9.34577 94.3467 9.19364H20.6534Z" fill="white"/>
<path d="M15.3188 14.2501C15.4619 14.0961 15.6058 13.9429 15.7505 13.7905H99.2496C99.3943 13.9429 99.5382 14.0961 99.6813 14.2501H15.3188Z" fill="white"/>
<path d="M11.822 18.3873C11.7048 18.5399 11.5884 18.6931 11.4727 18.847H45.3058C45.7912 18.6842 46.2809 18.5309 46.7748 18.3873H11.822Z" fill="white"/>
<path d="M68.2253 18.3873C68.7191 18.5309 69.2089 18.6842 69.6943 18.847H103.527C103.412 18.6931 103.295 18.5399 103.178 18.3873H68.2253Z" fill="white"/>
<path d="M36.717 22.9841H8.63472C8.53945 23.1369 8.44489 23.2901 8.35102 23.4438H36.0226C36.2523 23.2881 36.4838 23.1349 36.717 22.9841Z" fill="white"/>
<path d="M78.9775 23.4438C78.7478 23.2881 78.5163 23.1349 78.283 22.9841H106.365C106.461 23.1369 106.555 23.2901 106.649 23.4438H78.9775Z" fill="white"/>
<path d="M30.9174 27.5809H6.0532C5.97639 27.7338 5.90025 27.887 5.82477 28.0406H30.448C30.6032 27.8861 30.7597 27.7328 30.9174 27.5809Z" fill="white"/>
<path d="M84.5521 28.0406C84.3969 27.8861 84.2404 27.7328 84.0826 27.5809H108.947C109.024 27.7338 109.1 27.887 109.175 28.0406H84.5521Z" fill="white"/>
<path d="M26.8473 32.1777H3.99163C3.93101 32.3307 3.87102 32.4839 3.81168 32.6374H26.5068C26.6192 32.4833 26.7327 32.3301 26.8473 32.1777Z" fill="white"/>
<path d="M88.4933 32.6374C88.3809 32.4833 88.2674 32.3301 88.1528 32.1777H111.008C111.069 32.3307 111.129 32.4839 111.188 32.6374H88.4933Z" fill="white"/>
<path d="M23.8772 36.7746H2.39275C2.34678 36.9275 2.30142 37.0808 2.25668 37.2343H23.6288C23.7106 37.0804 23.7933 36.9272 23.8772 36.7746Z" fill="white"/>
<path d="M91.3713 37.2343C91.2895 37.0804 91.2067 36.9272 91.1229 36.7746H112.607C112.653 36.9275 112.699 37.0808 112.743 37.2343H91.3713Z" fill="white"/>
<path d="M21.7368 41.3714H1.21728C1.18487 41.5244 1.15308 41.6776 1.12189 41.8311H21.5624C21.6196 41.6774 21.6777 41.5241 21.7368 41.3714Z" fill="white"/>
<path d="M93.4377 41.8311C93.3805 41.6774 93.3223 41.5241 93.2632 41.3714H113.783C113.815 41.5244 113.847 41.6776 113.878 41.8311H93.4377Z" fill="white"/>
<path d="M20.2857 45.9682H0.437975C0.418398 46.1213 0.399424 46.2745 0.381055 46.4279H20.175C20.211 46.2743 20.2479 46.1211 20.2857 45.9682Z" fill="white"/>
<path d="M94.825 46.4279C94.7891 46.2743 94.7522 46.1211 94.7144 45.9682H114.562C114.582 46.1213 114.601 46.2745 114.619 46.4279H94.825Z" fill="white"/>
<path d="M19.444 50.565H0.0362118C0.0289693 50.7181 0.0223264 50.8713 0.0162855 51.0247H19.3914C19.4081 50.8712 19.4256 50.718 19.444 50.565Z" fill="white"/>
<path d="M95.6086 51.0247C95.592 50.8712 95.5745 50.718 95.556 50.565H114.964C114.971 50.7181 114.978 50.8713 114.984 51.0247H95.6086Z" fill="white"/>
<path d="M19.1667 55.1619H0C0.00482743 55.3152 0.0102567 55.4685 0.0162855 55.6215H19.1689C19.1674 55.4812 19.1667 55.3407 19.1667 55.2C19.1667 55.1873 19.1667 55.1746 19.1667 55.1619Z" fill="white"/>
<path d="M95.8311 55.6215C95.8326 55.4812 95.8334 55.3407 95.8334 55.2C95.8334 55.1873 95.8334 55.1746 95.8334 55.1619H115C114.999 55.2086 114.997 55.2553 114.995 55.302C114.992 55.4086 114.988 55.5151 114.984 55.6215H95.8311Z" fill="white"/>
<path d="M19.4349 59.7587H0.32789C0.345007 59.9121 0.36273 60.0653 0.381054 60.2184H19.4922C19.4722 60.0654 19.4531 59.9122 19.4349 59.7587Z" fill="white"/>
<path d="M95.5079 60.2184C95.5279 60.0654 95.547 59.9122 95.5652 59.7587H114.672C114.655 59.9121 114.637 60.0653 114.619 60.2184H95.5079Z" fill="white"/>
<path d="M20.2669 64.3555H1.03043C1.06031 64.5089 1.09079 64.6622 1.12189 64.8152H20.3825C20.3431 64.6623 20.3045 64.5091 20.2669 64.3555Z" fill="white"/>
<path d="M94.6175 64.8152C94.657 64.6623 94.6956 64.5091 94.7332 64.3555H113.97C113.94 64.5089 113.909 64.6622 113.878 64.8152H94.6175Z" fill="white"/>
<path d="M21.7074 68.9523H2.12481C2.16814 69.1058 2.2121 69.259 2.25668 69.412H21.8876C21.8265 69.2593 21.7665 69.106 21.7074 68.9523Z" fill="white"/>
<path d="M93.1125 69.412C93.1735 69.2593 93.2336 69.106 93.2927 68.9523H112.875C112.832 69.1058 112.788 69.259 112.743 69.412H93.1125Z" fill="white"/>
<path d="M23.8353 73.5491H3.6363C3.69413 73.7027 3.75259 73.8559 3.81168 74.0088H24.0905C24.0044 73.8562 23.9194 73.703 23.8353 73.5491Z" fill="white"/>
<path d="M90.9095 74.0088C90.9956 73.8562 91.0807 73.703 91.1647 73.5491H111.364C111.306 73.7027 111.247 73.8559 111.188 74.0088H90.9095Z" fill="white"/>
<path d="M26.79 78.146H5.60145C5.67523 78.2996 5.74967 78.4528 5.82477 78.6056H27.1394C27.0218 78.4533 26.9053 78.3001 26.79 78.146Z" fill="white"/>
<path d="M87.8606 78.6056C87.9782 78.4533 88.0947 78.3001 88.2101 78.146H109.399C109.325 78.2996 109.25 78.4528 109.175 78.6056H87.8606Z" fill="white"/>
<path d="M30.8383 82.7428H8.07324C8.16514 82.8965 8.25773 83.0497 8.35102 83.2025H31.3214C31.1591 83.0506 30.998 82.8974 30.8383 82.7428Z" fill="white"/>
<path d="M83.6787 83.2025C83.841 83.0506 84.002 82.8974 84.1617 82.7428H106.927C106.835 82.8965 106.742 83.0497 106.649 83.2025H83.6787Z" fill="white"/>
<path d="M36.5994 87.3396H11.1305C11.2438 87.4934 11.3579 87.6466 11.4727 87.7993H37.3223C37.0795 87.6487 36.8386 87.4954 36.5994 87.3396Z" fill="white"/>
<path d="M77.6777 87.7993C77.9205 87.6487 78.1615 87.4954 78.4007 87.3396H103.87C103.756 87.4934 103.642 87.6466 103.527 87.7993H77.6777Z" fill="white"/>
<path d="M46.5157 91.9364H14.8964C15.0363 92.0904 15.1772 92.2436 15.3188 92.3961H48.1945C47.6298 92.2553 47.0701 92.102 46.5157 91.9364Z" fill="white"/>
<path d="M66.8056 92.3961C67.3702 92.2553 67.9299 92.102 68.4844 91.9364H100.104C99.9637 92.0904 99.8229 92.2436 99.6813 92.3961H66.8056Z" fill="white"/>
<path d="M20.109 96.9929C19.931 96.8408 19.754 96.6875 19.5779 96.5333H95.4221C95.2461 96.6875 95.069 96.8408 94.8911 96.9929H20.109Z" fill="white"/>
<path d="M25.5734 101.13C25.8054 101.285 26.0386 101.438 26.273 101.59H88.7271C88.9614 101.438 89.1946 101.285 89.4266 101.13H25.5734Z" fill="white"/>
<path d="M34.9157 106.187C34.5645 106.037 34.2152 105.883 33.8677 105.727H81.1324C80.7849 105.883 80.4355 106.037 80.0844 106.187H34.9157Z" fill="white"/>
<path d="M57.5 110.783C59.9769 110.783 62.4172 110.627 64.8116 110.324H50.1885C52.5829 110.627 55.0232 110.783 57.5 110.783Z" fill="white"/>
</svg>
