<svg width="27" height="27" viewBox="0 0 27 27" fill="none" xmlns="http://www.w3.org/2000/svg">
<path d="M16.1775 10.6863L16.2064 10.7936L16.3136 10.8224L16.9784 11.0014C17.0812 11.0291 17.1871 10.9682 17.2147 10.8653L18.1718 11.123C18.1441 11.2259 18.2051 11.3317 18.3079 11.3594L19.6374 11.7174C19.7403 11.745 19.8461 11.6841 19.8738 11.5813L20.8309 11.839C20.8032 11.9418 20.8641 12.0476 20.967 12.0753L22.2965 12.4333C22.3993 12.461 22.5052 12.4001 22.5328 12.2972L23.4899 12.5549C23.4622 12.6578 23.5232 12.7636 23.626 12.7913L24.9555 13.1492C25.0584 13.1769 25.1642 13.116 25.1919 13.0132L26.149 13.2709C26.1233 13.3662 26.1738 13.4642 26.2633 13.5C26.1738 13.5358 26.1233 13.6337 26.149 13.7291L25.1919 13.9868C25.1642 13.8839 25.0584 13.823 24.9555 13.8507L23.626 14.2087C23.5232 14.2364 23.4622 14.3422 23.4899 14.4451L22.5328 14.7027C22.5052 14.5999 22.3993 14.539 22.2965 14.5667L20.967 14.9246C20.8641 14.9523 20.8032 15.0581 20.8309 15.161L19.8738 15.4187C19.8461 15.3158 19.7403 15.2549 19.6374 15.2826L18.3079 15.6406C18.2051 15.6683 18.1441 15.7741 18.1718 15.8769L17.2147 16.1346C17.1871 16.0318 17.0812 15.9709 16.9784 15.9985L16.3136 16.1775L16.2064 16.2064L16.1775 16.3136L15.9985 16.9784C15.9709 17.0812 16.0318 17.1871 16.1346 17.2147L15.8769 18.1718C15.7741 18.1441 15.6683 18.2051 15.6406 18.3079L15.2826 19.6374C15.2549 19.7403 15.3158 19.8461 15.4187 19.8738L15.161 20.8309C15.0581 20.8032 14.9523 20.8641 14.9246 20.967L14.5667 22.2965C14.539 22.3993 14.5999 22.5052 14.7027 22.5328L14.4451 23.4899C14.3422 23.4622 14.2364 23.5232 14.2087 23.626L13.8507 24.9555C13.823 25.0584 13.8839 25.1642 13.9868 25.1919L13.7291 26.149C13.6337 26.1233 13.5358 26.1738 13.5 26.2633C13.4642 26.1738 13.3662 26.1233 13.2709 26.149L13.0132 25.1919C13.116 25.1642 13.1769 25.0584 13.1492 24.9555L12.7913 23.626C12.7636 23.5232 12.6578 23.4622 12.5549 23.4899L12.2972 22.5328C12.4001 22.5052 12.461 22.3993 12.4333 22.2965L12.0753 20.967C12.0476 20.8641 11.9418 20.8032 11.839 20.8309L11.5813 19.8738C11.6841 19.8461 11.745 19.7403 11.7174 19.6374L11.3594 18.3079C11.3317 18.2051 11.2259 18.1441 11.123 18.1718L10.8653 17.2147C10.9682 17.1871 11.0291 17.0812 11.0014 16.9784L10.8224 16.3136L10.7936 16.2064L10.6863 16.1775L10.0216 15.9985C9.91873 15.9709 9.81291 16.0318 9.78521 16.1346L8.82814 15.8769C8.85583 15.7741 8.7949 15.6683 8.69205 15.6406L7.36253 15.2826C7.25968 15.2549 7.15385 15.3158 7.12616 15.4187L6.16909 15.161C6.19678 15.0581 6.13585 14.9523 6.033 14.9246L4.70348 14.5667C4.60063 14.539 4.49481 14.5999 4.46711 14.7027L3.51004 14.4451C3.53773 14.3422 3.4768 14.2364 3.37395 14.2087L2.04443 13.8507C1.94158 13.823 1.83576 13.8839 1.80806 13.9868L0.850987 13.7291C0.876668 13.6337 0.826134 13.5358 0.73663 13.5C0.826134 13.4642 0.876668 13.3662 0.850987 13.2709L1.80806 13.0132C1.83575 13.116 1.94158 13.1769 2.04443 13.1492L3.37395 12.7913C3.4768 12.7636 3.53773 12.6578 3.51004 12.5549L4.46711 12.2972C4.49481 12.4001 4.60063 12.461 4.70348 12.4333L6.033 12.0753C6.13585 12.0476 6.19678 11.9418 6.16909 11.839L7.12616 11.5813C7.15386 11.6841 7.25968 11.745 7.36253 11.7174L8.69205 11.3594C8.7949 11.3317 8.85583 11.2259 8.82814 11.123L9.78521 10.8653C9.81291 10.9682 9.91873 11.0291 10.0216 11.0014L10.6863 10.8224L10.7936 10.7936L10.8224 10.6863L11.0014 10.0216C11.0291 9.91873 10.9682 9.81291 10.8653 9.78521L11.123 8.82814C11.2259 8.85583 11.3317 8.7949 11.3594 8.69205L11.7174 7.36253C11.745 7.25968 11.6841 7.15386 11.5813 7.12616L11.839 6.16909C11.9418 6.19678 12.0476 6.13585 12.0753 6.033L12.4333 4.70348C12.461 4.60063 12.4001 4.49481 12.2972 4.46711L12.5549 3.51004C12.6578 3.53773 12.7636 3.4768 12.7913 3.37395L13.1492 2.04443C13.1769 1.94158 13.116 1.83575 13.0132 1.80806L13.2709 0.850987C13.3662 0.876668 13.4642 0.826135 13.5 0.73663C13.5358 0.826135 13.6337 0.876669 13.7291 0.850988L13.9868 1.80806C13.8839 1.83576 13.823 1.94158 13.8507 2.04443L14.2087 3.37395C14.2364 3.4768 14.3422 3.53773 14.4451 3.51004L14.7027 4.46711C14.5999 4.49481 14.539 4.60063 14.5667 4.70348L14.9246 6.033C14.9523 6.13585 15.0581 6.19678 15.161 6.16909L15.4187 7.12616C15.3158 7.15386 15.2549 7.25968 15.2826 7.36253L15.6406 8.69205C15.6683 8.7949 15.7741 8.85583 15.8769 8.82814L16.1346 9.78521C16.0318 9.81291 15.9709 9.91873 15.9985 10.0216L16.1775 10.6863Z" stroke="white" stroke-width="0.383325" stroke-linecap="round" stroke-dasharray="1.53 1.53"/>
</svg>
