<svg width="39" height="39" viewBox="0 0 39 39" fill="none" xmlns="http://www.w3.org/2000/svg">
<path d="M0.0364029 36.672C-0.0543219 36.8672 0.0303387 37.099 0.225498 37.1897L3.4058 38.6681C3.60096 38.7589 3.83272 38.6742 3.92344 38.479C4.01417 38.2839 3.92951 38.0521 3.73435 37.9614L0.907409 36.6472L2.22158 33.8203C2.31231 33.6251 2.22765 33.3934 2.03249 33.3026C1.83733 33.2119 1.60557 33.2966 1.51485 33.4917L0.0364029 36.672ZM21.9004 8.25115L21.8016 8.62813L21.9004 8.25115ZM11.8621 30.7178L12.1175 31.012L11.8621 30.7178ZM30.9826 11.5972L31.2519 11.8789L30.9826 11.5972ZM11.1929 20.2971L11.5547 20.1524L11.1929 20.2971ZM0.38977 36.8363C0.523481 37.2023 0.523489 37.2023 0.523499 37.2023C0.523504 37.2023 0.523515 37.2023 0.523524 37.2023C0.523543 37.2023 0.523566 37.2023 0.523593 37.2023C0.523647 37.2023 0.523719 37.2023 0.523808 37.2022C0.523985 37.2022 0.524231 37.2021 0.524544 37.202C0.525171 37.2017 0.526069 37.2014 0.527237 37.201C0.529572 37.2001 0.532983 37.1989 0.537451 37.1972C0.546387 37.1939 0.559551 37.1891 0.576784 37.1827C0.611251 37.1698 0.662001 37.1509 0.727776 37.126C0.859322 37.0762 1.051 37.0028 1.29274 36.9077L1.00734 36.1824C0.769036 36.2762 0.580577 36.3484 0.451999 36.397C0.387713 36.4214 0.338404 36.4398 0.305327 36.4521C0.288789 36.4582 0.276309 36.4628 0.268045 36.4659C0.263914 36.4674 0.260836 36.4685 0.258832 36.4693C0.257829 36.4696 0.257096 36.4699 0.256633 36.4701C0.256401 36.4702 0.256237 36.4702 0.256142 36.4703C0.256094 36.4703 0.256064 36.4703 0.256049 36.4703C0.256043 36.4703 0.25604 36.4703 0.256042 36.4703C0.256042 36.4703 0.256047 36.4703 0.256047 36.4703C0.256053 36.4703 0.256059 36.4703 0.38977 36.8363ZM2.81377 36.2852C3.27088 36.0912 3.77783 35.87 4.31669 35.6251L3.9942 34.9156C3.462 35.1575 2.96112 35.376 2.50936 35.5677L2.81377 36.2852ZM5.80408 34.9244C6.28492 34.6894 6.77708 34.4401 7.27036 34.1786L6.90527 33.49C6.42041 33.7471 5.93594 33.9924 5.46187 34.2241L5.80408 34.9244ZM8.71125 33.3778C9.19122 33.0975 9.6632 32.8067 10.1172 32.5074L9.68815 31.8567C9.24759 32.1472 8.78779 32.4306 8.31821 32.7048L8.71125 33.3778ZM11.4713 31.5419C11.6956 31.3676 11.9116 31.1908 12.1175 31.012L11.6066 30.4235C11.4123 30.5922 11.2072 30.76 10.9929 30.9267L11.4713 31.5419ZM12.1175 31.012C12.316 30.8398 12.518 30.662 12.7229 30.4791L12.2039 29.8976C12.0016 30.0782 11.8024 30.2536 11.6066 30.4235L12.1175 31.012ZM13.9144 29.3886C14.2987 29.0283 14.6894 28.6538 15.0835 28.2673L14.5378 27.7109C14.1479 28.0933 13.7614 28.4638 13.3814 28.82L13.9144 29.3886ZM16.2239 27.1244C16.5968 26.7424 16.9701 26.3517 17.3416 25.9539L16.7719 25.422C16.4046 25.8154 16.0352 26.202 15.6662 26.5799L16.2239 27.1244ZM18.4311 24.7599C18.7898 24.3573 19.1443 23.9496 19.4922 23.5385L18.8973 23.035C18.5538 23.4409 18.2037 23.8435 17.8492 24.2414L18.4311 24.7599ZM20.5213 22.2874C20.8615 21.8612 21.1925 21.4331 21.5117 21.0048L20.8868 20.5391C20.5731 20.96 20.2474 21.3812 19.9122 21.8011L20.5213 22.2874ZM22.4572 19.6836C22.7699 19.227 23.0663 18.7721 23.3433 18.321L22.6791 17.9133C22.4096 18.3522 22.1203 18.7962 21.8142 19.2432L22.4572 19.6836ZM24.1555 16.9004C24.4207 16.3969 24.6565 15.9005 24.8578 15.4148L24.1378 15.1164C23.9469 15.5771 23.7216 16.0517 23.4659 16.5371L24.1555 16.9004ZM25.393 13.8422C25.5427 13.2626 25.6294 12.7007 25.6392 12.165L24.8599 12.1507C24.8515 12.6135 24.7761 13.1139 24.6384 13.6473L25.393 13.8422ZM25.3495 10.4413C25.1321 9.89516 24.7891 9.40998 24.3103 9.00004L23.8034 9.59203C24.1875 9.92092 24.4553 10.3023 24.6255 10.7297L25.3495 10.4413ZM22.8081 8.13268C22.5559 8.03563 22.2863 7.94941 21.9991 7.87419L21.8016 8.62813C22.0634 8.69668 22.3052 8.77426 22.5282 8.86006L22.8081 8.13268ZM21.9991 7.87419C21.7166 7.80019 21.4373 7.73866 21.1614 7.68912L21.0237 8.45622C21.2791 8.50208 21.5384 8.5592 21.8016 8.62813L21.9991 7.87419ZM19.4483 7.53138C18.8543 7.53009 18.2813 7.58607 17.7316 7.69324L17.8808 8.45821C18.3804 8.36079 18.9029 8.30956 19.4466 8.31075L19.4483 7.53138ZM16.0766 8.19448C15.5381 8.41957 15.031 8.69648 14.558 9.01669L14.9949 9.66208C15.4264 9.36994 15.8879 9.11804 16.3772 8.91357L16.0766 8.19448ZM13.2289 10.1136C12.8214 10.5189 12.4516 10.9602 12.1222 11.4285L12.7596 11.8769C13.0638 11.4445 13.4043 11.0384 13.7786 10.6661L13.2289 10.1136ZM11.2557 12.9092C11.0078 13.4266 10.8028 13.9634 10.6437 14.511L11.3921 14.7285C11.5393 14.2219 11.729 13.725 11.9585 13.246L11.2557 12.9092ZM10.3044 16.1937C10.2389 16.7675 10.2242 17.3443 10.2636 17.9149L11.0412 17.8612C11.0051 17.3398 11.0184 16.8106 11.0787 16.282L10.3044 16.1937ZM10.5533 19.6189C10.6309 19.8977 10.7233 20.1724 10.8311 20.4418L11.5547 20.1524C11.4577 19.9099 11.3743 19.6621 11.3042 19.4101L10.5533 19.6189ZM10.8311 20.4418C10.939 20.7117 11.0612 20.9596 11.1974 21.1858L11.865 20.7837C11.7524 20.5967 11.6485 20.3869 11.5547 20.1524L10.8311 20.4418ZM12.3639 22.4063C12.8482 22.7114 13.3926 22.8771 13.9758 22.9286L14.0444 22.1523C13.5665 22.11 13.1448 21.9771 12.7794 21.7469L12.3639 22.4063ZM15.5998 22.8176C16.0917 22.7188 16.602 22.5659 17.1251 22.3687L16.8501 21.6394C16.3583 21.8249 15.889 21.9646 15.4463 22.0535L15.5998 22.8176ZM18.5565 21.739C19.0038 21.5166 19.4589 21.2685 19.9187 20.999L19.5247 20.3266C19.0781 20.5883 18.6388 20.8277 18.2096 21.0411L18.5565 21.739ZM21.2291 20.1843C21.651 19.9077 22.0753 19.6167 22.5001 19.3141L22.048 18.6793C21.6305 18.9766 21.2145 19.262 20.8018 19.5325L21.2291 20.1843ZM23.7387 18.4018C24.1436 18.0941 24.5474 17.7785 24.9481 17.4576L24.461 16.8492C24.0649 17.1664 23.6664 17.4779 23.2672 17.7812L23.7387 18.4018ZM26.1348 16.4858C26.5286 16.1565 26.9177 15.8243 27.3005 15.492L26.7896 14.9035C26.4101 15.2329 26.0246 15.562 25.6348 15.888L26.1348 16.4858ZM28.4496 14.4779C28.8366 14.131 29.2147 13.7867 29.5818 13.4481L29.0535 12.8752C28.6888 13.2115 28.3134 13.5533 27.9294 13.8976L28.4496 14.4779ZM30.6985 12.4051C30.8871 12.2268 31.0717 12.0513 31.2519 11.8789L30.7133 11.3156C30.534 11.487 30.3505 11.6616 30.1631 11.8388L30.6985 12.4051ZM31.2519 11.8789C31.4663 11.6739 31.6755 11.4678 31.8797 11.2609L31.3249 10.7135C31.1259 10.9151 30.9221 11.1159 30.7133 11.3156L31.2519 11.8789ZM33.0793 9.9739C33.4772 9.52222 33.8522 9.07056 34.2051 8.62287L33.5931 8.14036C33.2486 8.5774 32.8826 9.01813 32.4945 9.45872L33.0793 9.9739ZM35.2559 7.21462C35.6088 6.71475 35.9337 6.22553 36.2319 5.7529L35.5727 5.33707C35.2813 5.79889 34.9639 6.27686 34.6192 6.76516L35.2559 7.21462ZM37.1313 4.24179C37.447 3.67856 37.719 3.15526 37.9499 2.68535L37.2505 2.34159C37.0253 2.79973 36.7599 3.31054 36.4515 3.86071L37.1313 4.24179ZM38.6775 1.08416C38.7862 0.821857 38.8662 0.615081 38.9194 0.472978C38.9459 0.401923 38.9658 0.347028 38.9791 0.309436C38.9858 0.29064 38.9909 0.276168 38.9943 0.266165C38.9961 0.261163 38.9974 0.257278 38.9983 0.254527C38.9988 0.253151 38.9992 0.252062 38.9994 0.251256C38.9996 0.250851 38.9997 0.25052 38.9998 0.250261C38.9998 0.250131 38.9999 0.25002 38.9999 0.249925C38.9999 0.24988 38.9999 0.249835 38.9999 0.249798C38.9999 0.249778 39 0.249754 39 0.249745C39 0.24972 39 0.249696 38.6308 0.124924C38.2616 0.000151646 38.2616 0.00013108 38.2617 0.0001112C38.2617 0.000106401 38.2617 8.65202e-05 38.2617 7.82938e-05C38.2617 5.77277e-05 38.2617 4.12748e-05 38.2617 3.23628e-05C38.2617 8.36897e-06 38.2617 4.25574e-06 38.2617 2.00231e-05C38.2617 4.5388e-05 38.2616 0.000144105 38.2616 0.000314804C38.2615 0.000654831 38.2613 0.0012773 38.2609 0.00218426C38.2603 0.00399751 38.2593 0.00693778 38.2579 0.0109907C38.2551 0.0190985 38.2507 0.03165 38.2447 0.0485033C38.2327 0.0822112 38.2144 0.133125 38.1893 0.200106C38.1392 0.334078 38.0626 0.53229 37.9576 0.785649L38.6775 1.08416Z" fill="white"/>
</svg>
