<svg width="107" height="87" viewBox="0 0 107 87" fill="none" xmlns="http://www.w3.org/2000/svg">
<path fill-rule="evenodd" clip-rule="evenodd" d="M53.5 0C52.8129 0 52.2558 0.556364 52.2558 1.24265V85.743C52.2558 86.4293 52.8129 86.9856 53.5 86.9856C54.1871 86.9856 54.7442 86.4293 54.7442 85.743V1.24265C54.7442 0.556364 54.1871 0 53.5 0ZM44.7907 12.4265C44.1036 12.4265 43.5465 12.9828 43.5465 13.6692V85.743C43.5465 86.4293 44.1036 86.9856 44.7907 86.9856C45.4778 86.9856 46.0349 86.4293 46.0349 85.743V13.6692C46.0349 12.9828 45.4778 12.4265 44.7907 12.4265ZM36.0814 24.853C35.3943 24.853 34.8372 25.4094 34.8372 26.0957V85.743C34.8372 86.4293 35.3943 86.9856 36.0814 86.9856C36.7685 86.9856 37.3256 86.4293 37.3256 85.743V26.0957C37.3256 25.4094 36.7685 24.853 36.0814 24.853ZM27.3721 37.2796C26.685 37.2796 26.1279 37.8359 26.1279 38.5222V85.743C26.1279 86.4293 26.685 86.9856 27.3721 86.9856C28.0592 86.9856 28.6163 86.4293 28.6163 85.743V38.5222C28.6163 37.8359 28.0592 37.2796 27.3721 37.2796ZM18.6628 49.7061C17.9757 49.7061 17.4186 50.2624 17.4186 50.9487V85.743C17.4186 86.4293 17.9757 86.9856 18.6628 86.9856C19.3499 86.9856 19.907 86.4293 19.907 85.743V50.9487C19.907 50.2624 19.3499 49.7061 18.6628 49.7061ZM9.95349 62.1326C9.26639 62.1326 8.70931 62.6889 8.70931 63.3752V85.743C8.70931 86.4293 9.26639 86.9856 9.95349 86.9856C10.6406 86.9856 11.1977 86.4293 11.1977 85.743V63.3752C11.1977 62.6889 10.6406 62.1326 9.95349 62.1326ZM0 75.8018C0 75.1154 0.557089 74.5591 1.24419 74.5591C1.93128 74.5591 2.48837 75.1154 2.48837 75.8018V85.743C2.48837 86.4293 1.93128 86.9856 1.24419 86.9856C0.557089 86.9856 0 86.4293 0 85.743V75.8018ZM107 75.8018C107 75.1154 106.443 74.5591 105.756 74.5591C105.069 74.5591 104.512 75.1154 104.512 75.8018V85.743C104.512 86.4293 105.069 86.9856 105.756 86.9856C106.443 86.9856 107 86.4293 107 85.743V75.8018ZM98.2907 63.3752C98.2907 62.6889 97.7336 62.1326 97.0465 62.1326C96.3594 62.1326 95.8024 62.6889 95.8024 63.3752V85.743C95.8024 86.4293 96.3594 86.9856 97.0465 86.9856C97.7336 86.9856 98.2907 86.4293 98.2907 85.743V63.3752ZM89.5814 50.9487C89.5814 50.2624 89.0243 49.7061 88.3372 49.7061C87.6501 49.7061 87.093 50.2624 87.093 50.9487V85.743C87.093 86.4293 87.6501 86.9856 88.3372 86.9856C89.0243 86.9856 89.5814 86.4293 89.5814 85.743V50.9487ZM80.8721 38.5222C80.8721 37.8359 80.315 37.2796 79.6279 37.2796C78.9408 37.2796 78.3837 37.8359 78.3837 38.5222V85.743C78.3837 86.4293 78.9408 86.9856 79.6279 86.9856C80.315 86.9856 80.8721 86.4293 80.8721 85.743V38.5222ZM72.1628 26.0957C72.1628 25.4094 71.6057 24.853 70.9186 24.853C70.2315 24.853 69.6744 25.4094 69.6744 26.0957V85.743C69.6744 86.4293 70.2315 86.9856 70.9186 86.9856C71.6057 86.9856 72.1628 86.4293 72.1628 85.743V26.0957ZM63.4535 13.6692C63.4535 12.9828 62.8964 12.4265 62.2093 12.4265C61.5222 12.4265 60.9651 12.9828 60.9651 13.6692V85.743C60.9651 86.4293 61.5222 86.9856 62.2093 86.9856C62.8964 86.9856 63.4535 86.4293 63.4535 85.743V13.6692Z" fill="white"/>
</svg>
