<svg width="55" height="54" viewBox="0 0 55 54" fill="none" xmlns="http://www.w3.org/2000/svg">
<path d="M12.9314 2.1252L13.5622 0.708393L13.9157 0.865794L14.1168 0.414245L14.6083 0.46591L14.6488 0.0810477L16.1912 0.243159L16.1507 0.628021L17.6931 0.790133L17.7336 0.405271L19.276 0.567382L19.2355 0.952244L20.7779 1.11436L20.8184 0.729493L22.3607 0.891606L22.3203 1.27647L23.8627 1.43858L23.9031 1.05372L25.4455 1.21583L25.4051 1.60069L26.9475 1.7628L26.9879 1.37794L28.5303 1.54005L28.4898 1.92491L30.0322 2.08703L30.0727 1.70216L31.6151 1.86427L31.5746 2.24914L33.117 2.41125L33.1575 2.02639L34.6998 2.1885L34.6594 2.57336L36.2018 2.73547L36.2422 2.35061L37.7846 2.51272L37.7442 2.89758L39.2866 3.05969L39.327 2.67483L40.8694 2.83694L40.8289 3.2218L42.3713 3.38392L42.4118 2.99905L43.9542 3.16116L43.9137 3.54603L45.4561 3.70814L45.4966 3.32328L47.0389 3.48539L46.9985 3.87025L47.4901 3.92192L47.5928 4.40539L47.9714 4.32493L48.2938 5.84193L47.9153 5.92239L48.2377 7.43938L48.6163 7.35892L48.9387 8.87591L48.5602 8.95637L48.8826 10.4734L49.2611 10.3929L49.5836 11.9099L49.2051 11.9904L49.5275 13.5074L49.906 13.4269L50.2285 14.9439L49.85 15.0243L50.1724 16.5413L50.5509 16.4609L50.8734 17.9779L50.4949 18.0583L50.8173 19.5753L51.1958 19.4949L51.5183 21.0119L51.1397 21.0923L51.4622 22.6093L51.8407 22.5289L52.1632 24.0458L51.7846 24.1263L52.1071 25.6433L52.4856 25.5628L52.8081 27.0798L52.4295 27.1603L52.752 28.6773L53.1305 28.5968L53.4529 30.1138L53.0744 30.1943L53.3969 31.7113L53.7754 31.6308L54.0978 33.1478L53.7193 33.2283L54.0418 34.7453L54.4203 34.6648L54.7427 36.1818L54.3642 36.2622L54.467 36.7457L54.0389 36.9929L54.2324 37.328L52.8893 38.1034L52.6958 37.7683L51.3527 38.5437L51.5462 38.8789L50.2031 39.6543L50.0096 39.3192L48.6665 40.0946L48.86 40.4298L47.5169 41.2052L47.3234 40.8701L45.9803 41.6455L46.1738 41.9807L44.8307 42.7561L44.6372 42.421L43.2941 43.1964L43.4876 43.5315L42.1445 44.307L41.951 43.9718L40.6079 44.7473L40.8014 45.0824L39.4583 45.8579L39.2648 45.5227L37.9217 46.2982L38.1152 46.6333L36.7721 47.4087L36.5786 47.0736L35.2355 47.8491L35.4289 48.1842L34.0858 48.9596L33.8924 48.6245L32.5492 49.3999L32.7427 49.7351L31.3996 50.5105L31.2061 50.1754L29.863 50.9508L30.0565 51.286L28.7134 52.0614L28.5199 51.7263L27.1768 52.5017L27.3703 52.8368L26.0272 53.6123L25.8337 53.2771L25.4057 53.5243L25.0383 53.1935L24.7794 53.4811L23.6269 52.4434L23.8858 52.1558L22.7333 51.1181L22.4743 51.4056L21.3218 50.3679L21.5808 50.0803L20.4282 49.0426L20.1693 49.3302L19.0167 48.2924L19.2757 48.0048L18.1232 46.9671L17.8642 47.2547L16.7117 46.2169L16.9706 45.9293L15.8181 44.8916L15.5592 45.1792L14.4066 44.1414L14.6656 43.8539L13.513 42.8161L13.2541 43.1037L12.1016 42.066L12.3605 41.7784L11.208 40.7406L10.949 41.0282L9.7965 39.9905L10.0554 39.7029L8.90291 38.6651L8.64397 38.9527L7.49144 37.915L7.75038 37.6274L6.59785 36.5897L6.33891 36.8772L5.18638 35.8395L5.44532 35.5519L4.29279 34.5142L4.03384 34.8017L2.88131 33.764L3.14026 33.4764L1.98773 32.4387L1.72878 32.7263L0.576252 31.6885L0.835194 31.4009L0.46787 31.0702L0.66891 30.6186L0.315384 30.4612L0.946186 29.0444L1.29971 29.2018L1.93051 27.785L1.57699 27.6276L2.20779 26.2108L2.56131 26.3682L3.19212 24.9514L2.83859 24.794L3.46939 23.3772L3.82292 23.5346L4.45372 22.1178L4.10019 21.9604L4.73099 20.5436L5.08452 20.701L5.71532 19.2842L5.3618 19.1268L5.9926 17.71L6.34612 17.8674L6.97692 16.4506L6.6234 16.2932L7.2542 14.8764L7.60773 15.0338L8.23853 13.617L7.885 13.4596L8.5158 12.0428L8.86933 12.2002L9.50013 10.7834L9.1466 10.626L9.7774 9.20921L10.1309 9.36661L10.7617 7.94981L10.4082 7.79241L11.039 6.3756L11.3925 6.533L12.0233 5.1162L11.6698 4.9588L12.3006 3.542L12.6541 3.6994L13.2849 2.2826L12.9314 2.1252Z" stroke="white" stroke-width="0.766649" stroke-dasharray="1.53 1.53"/>
</svg>
