<svg width="60" height="66" viewBox="0 0 60 66" fill="none" xmlns="http://www.w3.org/2000/svg">
<path d="M1.93548 0.967742C1.93548 1.50221 1.50221 1.93548 0.967742 1.93548C0.433273 1.93548 0 1.50221 0 0.967742C0 0.433273 0.433273 0 0.967742 0C1.50221 0 1.93548 0.433273 1.93548 0.967742Z" fill="white"/>
<path d="M7.74194 0.967742C7.74194 1.50221 7.30867 1.93548 6.7742 1.93548C6.23973 1.93548 5.80645 1.50221 5.80645 0.967742C5.80645 0.433273 6.23973 0 6.7742 0C7.30867 0 7.74194 0.433273 7.74194 0.967742Z" fill="white"/>
<path d="M13.5484 0.967742C13.5484 1.50221 13.1151 1.93548 12.5807 1.93548C12.0462 1.93548 11.6129 1.50221 11.6129 0.967742C11.6129 0.433273 12.0462 0 12.5807 0C13.1151 0 13.5484 0.433273 13.5484 0.967742Z" fill="white"/>
<path d="M19.3548 0.967742C19.3548 1.50221 18.9216 1.93548 18.3871 1.93548C17.8526 1.93548 17.4194 1.50221 17.4194 0.967742C17.4194 0.433273 17.8526 0 18.3871 0C18.9216 0 19.3548 0.433273 19.3548 0.967742Z" fill="white"/>
<path d="M25.1613 0.967742C25.1613 1.50221 24.728 1.93548 24.1936 1.93548C23.6591 1.93548 23.2258 1.50221 23.2258 0.967742C23.2258 0.433273 23.6591 0 24.1936 0C24.728 0 25.1613 0.433273 25.1613 0.967742Z" fill="white"/>
<path d="M30.9678 0.967742C30.9678 1.50221 30.5345 1.93548 30 1.93548C29.4655 1.93548 29.0323 1.50221 29.0323 0.967742C29.0323 0.433273 29.4655 0 30 0C30.5345 0 30.9678 0.433273 30.9678 0.967742Z" fill="white"/>
<path d="M36.7742 0.967742C36.7742 1.50221 36.3409 1.93548 35.8065 1.93548C35.272 1.93548 34.8387 1.50221 34.8387 0.967742C34.8387 0.433273 35.272 0 35.8065 0C36.3409 0 36.7742 0.433273 36.7742 0.967742Z" fill="white"/>
<path d="M42.5807 0.967742C42.5807 1.50221 42.1474 1.93548 41.6129 1.93548C41.0785 1.93548 40.6452 1.50221 40.6452 0.967742C40.6452 0.433273 41.0785 0 41.6129 0C42.1474 0 42.5807 0.433273 42.5807 0.967742Z" fill="white"/>
<path d="M48.3871 0.967742C48.3871 1.50221 47.9538 1.93548 47.4194 1.93548C46.8849 1.93548 46.4516 1.50221 46.4516 0.967742C46.4516 0.433273 46.8849 0 47.4194 0C47.9538 0 48.3871 0.433273 48.3871 0.967742Z" fill="white"/>
<path d="M54.1936 0.967742C54.1936 1.50221 53.7603 1.93548 53.2258 1.93548C52.6914 1.93548 52.2581 1.50221 52.2581 0.967742C52.2581 0.433273 52.6914 0 53.2258 0C53.7603 0 54.1936 0.433273 54.1936 0.967742Z" fill="white"/>
<path d="M60 0.967742C60 1.50221 59.5668 1.93548 59.0323 1.93548C58.4978 1.93548 58.0645 1.50221 58.0645 0.967742C58.0645 0.433273 58.4978 0 59.0323 0C59.5668 0 60 0.433273 60 0.967742Z" fill="white"/>
<path d="M1.93548 6.7742C1.93548 7.30867 1.50221 7.74194 0.967742 7.74194C0.433273 7.74194 0 7.30867 0 6.7742C0 6.23973 0.433273 5.80645 0.967742 5.80645C1.50221 5.80645 1.93548 6.23973 1.93548 6.7742Z" fill="white"/>
<path d="M7.74194 6.7742C7.74194 7.30867 7.30867 7.74194 6.7742 7.74194C6.23973 7.74194 5.80645 7.30867 5.80645 6.7742C5.80645 6.23973 6.23973 5.80645 6.7742 5.80645C7.30867 5.80645 7.74194 6.23973 7.74194 6.7742Z" fill="white"/>
<path d="M13.5484 6.7742C13.5484 7.30867 13.1151 7.74194 12.5807 7.74194C12.0462 7.74194 11.6129 7.30867 11.6129 6.7742C11.6129 6.23973 12.0462 5.80645 12.5807 5.80645C13.1151 5.80645 13.5484 6.23973 13.5484 6.7742Z" fill="white"/>
<path d="M19.3548 6.7742C19.3548 7.30867 18.9216 7.74194 18.3871 7.74194C17.8526 7.74194 17.4194 7.30867 17.4194 6.7742C17.4194 6.23973 17.8526 5.80645 18.3871 5.80645C18.9216 5.80645 19.3548 6.23973 19.3548 6.7742Z" fill="white"/>
<path d="M25.1613 6.7742C25.1613 7.30867 24.728 7.74194 24.1936 7.74194C23.6591 7.74194 23.2258 7.30867 23.2258 6.7742C23.2258 6.23973 23.6591 5.80645 24.1936 5.80645C24.728 5.80645 25.1613 6.23973 25.1613 6.7742Z" fill="white"/>
<path d="M30.9678 6.7742C30.9678 7.30867 30.5345 7.74194 30 7.74194C29.4655 7.74194 29.0323 7.30867 29.0323 6.7742C29.0323 6.23973 29.4655 5.80645 30 5.80645C30.5345 5.80645 30.9678 6.23973 30.9678 6.7742Z" fill="white"/>
<path d="M36.7742 6.7742C36.7742 7.30867 36.3409 7.74194 35.8065 7.74194C35.272 7.74194 34.8387 7.30867 34.8387 6.7742C34.8387 6.23973 35.272 5.80645 35.8065 5.80645C36.3409 5.80645 36.7742 6.23973 36.7742 6.7742Z" fill="white"/>
<path d="M42.5807 6.7742C42.5807 7.30867 42.1474 7.74194 41.6129 7.74194C41.0785 7.74194 40.6452 7.30867 40.6452 6.7742C40.6452 6.23973 41.0785 5.80645 41.6129 5.80645C42.1474 5.80645 42.5807 6.23973 42.5807 6.7742Z" fill="white"/>
<path d="M48.3871 6.7742C48.3871 7.30867 47.9538 7.74194 47.4194 7.74194C46.8849 7.74194 46.4516 7.30867 46.4516 6.7742C46.4516 6.23973 46.8849 5.80645 47.4194 5.80645C47.9538 5.80645 48.3871 6.23973 48.3871 6.7742Z" fill="white"/>
<path d="M54.1936 6.7742C54.1936 7.30867 53.7603 7.74194 53.2258 7.74194C52.6914 7.74194 52.2581 7.30867 52.2581 6.7742C52.2581 6.23973 52.6914 5.80645 53.2258 5.80645C53.7603 5.80645 54.1936 6.23973 54.1936 6.7742Z" fill="white"/>
<path d="M60 6.7742C60 7.30867 59.5668 7.74194 59.0323 7.74194C58.4978 7.74194 58.0645 7.30867 58.0645 6.7742C58.0645 6.23973 58.4978 5.80645 59.0323 5.80645C59.5668 5.80645 60 6.23973 60 6.7742Z" fill="white"/>
<path d="M1.93548 12.5807C1.93548 13.1151 1.50221 13.5484 0.967742 13.5484C0.433273 13.5484 0 13.1151 0 12.5807C0 12.0462 0.433273 11.6129 0.967742 11.6129C1.50221 11.6129 1.93548 12.0462 1.93548 12.5807Z" fill="white"/>
<path d="M7.74194 12.5807C7.74194 13.1151 7.30867 13.5484 6.7742 13.5484C6.23973 13.5484 5.80645 13.1151 5.80645 12.5807C5.80645 12.0462 6.23973 11.6129 6.7742 11.6129C7.30867 11.6129 7.74194 12.0462 7.74194 12.5807Z" fill="white"/>
<path d="M13.5484 12.5807C13.5484 13.1151 13.1151 13.5484 12.5807 13.5484C12.0462 13.5484 11.6129 13.1151 11.6129 12.5807C11.6129 12.0462 12.0462 11.6129 12.5807 11.6129C13.1151 11.6129 13.5484 12.0462 13.5484 12.5807Z" fill="white"/>
<path d="M19.3548 12.5807C19.3548 13.1151 18.9216 13.5484 18.3871 13.5484C17.8526 13.5484 17.4194 13.1151 17.4194 12.5807C17.4194 12.0462 17.8526 11.6129 18.3871 11.6129C18.9216 11.6129 19.3548 12.0462 19.3548 12.5807Z" fill="white"/>
<path d="M25.1613 12.5807C25.1613 13.1151 24.728 13.5484 24.1936 13.5484C23.6591 13.5484 23.2258 13.1151 23.2258 12.5807C23.2258 12.0462 23.6591 11.6129 24.1936 11.6129C24.728 11.6129 25.1613 12.0462 25.1613 12.5807Z" fill="white"/>
<path d="M30.9678 12.5807C30.9678 13.1151 30.5345 13.5484 30 13.5484C29.4655 13.5484 29.0323 13.1151 29.0323 12.5807C29.0323 12.0462 29.4655 11.6129 30 11.6129C30.5345 11.6129 30.9678 12.0462 30.9678 12.5807Z" fill="white"/>
<path d="M36.7742 12.5807C36.7742 13.1151 36.3409 13.5484 35.8065 13.5484C35.272 13.5484 34.8387 13.1151 34.8387 12.5807C34.8387 12.0462 35.272 11.6129 35.8065 11.6129C36.3409 11.6129 36.7742 12.0462 36.7742 12.5807Z" fill="white"/>
<path d="M42.5807 12.5807C42.5807 13.1151 42.1474 13.5484 41.6129 13.5484C41.0785 13.5484 40.6452 13.1151 40.6452 12.5807C40.6452 12.0462 41.0785 11.6129 41.6129 11.6129C42.1474 11.6129 42.5807 12.0462 42.5807 12.5807Z" fill="white"/>
<path d="M48.3871 12.5807C48.3871 13.1151 47.9538 13.5484 47.4194 13.5484C46.8849 13.5484 46.4516 13.1151 46.4516 12.5807C46.4516 12.0462 46.8849 11.6129 47.4194 11.6129C47.9538 11.6129 48.3871 12.0462 48.3871 12.5807Z" fill="white"/>
<path d="M54.1936 12.5807C54.1936 13.1151 53.7603 13.5484 53.2258 13.5484C52.6914 13.5484 52.2581 13.1151 52.2581 12.5807C52.2581 12.0462 52.6914 11.6129 53.2258 11.6129C53.7603 11.6129 54.1936 12.0462 54.1936 12.5807Z" fill="white"/>
<path d="M60 12.5807C60 13.1151 59.5668 13.5484 59.0323 13.5484C58.4978 13.5484 58.0645 13.1151 58.0645 12.5807C58.0645 12.0462 58.4978 11.6129 59.0323 11.6129C59.5668 11.6129 60 12.0462 60 12.5807Z" fill="white"/>
<path d="M1.93548 18.3871C1.93548 18.9216 1.50221 19.3548 0.967742 19.3548C0.433273 19.3548 0 18.9216 0 18.3871C0 17.8526 0.433273 17.4194 0.967742 17.4194C1.50221 17.4194 1.93548 17.8526 1.93548 18.3871Z" fill="white"/>
<path d="M7.74194 18.3871C7.74194 18.9216 7.30867 19.3548 6.7742 19.3548C6.23973 19.3548 5.80645 18.9216 5.80645 18.3871C5.80645 17.8526 6.23973 17.4194 6.7742 17.4194C7.30867 17.4194 7.74194 17.8526 7.74194 18.3871Z" fill="white"/>
<path d="M13.5484 18.3871C13.5484 18.9216 13.1151 19.3548 12.5807 19.3548C12.0462 19.3548 11.6129 18.9216 11.6129 18.3871C11.6129 17.8526 12.0462 17.4194 12.5807 17.4194C13.1151 17.4194 13.5484 17.8526 13.5484 18.3871Z" fill="white"/>
<path d="M19.3548 18.3871C19.3548 18.9216 18.9216 19.3548 18.3871 19.3548C17.8526 19.3548 17.4194 18.9216 17.4194 18.3871C17.4194 17.8526 17.8526 17.4194 18.3871 17.4194C18.9216 17.4194 19.3548 17.8526 19.3548 18.3871Z" fill="white"/>
<path d="M25.1613 18.3871C25.1613 18.9216 24.728 19.3548 24.1936 19.3548C23.6591 19.3548 23.2258 18.9216 23.2258 18.3871C23.2258 17.8526 23.6591 17.4194 24.1936 17.4194C24.728 17.4194 25.1613 17.8526 25.1613 18.3871Z" fill="white"/>
<path d="M30.9678 18.3871C30.9678 18.9216 30.5345 19.3548 30 19.3548C29.4655 19.3548 29.0323 18.9216 29.0323 18.3871C29.0323 17.8526 29.4655 17.4194 30 17.4194C30.5345 17.4194 30.9678 17.8526 30.9678 18.3871Z" fill="white"/>
<path d="M36.7742 18.3871C36.7742 18.9216 36.3409 19.3548 35.8065 19.3548C35.272 19.3548 34.8387 18.9216 34.8387 18.3871C34.8387 17.8526 35.272 17.4194 35.8065 17.4194C36.3409 17.4194 36.7742 17.8526 36.7742 18.3871Z" fill="white"/>
<path d="M42.5807 18.3871C42.5807 18.9216 42.1474 19.3548 41.6129 19.3548C41.0785 19.3548 40.6452 18.9216 40.6452 18.3871C40.6452 17.8526 41.0785 17.4194 41.6129 17.4194C42.1474 17.4194 42.5807 17.8526 42.5807 18.3871Z" fill="white"/>
<path d="M48.3871 18.3871C48.3871 18.9216 47.9538 19.3548 47.4194 19.3548C46.8849 19.3548 46.4516 18.9216 46.4516 18.3871C46.4516 17.8526 46.8849 17.4194 47.4194 17.4194C47.9538 17.4194 48.3871 17.8526 48.3871 18.3871Z" fill="white"/>
<path d="M54.1936 18.3871C54.1936 18.9216 53.7603 19.3548 53.2258 19.3548C52.6914 19.3548 52.2581 18.9216 52.2581 18.3871C52.2581 17.8526 52.6914 17.4194 53.2258 17.4194C53.7603 17.4194 54.1936 17.8526 54.1936 18.3871Z" fill="white"/>
<path d="M60 18.3871C60 18.9216 59.5668 19.3548 59.0323 19.3548C58.4978 19.3548 58.0645 18.9216 58.0645 18.3871C58.0645 17.8526 58.4978 17.4194 59.0323 17.4194C59.5668 17.4194 60 17.8526 60 18.3871Z" fill="white"/>
<path d="M1.93548 24.1936C1.93548 24.728 1.50221 25.1613 0.967742 25.1613C0.433273 25.1613 0 24.728 0 24.1936C0 23.6591 0.433273 23.2258 0.967742 23.2258C1.50221 23.2258 1.93548 23.6591 1.93548 24.1936Z" fill="white"/>
<path d="M7.74194 24.1936C7.74194 24.728 7.30867 25.1613 6.7742 25.1613C6.23973 25.1613 5.80645 24.728 5.80645 24.1936C5.80645 23.6591 6.23973 23.2258 6.7742 23.2258C7.30867 23.2258 7.74194 23.6591 7.74194 24.1936Z" fill="white"/>
<path d="M13.5484 24.1936C13.5484 24.728 13.1151 25.1613 12.5807 25.1613C12.0462 25.1613 11.6129 24.728 11.6129 24.1936C11.6129 23.6591 12.0462 23.2258 12.5807 23.2258C13.1151 23.2258 13.5484 23.6591 13.5484 24.1936Z" fill="white"/>
<path d="M19.3548 24.1936C19.3548 24.728 18.9216 25.1613 18.3871 25.1613C17.8526 25.1613 17.4194 24.728 17.4194 24.1936C17.4194 23.6591 17.8526 23.2258 18.3871 23.2258C18.9216 23.2258 19.3548 23.6591 19.3548 24.1936Z" fill="white"/>
<path d="M25.1613 24.1936C25.1613 24.728 24.728 25.1613 24.1936 25.1613C23.6591 25.1613 23.2258 24.728 23.2258 24.1936C23.2258 23.6591 23.6591 23.2258 24.1936 23.2258C24.728 23.2258 25.1613 23.6591 25.1613 24.1936Z" fill="white"/>
<path d="M30.9678 24.1936C30.9678 24.728 30.5345 25.1613 30 25.1613C29.4655 25.1613 29.0323 24.728 29.0323 24.1936C29.0323 23.6591 29.4655 23.2258 30 23.2258C30.5345 23.2258 30.9678 23.6591 30.9678 24.1936Z" fill="white"/>
<path d="M36.7742 24.1936C36.7742 24.728 36.3409 25.1613 35.8065 25.1613C35.272 25.1613 34.8387 24.728 34.8387 24.1936C34.8387 23.6591 35.272 23.2258 35.8065 23.2258C36.3409 23.2258 36.7742 23.6591 36.7742 24.1936Z" fill="white"/>
<path d="M42.5807 24.1936C42.5807 24.728 42.1474 25.1613 41.6129 25.1613C41.0785 25.1613 40.6452 24.728 40.6452 24.1936C40.6452 23.6591 41.0785 23.2258 41.6129 23.2258C42.1474 23.2258 42.5807 23.6591 42.5807 24.1936Z" fill="white"/>
<path d="M48.3871 24.1936C48.3871 24.728 47.9538 25.1613 47.4194 25.1613C46.8849 25.1613 46.4516 24.728 46.4516 24.1936C46.4516 23.6591 46.8849 23.2258 47.4194 23.2258C47.9538 23.2258 48.3871 23.6591 48.3871 24.1936Z" fill="white"/>
<path d="M54.1936 24.1936C54.1936 24.728 53.7603 25.1613 53.2258 25.1613C52.6914 25.1613 52.2581 24.728 52.2581 24.1936C52.2581 23.6591 52.6914 23.2258 53.2258 23.2258C53.7603 23.2258 54.1936 23.6591 54.1936 24.1936Z" fill="white"/>
<path d="M60 24.1936C60 24.728 59.5668 25.1613 59.0323 25.1613C58.4978 25.1613 58.0645 24.728 58.0645 24.1936C58.0645 23.6591 58.4978 23.2258 59.0323 23.2258C59.5668 23.2258 60 23.6591 60 24.1936Z" fill="white"/>
<path d="M1.93548 30C1.93548 30.5345 1.50221 30.9678 0.967742 30.9678C0.433273 30.9678 0 30.5345 0 30C0 29.4655 0.433273 29.0323 0.967742 29.0323C1.50221 29.0323 1.93548 29.4655 1.93548 30Z" fill="white"/>
<path d="M7.74194 30C7.74194 30.5345 7.30867 30.9678 6.7742 30.9678C6.23973 30.9678 5.80645 30.5345 5.80645 30C5.80645 29.4655 6.23973 29.0323 6.7742 29.0323C7.30867 29.0323 7.74194 29.4655 7.74194 30Z" fill="white"/>
<path d="M13.5484 30C13.5484 30.5345 13.1151 30.9678 12.5807 30.9678C12.0462 30.9678 11.6129 30.5345 11.6129 30C11.6129 29.4655 12.0462 29.0323 12.5807 29.0323C13.1151 29.0323 13.5484 29.4655 13.5484 30Z" fill="white"/>
<path d="M19.3548 30C19.3548 30.5345 18.9216 30.9678 18.3871 30.9678C17.8526 30.9678 17.4194 30.5345 17.4194 30C17.4194 29.4655 17.8526 29.0323 18.3871 29.0323C18.9216 29.0323 19.3548 29.4655 19.3548 30Z" fill="white"/>
<path d="M25.1613 30C25.1613 30.5345 24.728 30.9678 24.1936 30.9678C23.6591 30.9678 23.2258 30.5345 23.2258 30C23.2258 29.4655 23.6591 29.0323 24.1936 29.0323C24.728 29.0323 25.1613 29.4655 25.1613 30Z" fill="white"/>
<path d="M30.9678 30C30.9678 30.5345 30.5345 30.9678 30 30.9678C29.4655 30.9678 29.0323 30.5345 29.0323 30C29.0323 29.4655 29.4655 29.0323 30 29.0323C30.5345 29.0323 30.9678 29.4655 30.9678 30Z" fill="white"/>
<path d="M36.7742 30C36.7742 30.5345 36.3409 30.9678 35.8065 30.9678C35.272 30.9678 34.8387 30.5345 34.8387 30C34.8387 29.4655 35.272 29.0323 35.8065 29.0323C36.3409 29.0323 36.7742 29.4655 36.7742 30Z" fill="white"/>
<path d="M42.5807 30C42.5807 30.5345 42.1474 30.9678 41.6129 30.9678C41.0785 30.9678 40.6452 30.5345 40.6452 30C40.6452 29.4655 41.0785 29.0323 41.6129 29.0323C42.1474 29.0323 42.5807 29.4655 42.5807 30Z" fill="white"/>
<path d="M48.3871 30C48.3871 30.5345 47.9538 30.9678 47.4194 30.9678C46.8849 30.9678 46.4516 30.5345 46.4516 30C46.4516 29.4655 46.8849 29.0323 47.4194 29.0323C47.9538 29.0323 48.3871 29.4655 48.3871 30Z" fill="white"/>
<path d="M54.1936 30C54.1936 30.5345 53.7603 30.9678 53.2258 30.9678C52.6914 30.9678 52.2581 30.5345 52.2581 30C52.2581 29.4655 52.6914 29.0323 53.2258 29.0323C53.7603 29.0323 54.1936 29.4655 54.1936 30Z" fill="white"/>
<path d="M60 30C60 30.5345 59.5668 30.9678 59.0323 30.9678C58.4978 30.9678 58.0645 30.5345 58.0645 30C58.0645 29.4655 58.4978 29.0323 59.0323 29.0323C59.5668 29.0323 60 29.4655 60 30Z" fill="white"/>
<path d="M1.93548 35.8065C1.93548 36.3409 1.50221 36.7742 0.967742 36.7742C0.433273 36.7742 0 36.3409 0 35.8065C0 35.272 0.433273 34.8387 0.967742 34.8387C1.50221 34.8387 1.93548 35.272 1.93548 35.8065Z" fill="white"/>
<path d="M7.74194 35.8065C7.74194 36.3409 7.30867 36.7742 6.7742 36.7742C6.23973 36.7742 5.80645 36.3409 5.80645 35.8065C5.80645 35.272 6.23973 34.8387 6.7742 34.8387C7.30867 34.8387 7.74194 35.272 7.74194 35.8065Z" fill="white"/>
<path d="M13.5484 35.8065C13.5484 36.3409 13.1151 36.7742 12.5807 36.7742C12.0462 36.7742 11.6129 36.3409 11.6129 35.8065C11.6129 35.272 12.0462 34.8387 12.5807 34.8387C13.1151 34.8387 13.5484 35.272 13.5484 35.8065Z" fill="white"/>
<path d="M19.3548 35.8065C19.3548 36.3409 18.9216 36.7742 18.3871 36.7742C17.8526 36.7742 17.4194 36.3409 17.4194 35.8065C17.4194 35.272 17.8526 34.8387 18.3871 34.8387C18.9216 34.8387 19.3548 35.272 19.3548 35.8065Z" fill="white"/>
<path d="M25.1613 35.8065C25.1613 36.3409 24.728 36.7742 24.1936 36.7742C23.6591 36.7742 23.2258 36.3409 23.2258 35.8065C23.2258 35.272 23.6591 34.8387 24.1936 34.8387C24.728 34.8387 25.1613 35.272 25.1613 35.8065Z" fill="white"/>
<path d="M30.9678 35.8065C30.9678 36.3409 30.5345 36.7742 30 36.7742C29.4655 36.7742 29.0323 36.3409 29.0323 35.8065C29.0323 35.272 29.4655 34.8387 30 34.8387C30.5345 34.8387 30.9678 35.272 30.9678 35.8065Z" fill="white"/>
<path d="M36.7742 35.8065C36.7742 36.3409 36.3409 36.7742 35.8065 36.7742C35.272 36.7742 34.8387 36.3409 34.8387 35.8065C34.8387 35.272 35.272 34.8387 35.8065 34.8387C36.3409 34.8387 36.7742 35.272 36.7742 35.8065Z" fill="white"/>
<path d="M42.5807 35.8065C42.5807 36.3409 42.1474 36.7742 41.6129 36.7742C41.0785 36.7742 40.6452 36.3409 40.6452 35.8065C40.6452 35.272 41.0785 34.8387 41.6129 34.8387C42.1474 34.8387 42.5807 35.272 42.5807 35.8065Z" fill="white"/>
<path d="M48.3871 35.8065C48.3871 36.3409 47.9538 36.7742 47.4194 36.7742C46.8849 36.7742 46.4516 36.3409 46.4516 35.8065C46.4516 35.272 46.8849 34.8387 47.4194 34.8387C47.9538 34.8387 48.3871 35.272 48.3871 35.8065Z" fill="white"/>
<path d="M54.1936 35.8065C54.1936 36.3409 53.7603 36.7742 53.2258 36.7742C52.6914 36.7742 52.2581 36.3409 52.2581 35.8065C52.2581 35.272 52.6914 34.8387 53.2258 34.8387C53.7603 34.8387 54.1936 35.272 54.1936 35.8065Z" fill="white"/>
<path d="M60 35.8065C60 36.3409 59.5668 36.7742 59.0323 36.7742C58.4978 36.7742 58.0645 36.3409 58.0645 35.8065C58.0645 35.272 58.4978 34.8387 59.0323 34.8387C59.5668 34.8387 60 35.272 60 35.8065Z" fill="white"/>
<path d="M1.93548 41.6129C1.93548 42.1474 1.50221 42.5807 0.967742 42.5807C0.433273 42.5807 0 42.1474 0 41.6129C0 41.0785 0.433273 40.6452 0.967742 40.6452C1.50221 40.6452 1.93548 41.0785 1.93548 41.6129Z" fill="white"/>
<path d="M7.74194 41.6129C7.74194 42.1474 7.30867 42.5807 6.7742 42.5807C6.23973 42.5807 5.80645 42.1474 5.80645 41.6129C5.80645 41.0785 6.23973 40.6452 6.7742 40.6452C7.30867 40.6452 7.74194 41.0785 7.74194 41.6129Z" fill="white"/>
<path d="M13.5484 41.6129C13.5484 42.1474 13.1151 42.5807 12.5807 42.5807C12.0462 42.5807 11.6129 42.1474 11.6129 41.6129C11.6129 41.0785 12.0462 40.6452 12.5807 40.6452C13.1151 40.6452 13.5484 41.0785 13.5484 41.6129Z" fill="white"/>
<path d="M19.3548 41.6129C19.3548 42.1474 18.9216 42.5807 18.3871 42.5807C17.8526 42.5807 17.4194 42.1474 17.4194 41.6129C17.4194 41.0785 17.8526 40.6452 18.3871 40.6452C18.9216 40.6452 19.3548 41.0785 19.3548 41.6129Z" fill="white"/>
<path d="M25.1613 41.6129C25.1613 42.1474 24.728 42.5807 24.1936 42.5807C23.6591 42.5807 23.2258 42.1474 23.2258 41.6129C23.2258 41.0785 23.6591 40.6452 24.1936 40.6452C24.728 40.6452 25.1613 41.0785 25.1613 41.6129Z" fill="white"/>
<path d="M30.9678 41.6129C30.9678 42.1474 30.5345 42.5807 30 42.5807C29.4655 42.5807 29.0323 42.1474 29.0323 41.6129C29.0323 41.0785 29.4655 40.6452 30 40.6452C30.5345 40.6452 30.9678 41.0785 30.9678 41.6129Z" fill="white"/>
<path d="M36.7742 41.6129C36.7742 42.1474 36.3409 42.5807 35.8065 42.5807C35.272 42.5807 34.8387 42.1474 34.8387 41.6129C34.8387 41.0785 35.272 40.6452 35.8065 40.6452C36.3409 40.6452 36.7742 41.0785 36.7742 41.6129Z" fill="white"/>
<path d="M42.5807 41.6129C42.5807 42.1474 42.1474 42.5807 41.6129 42.5807C41.0785 42.5807 40.6452 42.1474 40.6452 41.6129C40.6452 41.0785 41.0785 40.6452 41.6129 40.6452C42.1474 40.6452 42.5807 41.0785 42.5807 41.6129Z" fill="white"/>
<path d="M48.3871 41.6129C48.3871 42.1474 47.9538 42.5807 47.4194 42.5807C46.8849 42.5807 46.4516 42.1474 46.4516 41.6129C46.4516 41.0785 46.8849 40.6452 47.4194 40.6452C47.9538 40.6452 48.3871 41.0785 48.3871 41.6129Z" fill="white"/>
<path d="M54.1936 41.6129C54.1936 42.1474 53.7603 42.5807 53.2258 42.5807C52.6914 42.5807 52.2581 42.1474 52.2581 41.6129C52.2581 41.0785 52.6914 40.6452 53.2258 40.6452C53.7603 40.6452 54.1936 41.0785 54.1936 41.6129Z" fill="white"/>
<path d="M60 41.6129C60 42.1474 59.5668 42.5807 59.0323 42.5807C58.4978 42.5807 58.0645 42.1474 58.0645 41.6129C58.0645 41.0785 58.4978 40.6452 59.0323 40.6452C59.5668 40.6452 60 41.0785 60 41.6129Z" fill="white"/>
<path d="M1.93548 47.4194C1.93548 47.9539 1.50221 48.3871 0.967742 48.3871C0.433273 48.3871 0 47.9539 0 47.4194C0 46.8849 0.433273 46.4516 0.967742 46.4516C1.50221 46.4516 1.93548 46.8849 1.93548 47.4194Z" fill="white"/>
<path d="M7.74194 47.4194C7.74194 47.9539 7.30867 48.3871 6.7742 48.3871C6.23973 48.3871 5.80645 47.9539 5.80645 47.4194C5.80645 46.8849 6.23973 46.4516 6.7742 46.4516C7.30867 46.4516 7.74194 46.8849 7.74194 47.4194Z" fill="white"/>
<path d="M13.5484 47.4194C13.5484 47.9539 13.1151 48.3871 12.5807 48.3871C12.0462 48.3871 11.6129 47.9539 11.6129 47.4194C11.6129 46.8849 12.0462 46.4516 12.5807 46.4516C13.1151 46.4516 13.5484 46.8849 13.5484 47.4194Z" fill="white"/>
<path d="M19.3548 47.4194C19.3548 47.9539 18.9216 48.3871 18.3871 48.3871C17.8526 48.3871 17.4194 47.9539 17.4194 47.4194C17.4194 46.8849 17.8526 46.4516 18.3871 46.4516C18.9216 46.4516 19.3548 46.8849 19.3548 47.4194Z" fill="white"/>
<path d="M25.1613 47.4194C25.1613 47.9539 24.728 48.3871 24.1936 48.3871C23.6591 48.3871 23.2258 47.9539 23.2258 47.4194C23.2258 46.8849 23.6591 46.4516 24.1936 46.4516C24.728 46.4516 25.1613 46.8849 25.1613 47.4194Z" fill="white"/>
<path d="M30.9678 47.4194C30.9678 47.9539 30.5345 48.3871 30 48.3871C29.4655 48.3871 29.0323 47.9539 29.0323 47.4194C29.0323 46.8849 29.4655 46.4516 30 46.4516C30.5345 46.4516 30.9678 46.8849 30.9678 47.4194Z" fill="white"/>
<path d="M36.7742 47.4194C36.7742 47.9539 36.3409 48.3871 35.8065 48.3871C35.272 48.3871 34.8387 47.9539 34.8387 47.4194C34.8387 46.8849 35.272 46.4516 35.8065 46.4516C36.3409 46.4516 36.7742 46.8849 36.7742 47.4194Z" fill="white"/>
<path d="M42.5807 47.4194C42.5807 47.9539 42.1474 48.3871 41.6129 48.3871C41.0785 48.3871 40.6452 47.9539 40.6452 47.4194C40.6452 46.8849 41.0785 46.4516 41.6129 46.4516C42.1474 46.4516 42.5807 46.8849 42.5807 47.4194Z" fill="white"/>
<path d="M48.3871 47.4194C48.3871 47.9539 47.9538 48.3871 47.4194 48.3871C46.8849 48.3871 46.4516 47.9539 46.4516 47.4194C46.4516 46.8849 46.8849 46.4516 47.4194 46.4516C47.9538 46.4516 48.3871 46.8849 48.3871 47.4194Z" fill="white"/>
<path d="M54.1936 47.4194C54.1936 47.9539 53.7603 48.3871 53.2258 48.3871C52.6914 48.3871 52.2581 47.9539 52.2581 47.4194C52.2581 46.8849 52.6914 46.4516 53.2258 46.4516C53.7603 46.4516 54.1936 46.8849 54.1936 47.4194Z" fill="white"/>
<path d="M60 47.4194C60 47.9539 59.5668 48.3871 59.0323 48.3871C58.4978 48.3871 58.0645 47.9539 58.0645 47.4194C58.0645 46.8849 58.4978 46.4516 59.0323 46.4516C59.5668 46.4516 60 46.8849 60 47.4194Z" fill="white"/>
<path d="M1.93548 53.2258C1.93548 53.7603 1.50221 54.1936 0.967742 54.1936C0.433273 54.1936 0 53.7603 0 53.2258C0 52.6914 0.433273 52.2581 0.967742 52.2581C1.50221 52.2581 1.93548 52.6914 1.93548 53.2258Z" fill="white"/>
<path d="M7.74194 53.2258C7.74194 53.7603 7.30867 54.1936 6.7742 54.1936C6.23973 54.1936 5.80645 53.7603 5.80645 53.2258C5.80645 52.6914 6.23973 52.2581 6.7742 52.2581C7.30867 52.2581 7.74194 52.6914 7.74194 53.2258Z" fill="white"/>
<path d="M13.5484 53.2258C13.5484 53.7603 13.1151 54.1936 12.5807 54.1936C12.0462 54.1936 11.6129 53.7603 11.6129 53.2258C11.6129 52.6914 12.0462 52.2581 12.5807 52.2581C13.1151 52.2581 13.5484 52.6914 13.5484 53.2258Z" fill="white"/>
<path d="M19.3548 53.2258C19.3548 53.7603 18.9216 54.1936 18.3871 54.1936C17.8526 54.1936 17.4194 53.7603 17.4194 53.2258C17.4194 52.6914 17.8526 52.2581 18.3871 52.2581C18.9216 52.2581 19.3548 52.6914 19.3548 53.2258Z" fill="white"/>
<path d="M25.1613 53.2258C25.1613 53.7603 24.728 54.1936 24.1936 54.1936C23.6591 54.1936 23.2258 53.7603 23.2258 53.2258C23.2258 52.6914 23.6591 52.2581 24.1936 52.2581C24.728 52.2581 25.1613 52.6914 25.1613 53.2258Z" fill="white"/>
<path d="M30.9678 53.2258C30.9678 53.7603 30.5345 54.1936 30 54.1936C29.4655 54.1936 29.0323 53.7603 29.0323 53.2258C29.0323 52.6914 29.4655 52.2581 30 52.2581C30.5345 52.2581 30.9678 52.6914 30.9678 53.2258Z" fill="white"/>
<path d="M36.7742 53.2258C36.7742 53.7603 36.3409 54.1936 35.8065 54.1936C35.272 54.1936 34.8387 53.7603 34.8387 53.2258C34.8387 52.6914 35.272 52.2581 35.8065 52.2581C36.3409 52.2581 36.7742 52.6914 36.7742 53.2258Z" fill="white"/>
<path d="M42.5807 53.2258C42.5807 53.7603 42.1474 54.1936 41.6129 54.1936C41.0785 54.1936 40.6452 53.7603 40.6452 53.2258C40.6452 52.6914 41.0785 52.2581 41.6129 52.2581C42.1474 52.2581 42.5807 52.6914 42.5807 53.2258Z" fill="white"/>
<path d="M48.3871 53.2258C48.3871 53.7603 47.9538 54.1936 47.4194 54.1936C46.8849 54.1936 46.4516 53.7603 46.4516 53.2258C46.4516 52.6914 46.8849 52.2581 47.4194 52.2581C47.9538 52.2581 48.3871 52.6914 48.3871 53.2258Z" fill="white"/>
<path d="M54.1936 53.2258C54.1936 53.7603 53.7603 54.1936 53.2258 54.1936C52.6914 54.1936 52.2581 53.7603 52.2581 53.2258C52.2581 52.6914 52.6914 52.2581 53.2258 52.2581C53.7603 52.2581 54.1936 52.6914 54.1936 53.2258Z" fill="white"/>
<path d="M60 53.2258C60 53.7603 59.5668 54.1936 59.0323 54.1936C58.4978 54.1936 58.0645 53.7603 58.0645 53.2258C58.0645 52.6914 58.4978 52.2581 59.0323 52.2581C59.5668 52.2581 60 52.6914 60 53.2258Z" fill="white"/>
<path d="M1.93548 59.0323C1.93548 59.5668 1.50221 60 0.967742 60C0.433273 60 0 59.5668 0 59.0323C0 58.4978 0.433273 58.0646 0.967742 58.0646C1.50221 58.0646 1.93548 58.4978 1.93548 59.0323Z" fill="white"/>
<path d="M7.74194 59.0323C7.74194 59.5668 7.30867 60 6.7742 60C6.23973 60 5.80645 59.5668 5.80645 59.0323C5.80645 58.4978 6.23973 58.0646 6.7742 58.0646C7.30867 58.0646 7.74194 58.4978 7.74194 59.0323Z" fill="white"/>
<path d="M13.5484 59.0323C13.5484 59.5668 13.1151 60 12.5807 60C12.0462 60 11.6129 59.5668 11.6129 59.0323C11.6129 58.4978 12.0462 58.0646 12.5807 58.0646C13.1151 58.0646 13.5484 58.4978 13.5484 59.0323Z" fill="white"/>
<path d="M19.3548 59.0323C19.3548 59.5668 18.9216 60 18.3871 60C17.8526 60 17.4194 59.5668 17.4194 59.0323C17.4194 58.4978 17.8526 58.0646 18.3871 58.0646C18.9216 58.0646 19.3548 58.4978 19.3548 59.0323Z" fill="white"/>
<path d="M25.1613 59.0323C25.1613 59.5668 24.728 60 24.1936 60C23.6591 60 23.2258 59.5668 23.2258 59.0323C23.2258 58.4978 23.6591 58.0646 24.1936 58.0646C24.728 58.0646 25.1613 58.4978 25.1613 59.0323Z" fill="white"/>
<path d="M30.9678 59.0323C30.9678 59.5668 30.5345 60 30 60C29.4655 60 29.0323 59.5668 29.0323 59.0323C29.0323 58.4978 29.4655 58.0646 30 58.0646C30.5345 58.0646 30.9678 58.4978 30.9678 59.0323Z" fill="white"/>
<path d="M36.7742 59.0323C36.7742 59.5668 36.3409 60 35.8065 60C35.272 60 34.8387 59.5668 34.8387 59.0323C34.8387 58.4978 35.272 58.0646 35.8065 58.0646C36.3409 58.0646 36.7742 58.4978 36.7742 59.0323Z" fill="white"/>
<path d="M42.5807 59.0323C42.5807 59.5668 42.1474 60 41.6129 60C41.0785 60 40.6452 59.5668 40.6452 59.0323C40.6452 58.4978 41.0785 58.0646 41.6129 58.0646C42.1474 58.0646 42.5807 58.4978 42.5807 59.0323Z" fill="white"/>
<path d="M48.3871 59.0323C48.3871 59.5668 47.9538 60 47.4194 60C46.8849 60 46.4516 59.5668 46.4516 59.0323C46.4516 58.4978 46.8849 58.0646 47.4194 58.0646C47.9538 58.0646 48.3871 58.4978 48.3871 59.0323Z" fill="white"/>
<path d="M54.1936 59.0323C54.1936 59.5668 53.7603 60 53.2258 60C52.6914 60 52.2581 59.5668 52.2581 59.0323C52.2581 58.4978 52.6914 58.0646 53.2258 58.0646C53.7603 58.0646 54.1936 58.4978 54.1936 59.0323Z" fill="white"/>
<path d="M60 59.0323C60 59.5668 59.5668 60 59.0323 60C58.4978 60 58.0645 59.5668 58.0645 59.0323C58.0645 58.4978 58.4978 58.0646 59.0323 58.0646C59.5668 58.0646 60 58.4978 60 59.0323Z" fill="white"/>
<path d="M1.93548 64.8387C1.93548 65.3732 1.50221 65.8065 0.967742 65.8065C0.433273 65.8065 0 65.3732 0 64.8387C0 64.3043 0.433273 63.871 0.967742 63.871C1.50221 63.871 1.93548 64.3043 1.93548 64.8387Z" fill="white"/>
<path d="M7.74194 64.8387C7.74194 65.3732 7.30867 65.8065 6.7742 65.8065C6.23973 65.8065 5.80645 65.3732 5.80645 64.8387C5.80645 64.3043 6.23973 63.871 6.7742 63.871C7.30867 63.871 7.74194 64.3043 7.74194 64.8387Z" fill="white"/>
<path d="M13.5484 64.8387C13.5484 65.3732 13.1151 65.8065 12.5807 65.8065C12.0462 65.8065 11.6129 65.3732 11.6129 64.8387C11.6129 64.3043 12.0462 63.871 12.5807 63.871C13.1151 63.871 13.5484 64.3043 13.5484 64.8387Z" fill="white"/>
<path d="M19.3548 64.8387C19.3548 65.3732 18.9216 65.8065 18.3871 65.8065C17.8526 65.8065 17.4194 65.3732 17.4194 64.8387C17.4194 64.3043 17.8526 63.871 18.3871 63.871C18.9216 63.871 19.3548 64.3043 19.3548 64.8387Z" fill="white"/>
<path d="M25.1613 64.8387C25.1613 65.3732 24.728 65.8065 24.1936 65.8065C23.6591 65.8065 23.2258 65.3732 23.2258 64.8387C23.2258 64.3043 23.6591 63.871 24.1936 63.871C24.728 63.871 25.1613 64.3043 25.1613 64.8387Z" fill="white"/>
<path d="M30.9678 64.8387C30.9678 65.3732 30.5345 65.8065 30 65.8065C29.4655 65.8065 29.0323 65.3732 29.0323 64.8387C29.0323 64.3043 29.4655 63.871 30 63.871C30.5345 63.871 30.9678 64.3043 30.9678 64.8387Z" fill="white"/>
<path d="M36.7742 64.8387C36.7742 65.3732 36.3409 65.8065 35.8065 65.8065C35.272 65.8065 34.8387 65.3732 34.8387 64.8387C34.8387 64.3043 35.272 63.871 35.8065 63.871C36.3409 63.871 36.7742 64.3043 36.7742 64.8387Z" fill="white"/>
<path d="M42.5807 64.8387C42.5807 65.3732 42.1474 65.8065 41.6129 65.8065C41.0785 65.8065 40.6452 65.3732 40.6452 64.8387C40.6452 64.3043 41.0785 63.871 41.6129 63.871C42.1474 63.871 42.5807 64.3043 42.5807 64.8387Z" fill="white"/>
<path d="M48.3871 64.8387C48.3871 65.3732 47.9538 65.8065 47.4194 65.8065C46.8849 65.8065 46.4516 65.3732 46.4516 64.8387C46.4516 64.3043 46.8849 63.871 47.4194 63.871C47.9538 63.871 48.3871 64.3043 48.3871 64.8387Z" fill="white"/>
<path d="M54.1936 64.8387C54.1936 65.3732 53.7603 65.8065 53.2258 65.8065C52.6914 65.8065 52.2581 65.3732 52.2581 64.8387C52.2581 64.3043 52.6914 63.871 53.2258 63.871C53.7603 63.871 54.1936 64.3043 54.1936 64.8387Z" fill="white"/>
<path d="M60 64.8387C60 65.3732 59.5668 65.8065 59.0323 65.8065C58.4978 65.8065 58.0645 65.3732 58.0645 64.8387C58.0645 64.3043 58.4978 63.871 59.0323 63.871C59.5668 63.871 60 64.3043 60 64.8387Z" fill="white"/>
</svg>
