<svg width="92" height="54" viewBox="0 0 92 54" fill="none" xmlns="http://www.w3.org/2000/svg">
<path d="M7.50628 0H30.6025L23.0963 26.9456L30.6025 53.8913H7.50628L0 26.9456L7.50628 0Z" fill="white"/>
<path fill-rule="evenodd" clip-rule="evenodd" d="M53.6988 26.9456L61.2051 0H38.1088L30.6025 26.9456L38.1088 53.8913H61.2051L53.6988 26.9456ZM60.1914 53.1214L52.8996 26.9456L60.1914 0.769875H38.6935L31.4017 26.9456L38.6935 53.1214H60.1914Z" fill="white"/>
<path d="M68.1532 2.69456L67.5098 5.00419H90.6061L91.2494 2.69456H68.1532Z" fill="white"/>
<path d="M67.0809 6.54394L66.4375 8.85356H89.5337L90.1771 6.54394H67.0809Z" fill="white"/>
<path d="M66.0085 10.3933L65.3651 12.7029H88.4614L89.1048 10.3933H66.0085Z" fill="white"/>
<path d="M64.9362 14.2427L64.2928 16.5523H87.3891L88.0325 14.2427H64.9362Z" fill="white"/>
<path d="M63.8639 18.0921L63.2205 20.4017H86.3167L86.9601 18.0921H63.8639Z" fill="white"/>
<path d="M62.7916 21.9414L62.1482 24.2511H85.2444L85.8878 21.9414H62.7916Z" fill="white"/>
<path d="M61.3975 26.9456L61.7192 28.1004H84.8155L84.4938 26.9456L84.8155 25.7908H61.7192L61.3975 26.9456Z" fill="white"/>
<path d="M62.1482 29.6402L62.7916 31.9498H85.8878L85.2444 29.6402H62.1482Z" fill="white"/>
<path d="M63.2205 33.4896L63.8639 35.7992H86.9601L86.3167 33.4896H63.2205Z" fill="white"/>
<path d="M64.2928 37.3389L64.9362 39.6486H88.0325L87.3891 37.3389H64.2928Z" fill="white"/>
<path d="M65.3651 41.1883L66.0085 43.4979H89.1048L88.4614 41.1883H65.3651Z" fill="white"/>
<path d="M66.4375 45.0377L67.0809 47.3473H90.1771L89.5337 45.0377H66.4375Z" fill="white"/>
<path d="M67.5098 48.8871L68.1532 51.1967H91.2494L90.6061 48.8871H67.5098Z" fill="white"/>
<path d="M92.0001 53.8913L91.6784 52.7364H68.5821L68.9038 53.8913H92.0001Z" fill="white"/>
<path d="M68.5821 1.15481H91.6784L92.0001 0H68.9038L68.5821 1.15481Z" fill="white"/>
</svg>
