<svg width="123" height="108" viewBox="0 0 123 108" fill="none" xmlns="http://www.w3.org/2000/svg">
<path fill-rule="evenodd" clip-rule="evenodd" d="M0 0H123V107.625H0V0ZM0.192188 0.192188H15.1828V15.1828H0.192188V0.192188ZM15.5672 0.192188H30.5578V15.1828H15.5672V0.192188ZM45.9328 0.192188H30.9422V15.1828H45.9328V0.192188ZM46.3172 0.192188H61.3078V15.1828H46.3172V0.192188ZM76.6828 0.192188H61.6922V15.1828H76.6828V0.192188ZM77.0672 0.192188H92.0579V15.1828H77.0672V0.192188ZM107.433 0.192188H92.4422V15.1828H107.433V0.192188ZM107.817 0.192188H122.808V15.1828H107.817V0.192188ZM15.1828 15.5672H0.192188V30.5578H15.1828V15.5672ZM15.5672 15.5672H30.5578V30.5578H15.5672V15.5672ZM45.9328 15.5672H30.9422V30.5578H45.9328V15.5672ZM46.3172 15.5672H61.3078V30.5578H46.3172V15.5672ZM76.6828 15.5672H61.6922V30.5578H76.6828V15.5672ZM77.0672 15.5672H92.0579V30.5578H77.0672V15.5672ZM107.433 15.5672H92.4422V30.5578H107.433V15.5672ZM107.817 15.5672H122.808V30.5578H107.817V15.5672ZM15.1828 30.9422H0.192188V45.9328H15.1828V30.9422ZM15.5672 30.9422H30.5578V45.9328H15.5672V30.9422ZM45.9328 30.9422H30.9422V45.9328H45.9328V30.9422ZM46.3172 30.9422H61.3078V45.9328H46.3172V30.9422ZM76.6828 30.9422H61.6922V45.9328H76.6828V30.9422ZM77.0672 30.9422H92.0579V45.9328H77.0672V30.9422ZM107.433 30.9422H92.4422V45.9328H107.433V30.9422ZM107.817 30.9422H122.808V45.9328H107.817V30.9422ZM15.1828 46.3172H0.192188V61.3078H15.1828V46.3172ZM15.5672 46.3172H30.5578V61.3078H15.5672V46.3172ZM45.9328 46.3172H30.9422V61.3078H45.9328V46.3172ZM46.3172 46.3172H61.3078V61.3078H46.3172V46.3172ZM76.6828 46.3172H61.6922V61.3078H76.6828V46.3172ZM77.0672 46.3172H92.0579V61.3078H77.0672V46.3172ZM107.433 46.3172H92.4422V61.3078H107.433V46.3172ZM107.817 46.3172H122.808V61.3078H107.817V46.3172ZM15.1828 61.6922H0.192188V76.6828H15.1828V61.6922ZM15.5672 61.6922H30.5578V76.6828H15.5672V61.6922ZM45.9328 61.6922H30.9422V76.6828H45.9328V61.6922ZM46.3172 61.6922H61.3078V76.6828H46.3172V61.6922ZM76.6828 61.6922H61.6922V76.6828H76.6828V61.6922ZM77.0672 61.6922H92.0579V76.6828H77.0672V61.6922ZM107.433 61.6922H92.4422V76.6828H107.433V61.6922ZM107.817 61.6922H122.808V76.6828H107.817V61.6922ZM15.1828 77.0672H0.192188V92.0579H15.1828V77.0672ZM15.5672 77.0672H30.5578V92.0579H15.5672V77.0672ZM45.9328 77.0672H30.9422V92.0579H45.9328V77.0672ZM46.3172 77.0672H61.3078V92.0579H46.3172V77.0672ZM76.6828 77.0672H61.6922V92.0579H76.6828V77.0672ZM77.0672 77.0672H92.0579V92.0579H77.0672V77.0672ZM107.433 77.0672H92.4422V92.0579H107.433V77.0672ZM107.817 77.0672H122.808V92.0579H107.817V77.0672ZM15.1828 92.4422H0.192188V107.433H15.1828V92.4422ZM15.5672 92.4422H30.5578V107.433H15.5672V92.4422ZM45.9328 92.4422H30.9422V107.433H45.9328V92.4422ZM46.3172 92.4422H61.3078V107.433H46.3172V92.4422ZM76.6828 92.4422H61.6922V107.433H76.6828V92.4422ZM77.0672 92.4422H92.0579V107.433H77.0672V92.4422ZM107.433 92.4422H92.4422V107.433H107.433V92.4422ZM107.817 92.4422H122.808V107.433H107.817V92.4422Z" fill="white"/>
</svg>
