<svg width="99" height="99" viewBox="0 0 99 99" fill="none" xmlns="http://www.w3.org/2000/svg">
<path fill-rule="evenodd" clip-rule="evenodd" d="M0.773437 1.54687C1.2006 1.54687 1.54687 1.2006 1.54687 0.773437C1.54687 0.34628 1.2006 0 0.773437 0C0.34628 0 0 0.34628 0 0.773437C0 1.2006 0.34628 1.54687 0.773437 1.54687ZM0.773437 66.5156C1.2006 66.5156 1.54687 66.1693 1.54687 65.7422C1.54687 65.315 1.2006 64.9687 0.773437 64.9687C0.34628 64.9687 0 65.315 0 65.7422C0 66.1693 0.34628 66.5156 0.773437 66.5156ZM66.5156 0.773437C66.5156 1.2006 66.1693 1.54687 65.7422 1.54687C65.315 1.54687 64.9687 1.2006 64.9687 0.773437C64.9687 0.34628 65.315 0 65.7422 0C66.1693 0 66.5156 0.34628 66.5156 0.773437ZM65.7422 66.5156C66.1693 66.5156 66.5156 66.1693 66.5156 65.7422C66.5156 65.315 66.1693 64.9687 65.7422 64.9687C65.315 64.9687 64.9687 65.315 64.9687 65.7422C64.9687 66.1693 65.315 66.5156 65.7422 66.5156ZM1.54687 33.2578C1.54687 33.685 1.2006 34.0312 0.773437 34.0312C0.34628 34.0312 0 33.685 0 33.2578C0 32.8307 0.34628 32.4844 0.773437 32.4844C1.2006 32.4844 1.54687 32.8307 1.54687 33.2578ZM0.773437 99C1.2006 99 1.54687 98.6537 1.54687 98.2266C1.54687 97.7994 1.2006 97.4531 0.773437 97.4531C0.34628 97.4531 0 97.7994 0 98.2266C0 98.6537 0.34628 99 0.773437 99ZM66.5156 33.2578C66.5156 33.685 66.1693 34.0312 65.7422 34.0312C65.315 34.0312 64.9687 33.685 64.9687 33.2578C64.9687 32.8307 65.315 32.4844 65.7422 32.4844C66.1693 32.4844 66.5156 32.8307 66.5156 33.2578ZM65.7422 99C66.1693 99 66.5156 98.6537 66.5156 98.2266C66.5156 97.7994 66.1693 97.4531 65.7422 97.4531C65.315 97.4531 64.9687 97.7994 64.9687 98.2266C64.9687 98.6537 65.315 99 65.7422 99ZM34.0312 0.773437C34.0312 1.2006 33.685 1.54687 33.2578 1.54687C32.8307 1.54687 32.4844 1.2006 32.4844 0.773437C32.4844 0.34628 32.8307 0 33.2578 0C33.685 0 34.0312 0.34628 34.0312 0.773437ZM33.2578 66.5156C33.685 66.5156 34.0312 66.1693 34.0312 65.7422C34.0312 65.315 33.685 64.9687 33.2578 64.9687C32.8307 64.9687 32.4844 65.315 32.4844 65.7422C32.4844 66.1693 32.8307 66.5156 33.2578 66.5156ZM99 0.773437C99 1.2006 98.6537 1.54687 98.2266 1.54687C97.7994 1.54687 97.4531 1.2006 97.4531 0.773437C97.4531 0.34628 97.7994 0 98.2266 0C98.6537 0 99 0.34628 99 0.773437ZM98.2266 66.5156C98.6537 66.5156 99 66.1693 99 65.7422C99 65.315 98.6537 64.9687 98.2266 64.9687C97.7994 64.9687 97.4531 65.315 97.4531 65.7422C97.4531 66.1693 97.7994 66.5156 98.2266 66.5156ZM34.0312 33.2578C34.0312 33.685 33.685 34.0312 33.2578 34.0312C32.8307 34.0312 32.4844 33.685 32.4844 33.2578C32.4844 32.8307 32.8307 32.4844 33.2578 32.4844C33.685 32.4844 34.0312 32.8307 34.0312 33.2578ZM33.2578 99C33.685 99 34.0312 98.6537 34.0312 98.2266C34.0312 97.7994 33.685 97.4531 33.2578 97.4531C32.8307 97.4531 32.4844 97.7994 32.4844 98.2266C32.4844 98.6537 32.8307 99 33.2578 99ZM99 33.2578C99 33.685 98.6537 34.0312 98.2266 34.0312C97.7994 34.0312 97.4531 33.685 97.4531 33.2578C97.4531 32.8307 97.7994 32.4844 98.2266 32.4844C98.6537 32.4844 99 32.8307 99 33.2578ZM98.2266 99C98.6537 99 99 98.6537 99 98.2266C99 97.7994 98.6537 97.4531 98.2266 97.4531C97.7994 97.4531 97.4531 97.7994 97.4531 98.2266C97.4531 98.6537 97.7994 99 98.2266 99Z" fill="white"/>
</svg>
