<svg width="31" height="55" viewBox="0 0 31 55" fill="none" xmlns="http://www.w3.org/2000/svg">
<path d="M0.568511 45.4136C0.497474 45.3391 0.381285 45.3336 0.303614 45.399C0.224393 45.2918 0.159299 45.1749 0.109976 45.051C0.206513 45.0195 0.26306 44.9179 0.2372 44.8182C0.208677 44.7083 0.19375 44.594 0.19375 44.4776L0.19375 43.8067C0.19375 43.6997 0.107005 43.613 0 43.613V42.6588C0.107005 42.6588 0.19375 42.572 0.19375 42.465L0.19375 41.1233C0.19375 41.0163 0.107005 40.9296 0 40.9296V39.9754C0.107005 39.9754 0.19375 39.8886 0.19375 39.7816L0.19375 38.44C0.19375 38.3329 0.107005 38.2462 0 38.2462V37.292C0.107005 37.292 0.19375 37.2053 0.19375 37.0983V36.4274C0.19375 36.1683 0.262484 35.9356 0.378484 35.7391C0.430763 35.6505 0.404493 35.5373 0.320519 35.4803C0.580453 35.1456 0.97177 34.9278 1.39324 34.8834C1.39737 34.9848 1.47972 35.0668 1.58256 35.069C1.81074 35.0741 2.04468 35.1383 2.26489 35.2749L2.88069 35.6568C2.97162 35.7132 3.09106 35.6853 3.14747 35.5943L4.04976 36.154C3.99336 36.2449 4.02135 36.3644 4.11228 36.4208L5.34388 37.1847C5.43481 37.2411 5.55425 37.2131 5.61065 37.1222L6.51295 37.6819C6.45655 37.7728 6.48454 37.8922 6.57547 37.9486L7.80706 38.7126C7.89799 38.769 8.01743 38.741 8.07384 38.6501L8.97614 39.2097C8.91973 39.3007 8.94772 39.4201 9.03866 39.4765L10.2702 40.2405C10.3612 40.2969 10.4806 40.2689 10.537 40.1779L11.4393 40.7376C11.3829 40.8285 11.4109 40.948 11.5018 41.0044L12.7334 41.7683C12.8244 41.8247 12.9438 41.7967 13.0002 41.7058L13.9025 42.2655C13.8461 42.3564 13.8741 42.4759 13.965 42.5323L14.5808 42.9142C14.7202 43.0007 14.8688 43.0658 15.0221 43.1094C15.125 43.1388 15.2322 43.0791 15.2615 42.9762C15.2626 42.9723 15.2636 42.9684 15.2645 42.9644C15.4205 42.9884 15.5794 42.9884 15.7355 42.9644C15.7363 42.9684 15.7373 42.9723 15.7384 42.9762C15.7677 43.0791 15.8749 43.1388 15.9778 43.1095C16.1311 43.0658 16.2797 43.0007 16.4191 42.9142L17.0349 42.5323C17.1259 42.4759 17.1538 42.3564 17.0974 42.2655L17.9997 41.7058C18.0561 41.7967 18.1756 41.8247 18.2665 41.7683L19.4981 41.0044C19.589 40.948 19.617 40.8285 19.5606 40.7376L20.4629 40.1779C20.5193 40.2689 20.6388 40.2969 20.7297 40.2405L21.9613 39.4765C22.0522 39.4201 22.0802 39.3007 22.0238 39.2097L22.9261 38.6501C22.9825 38.741 23.102 38.769 23.1929 38.7126L24.4245 37.9486C24.5154 37.8922 24.5434 37.7728 24.487 37.6819L25.3893 37.1222C25.4457 37.2131 25.5651 37.2411 25.6561 37.1847L26.8877 36.4208C26.9786 36.3644 27.0066 36.2449 26.9502 36.154L27.8525 35.5943C27.9089 35.6853 28.0283 35.7132 28.1193 35.6568L28.7351 35.2749C28.9553 35.1383 29.1892 35.0741 29.4174 35.069C29.5202 35.0667 29.6026 34.9848 29.6067 34.8834C30.0282 34.9278 30.4195 35.1456 30.6794 35.4803C30.5955 35.5373 30.5692 35.6505 30.6215 35.739C30.7375 35.9356 30.8062 36.1683 30.8062 36.4274V37.0983C30.8062 37.2053 30.8929 37.292 31 37.292V38.2462C30.8929 38.2462 30.8062 38.3329 30.8062 38.4399V39.7816C30.8062 39.8886 30.8929 39.9754 31 39.9754V40.9296C30.8929 40.9296 30.8062 41.0163 30.8062 41.1233V42.465C30.8062 42.572 30.8929 42.6588 31 42.6588V43.613C30.8929 43.613 30.8062 43.6997 30.8062 43.8067V44.4776C30.8062 44.594 30.7913 44.7083 30.7628 44.8182C30.7369 44.9179 30.7934 45.0195 30.89 45.051C30.8407 45.1749 30.7756 45.2918 30.6963 45.399C30.6187 45.3336 30.5025 45.3391 30.4314 45.4136C30.3531 45.4958 30.2638 45.5687 30.1648 45.6301L29.4674 46.0628C29.3764 46.1192 29.3484 46.2386 29.4048 46.3295L28.3391 46.9906C28.2827 46.8996 28.1633 46.8716 28.0724 46.928L26.6774 47.7933C26.5864 47.8497 26.5584 47.9692 26.6148 48.0601L25.5491 48.7211C25.4927 48.6302 25.3733 48.6022 25.2824 48.6586L23.8874 49.5239C23.7964 49.5803 23.7684 49.6998 23.8248 49.7907L22.7591 50.4517C22.7027 50.3608 22.5833 50.3328 22.4924 50.3892L21.0974 51.2545C21.0064 51.3109 20.9784 51.4304 21.0348 51.5213L19.9691 52.1823C19.9127 52.0914 19.7933 52.0634 19.7024 52.1198L18.3074 52.9851C18.2164 53.0415 18.1884 53.1609 18.2448 53.2519L17.1791 53.9129C17.1227 53.822 17.0033 53.794 16.9124 53.8504L16.2149 54.283C16.1064 54.3503 15.9908 54.4009 15.8717 54.4349C15.7727 54.4631 15.7137 54.5633 15.7355 54.6625C15.5794 54.6865 15.4205 54.6865 15.2645 54.6625C15.2862 54.5633 15.2273 54.4631 15.1283 54.4349C15.0092 54.4009 14.8936 54.3503 14.7851 54.283L14.0876 53.8504C13.9966 53.794 13.8772 53.822 13.8208 53.9129L12.7551 53.2519C12.8115 53.1609 12.7835 53.0415 12.6926 52.9851L11.2976 52.1198C11.2067 52.0634 11.0872 52.0914 11.0308 52.1823L9.96511 51.5213C10.0215 51.4304 9.99352 51.3109 9.90259 51.2545L8.50759 50.3892C8.41666 50.3328 8.29722 50.3608 8.24081 50.4517L7.17511 49.7907C7.23151 49.6998 7.20352 49.5803 7.11259 49.5239L5.71759 48.6586C5.62666 48.6022 5.50722 48.6302 5.45082 48.7211L4.38512 48.0601C4.44152 47.9692 4.41353 47.8497 4.3226 47.7933L2.9276 46.928C2.83667 46.8716 2.71723 46.8996 2.66082 46.9906L1.59512 46.3295C1.65152 46.2386 1.62353 46.1192 1.5326 46.0628L0.835101 45.6301C0.736152 45.5687 0.646863 45.4958 0.568511 45.4136ZM0.568511 27.9761C0.497474 27.9016 0.381283 27.8961 0.303612 27.9615C0.224395 27.8544 0.159297 27.7374 0.109976 27.6136C0.206513 27.582 0.263061 27.4804 0.2372 27.3808C0.208677 27.2709 0.19375 27.1565 0.19375 27.0401V26.3692C0.19375 26.2622 0.107005 26.1755 0 26.1755V25.2213C0.107005 25.2213 0.19375 25.1346 0.19375 25.0276L0.19375 23.6859C0.19375 23.5789 0.107005 23.4921 0 23.4921V22.5379C0.107005 22.5379 0.19375 22.4512 0.19375 22.3442L0.19375 21.0025C0.19375 20.8955 0.107005 20.8087 0 20.8087V19.8545C0.107005 19.8545 0.19375 19.7678 0.19375 19.6608V18.9899C0.19375 18.7308 0.262484 18.4981 0.378484 18.3016C0.430763 18.213 0.404492 18.0998 0.320518 18.0428C0.580449 17.7081 0.971775 17.4904 1.39324 17.4459C1.39737 17.5473 1.47972 17.6293 1.58256 17.6315C1.81074 17.6366 2.04468 17.7008 2.26489 17.8374L2.88069 18.2194C2.97162 18.2758 3.09106 18.2478 3.14747 18.1568L4.04976 18.7165C3.99336 18.8075 4.02135 18.9269 4.11228 18.9833L5.34388 19.7472C5.43481 19.8036 5.55425 19.7757 5.61065 19.6847L6.51295 20.2444C6.45655 20.3353 6.48454 20.4548 6.57547 20.5112L7.80706 21.2751C7.898 21.3315 8.01743 21.3035 8.07384 21.2126L8.97614 21.7723C8.91973 21.8632 8.94772 21.9826 9.03866 22.0391L10.2702 22.803C10.3612 22.8594 10.4806 22.8314 10.537 22.7405L11.4393 23.3001C11.3829 23.3911 11.4109 23.5105 11.5018 23.5669L12.7334 24.3309C12.8244 24.3873 12.9438 24.3593 13.0002 24.2683L13.9025 24.828C13.8461 24.919 13.8741 25.0384 13.965 25.0948L14.5808 25.4768C14.7202 25.5632 14.8688 25.6283 15.0221 25.672C15.125 25.7013 15.2322 25.6416 15.2615 25.5387C15.2626 25.5348 15.2636 25.5309 15.2645 25.527C15.4205 25.5509 15.5794 25.5509 15.7355 25.527C15.7363 25.5309 15.7373 25.5348 15.7384 25.5387C15.7677 25.6416 15.8749 25.7013 15.9778 25.672C16.1311 25.6283 16.2797 25.5632 16.4191 25.4768L17.0349 25.0948C17.1259 25.0384 17.1538 24.919 17.0974 24.828L17.9997 24.2683C18.0561 24.3593 18.1756 24.3873 18.2665 24.3309L19.4981 23.5669C19.589 23.5105 19.617 23.3911 19.5606 23.3001L20.4629 22.7405C20.5193 22.8314 20.6388 22.8594 20.7297 22.803L21.9613 22.0391C22.0522 21.9826 22.0802 21.8632 22.0238 21.7723L22.9261 21.2126C22.9825 21.3035 23.102 21.3315 23.1929 21.2751L24.4245 20.5112C24.5154 20.4548 24.5434 20.3353 24.487 20.2444L25.3893 19.6847C25.4457 19.7757 25.5651 19.8036 25.6561 19.7472L26.8877 18.9833C26.9786 18.9269 27.0066 18.8075 26.9502 18.7165L27.8525 18.1569C27.9089 18.2478 28.0283 18.2758 28.1193 18.2194L28.7351 17.8374C28.9553 17.7008 29.1892 17.6366 29.4174 17.6315C29.5202 17.6293 29.6026 17.5473 29.6067 17.4459C30.0282 17.4904 30.4195 17.7081 30.6794 18.0428C30.5955 18.0998 30.5692 18.213 30.6215 18.3016C30.7375 18.4981 30.8062 18.7308 30.8062 18.9899V19.6608C30.8062 19.7678 30.8929 19.8545 31 19.8545V20.8087C30.8929 20.8087 30.8062 20.8955 30.8062 21.0025V22.3442C30.8062 22.4512 30.8929 22.5379 31 22.5379V23.4921C30.8929 23.4921 30.8062 23.5789 30.8062 23.6859V25.0276C30.8062 25.1346 30.8929 25.2213 31 25.2213V26.1755C30.8929 26.1755 30.8062 26.2622 30.8062 26.3692V27.0401C30.8062 27.1565 30.7913 27.2709 30.7628 27.3808C30.7369 27.4804 30.7934 27.582 30.89 27.6136C30.8407 27.7374 30.7756 27.8544 30.6963 27.9615C30.6187 27.8961 30.5025 27.9016 30.4314 27.9761C30.3531 28.0583 30.2638 28.1313 30.1648 28.1926L29.4674 28.6253C29.3764 28.6817 29.3484 28.8011 29.4048 28.8921L28.3391 29.5531C28.2827 29.4622 28.1633 29.4342 28.0724 29.4906L26.6774 30.3559C26.5864 30.4123 26.5584 30.5317 26.6148 30.6226L25.5491 31.2837C25.4927 31.1927 25.3733 31.1648 25.2824 31.2212L23.8874 32.0864C23.7964 32.1429 23.7684 32.2623 23.8248 32.3532L22.7591 33.0143C22.7027 32.9233 22.5833 32.8953 22.4924 32.9517L21.0974 33.817C21.0064 33.8734 20.9784 33.9929 21.0348 34.0838L19.9691 34.7448C19.9127 34.6539 19.7933 34.6259 19.7024 34.6823L18.3074 35.5476C18.2164 35.604 18.1884 35.7235 18.2448 35.8144L17.1791 36.4754C17.1227 36.3845 17.0033 36.3565 16.9124 36.4129L16.2149 36.8456C16.1064 36.9129 15.9908 36.9635 15.8717 36.9974C15.7727 37.0256 15.7137 37.1259 15.7355 37.2251C15.5794 37.249 15.4205 37.249 15.2645 37.2251C15.2862 37.1259 15.2273 37.0256 15.1283 36.9974C15.0092 36.9635 14.8936 36.9129 14.7851 36.8456L14.0876 36.4129C13.9966 36.3565 13.8772 36.3845 13.8208 36.4754L12.7551 35.8144C12.8115 35.7235 12.7835 35.604 12.6926 35.5476L11.2976 34.6823C11.2067 34.6259 11.0872 34.6539 11.0308 34.7448L9.96511 34.0838C10.0215 33.9929 9.99352 33.8734 9.90259 33.817L8.50759 32.9517C8.41666 32.8953 8.29722 32.9233 8.24081 33.0143L7.17511 32.3532C7.23151 32.2623 7.20352 32.1429 7.11259 32.0864L5.71759 31.2212C5.62666 31.1648 5.50722 31.1927 5.45082 31.2837L4.38512 30.6226C4.44152 30.5317 4.41353 30.4123 4.3226 30.3559L2.9276 29.4906C2.83667 29.4342 2.71723 29.4622 2.66082 29.5531L1.59512 28.8921C1.65152 28.8011 1.62353 28.6817 1.5326 28.6253L0.835101 28.1926C0.736152 28.1313 0.646864 28.0583 0.568511 27.9761ZM0.568511 10.5387C0.497474 10.4642 0.381283 10.4586 0.303612 10.5241C0.224395 10.4169 0.159297 10.2999 0.109976 10.1761C0.206513 10.1446 0.263061 10.0429 0.237201 9.94329C0.208677 9.83339 0.19375 9.71906 0.19375 9.60262V8.93178C0.19375 8.82477 0.107005 8.73803 0 8.73803V7.78383C0.107005 7.78383 0.19375 7.69709 0.19375 7.59008L0.19375 6.24839C0.19375 6.14138 0.107005 6.05464 0 6.05464V5.10045C0.107005 5.10045 0.19375 5.0137 0.19375 4.9067L0.19375 3.565C0.19375 3.458 0.107005 3.37125 0 3.37125V2.41706C0.107006 2.41706 0.19375 2.33031 0.19375 2.22331L0.19375 1.55246C0.19375 1.29332 0.262485 1.06067 0.378484 0.864106C0.430763 0.775519 0.404492 0.662316 0.320519 0.605374C0.58045 0.270642 0.971776 0.0528796 1.39324 0.00843341C1.39737 0.109808 1.47972 0.191803 1.58256 0.194072C1.81074 0.199106 2.04468 0.263332 2.26489 0.399928L2.88069 0.781896C2.97162 0.8383 3.09106 0.810309 3.14747 0.719377L4.04976 1.27906C3.99336 1.36999 4.02135 1.48943 4.11228 1.54583L5.34388 2.30977C5.43481 2.36617 5.55425 2.33818 5.61065 2.24725L6.51295 2.80693C6.45655 2.89786 6.48454 3.0173 6.57547 3.0737L7.80706 3.83764C7.898 3.89405 8.01743 3.86605 8.07384 3.77512L8.97614 4.3348C8.91973 4.42573 8.94772 4.54517 9.03866 4.60158L10.2702 5.36551C10.3612 5.42192 10.4806 5.39393 10.537 5.30299L11.4393 5.86267C11.3829 5.95361 11.4109 6.07305 11.5018 6.12945L12.7334 6.89339C12.8244 6.94979 12.9438 6.9218 13.0002 6.83087L13.9025 7.39055C13.8461 7.48148 13.8741 7.60092 13.965 7.65732L14.5808 8.03929C14.7202 8.12575 14.8688 8.19084 15.0221 8.23451C15.125 8.26382 15.2322 8.20416 15.2615 8.10125C15.2626 8.09734 15.2636 8.09341 15.2645 8.08949C15.4205 8.11345 15.5794 8.11345 15.7355 8.08949C15.7363 8.09341 15.7373 8.09734 15.7384 8.10125C15.7677 8.20416 15.8749 8.26382 15.9778 8.23451C16.1311 8.19084 16.2797 8.12575 16.4191 8.03929L17.0349 7.65732C17.1259 7.60092 17.1538 7.48148 17.0974 7.39055L17.9997 6.83087C18.0561 6.9218 18.1756 6.94979 18.2665 6.89339L19.4981 6.12945C19.589 6.07305 19.617 5.95361 19.5606 5.86267L20.4629 5.30299C20.5193 5.39393 20.6388 5.42192 20.7297 5.36551L21.9613 4.60158C22.0522 4.54517 22.0802 4.42573 22.0238 4.3348L22.9261 3.77512C22.9825 3.86605 23.102 3.89405 23.1929 3.83764L24.4245 3.07371C24.5154 3.0173 24.5434 2.89786 24.487 2.80693L25.3893 2.24725C25.4457 2.33818 25.5651 2.36617 25.6561 2.30977L26.8877 1.54583C26.9786 1.48943 27.0066 1.36999 26.9502 1.27906L27.8525 0.719378C27.9089 0.81031 28.0283 0.838301 28.1193 0.781897L28.7351 0.399928C28.9553 0.263333 29.1892 0.199107 29.4174 0.194072C29.5202 0.191803 29.6026 0.109808 29.6067 0.00843317C30.0282 0.052879 30.4195 0.270641 30.6794 0.605373C30.5955 0.662314 30.5692 0.775517 30.6215 0.864104C30.7375 1.06067 30.8062 1.29332 30.8062 1.55246V2.22331C30.8062 2.33031 30.8929 2.41706 31 2.41706V3.37125C30.8929 3.37125 30.8062 3.458 30.8062 3.565V4.90669C30.8062 5.0137 30.8929 5.10044 31 5.10044V6.05464C30.8929 6.05464 30.8062 6.14138 30.8062 6.24839V7.59008C30.8062 7.69709 30.8929 7.78383 31 7.78383V8.73803C30.8929 8.73803 30.8062 8.82477 30.8062 8.93178V9.60262C30.8062 9.71906 30.7913 9.83339 30.7628 9.94329C30.7369 10.0429 30.7934 10.1446 30.89 10.1761C30.8407 10.2999 30.7756 10.4169 30.6963 10.5241C30.6187 10.4586 30.5025 10.4642 30.4314 10.5387C30.3531 10.6208 30.2638 10.6938 30.1648 10.7552L29.4674 11.1878C29.3764 11.2442 29.3484 11.3636 29.4048 11.4546L28.3391 12.1156C28.2827 12.0247 28.1633 11.9967 28.0724 12.0531L26.6774 12.9184C26.5864 12.9748 26.5584 13.0942 26.6148 13.1852L25.5491 13.8462C25.4927 13.7553 25.3733 13.7273 25.2824 13.7837L23.8874 14.649C23.7964 14.7054 23.7684 14.8248 23.8248 14.9158L22.7591 15.5768C22.7027 15.4859 22.5833 15.4579 22.4924 15.5143L21.0974 16.3796C21.0064 16.436 20.9784 16.5554 21.0348 16.6463L19.9691 17.3074C19.9127 17.2164 19.7933 17.1885 19.7024 17.2449L18.3074 18.1102C18.2164 18.1666 18.1884 18.286 18.2448 18.3769L17.1791 19.038C17.1227 18.947 17.0033 18.919 16.9124 18.9754L16.2149 19.4081C16.1064 19.4754 15.9908 19.526 15.8717 19.5599C15.7727 19.5881 15.7137 19.6884 15.7355 19.7876C15.5794 19.8115 15.4205 19.8115 15.2645 19.7876C15.2862 19.6884 15.2273 19.5881 15.1283 19.5599C15.0092 19.526 14.8936 19.4754 14.7851 19.4081L14.0876 18.9754C13.9966 18.919 13.8772 18.947 13.8208 19.038L12.7551 18.3769C12.8115 18.286 12.7835 18.1666 12.6926 18.1102L11.2976 17.2449C11.2067 17.1885 11.0872 17.2164 11.0308 17.3074L9.96511 16.6463C10.0215 16.5554 9.99352 16.436 9.90259 16.3796L8.50759 15.5143C8.41666 15.4579 8.29722 15.4859 8.24081 15.5768L7.17511 14.9158C7.23151 14.8248 7.20352 14.7054 7.11259 14.649L5.71759 13.7837C5.62666 13.7273 5.50722 13.7553 5.45082 13.8462L4.38512 13.1852C4.44152 13.0942 4.41353 12.9748 4.3226 12.9184L2.9276 12.0531C2.83667 11.9967 2.71723 12.0247 2.66082 12.1156L1.59512 11.4546C1.65152 11.3636 1.62353 11.2442 1.5326 11.1878L0.835102 10.7552C0.736153 10.6938 0.646864 10.6208 0.568511 10.5387Z" stroke="white" stroke-width="0.383325" stroke-linecap="round" stroke-dasharray="1.53 1.53"/>
</svg>
