<svg width="114" height="87" viewBox="0 0 114 87" fill="none" xmlns="http://www.w3.org/2000/svg">
<path d="M4.31672 3.25911L3.32056 0L2.32439 3.25911L0 5.75137L3.32056 4.98452L6.64111 5.75137L4.31672 3.25911Z" fill="white"/>
<path d="M19.6537 3.25911L18.6575 0L17.6614 3.25911L15.337 5.75137L18.6575 4.98452L21.9781 5.75137L19.6537 3.25911Z" fill="white"/>
<path d="M33.9945 0L34.9907 3.25911L37.3151 5.75137L33.9945 4.98452L30.674 5.75137L32.9984 3.25911L33.9945 0Z" fill="white"/>
<path d="M50.3277 3.25911L49.3315 0L48.3354 3.25911L46.011 5.75137L49.3315 4.98452L52.6521 5.75137L50.3277 3.25911Z" fill="white"/>
<path d="M64.6685 0L65.6647 3.25911L67.9891 5.75137L64.6685 4.98452L61.348 5.75137L63.6723 3.25911L64.6685 0Z" fill="white"/>
<path d="M81.0017 3.25911L80.0055 0L79.0093 3.25911L76.685 5.75137L80.0055 4.98452L83.3261 5.75137L81.0017 3.25911Z" fill="white"/>
<path d="M95.3425 0L96.3387 3.25911L98.6631 5.75137L95.3425 4.98452L92.0219 5.75137L94.3463 3.25911L95.3425 0Z" fill="white"/>
<path d="M111.676 3.25911L110.679 0L109.683 3.25911L107.359 5.75137L110.679 4.98452L114 5.75137L111.676 3.25911Z" fill="white"/>
<path d="M3.32056 11.5027L4.31672 14.7619L6.64111 17.2541L3.32056 16.4873L0 17.2541L2.32439 14.7619L3.32056 11.5027Z" fill="white"/>
<path d="M19.6537 14.7619L18.6575 11.5027L17.6614 14.7619L15.337 17.2541L18.6575 16.4873L21.9781 17.2541L19.6537 14.7619Z" fill="white"/>
<path d="M33.9945 11.5027L34.9907 14.7619L37.3151 17.2541L33.9945 16.4873L30.674 17.2541L32.9984 14.7619L33.9945 11.5027Z" fill="white"/>
<path d="M50.3277 14.7619L49.3315 11.5027L48.3354 14.7619L46.011 17.2541L49.3315 16.4873L52.6521 17.2541L50.3277 14.7619Z" fill="white"/>
<path d="M64.6685 11.5027L65.6647 14.7619L67.9891 17.2541L64.6685 16.4873L61.348 17.2541L63.6723 14.7619L64.6685 11.5027Z" fill="white"/>
<path d="M81.0017 14.7619L80.0055 11.5027L79.0093 14.7619L76.685 17.2541L80.0055 16.4873L83.3261 17.2541L81.0017 14.7619Z" fill="white"/>
<path d="M95.3425 11.5027L96.3387 14.7619L98.6631 17.2541L95.3425 16.4873L92.0219 17.2541L94.3463 14.7619L95.3425 11.5027Z" fill="white"/>
<path d="M111.676 14.7619L110.679 11.5027L109.683 14.7619L107.359 17.2541L110.679 16.4873L114 17.2541L111.676 14.7619Z" fill="white"/>
<path d="M3.32056 23.0055L4.31672 26.2646L6.64111 28.7569L3.32056 27.99L0 28.7569L2.32439 26.2646L3.32056 23.0055Z" fill="white"/>
<path d="M19.6537 26.2646L18.6575 23.0055L17.6614 26.2646L15.337 28.7569L18.6575 27.99L21.9781 28.7569L19.6537 26.2646Z" fill="white"/>
<path d="M33.9945 23.0055L34.9907 26.2646L37.3151 28.7569L33.9945 27.99L30.674 28.7569L32.9984 26.2646L33.9945 23.0055Z" fill="white"/>
<path d="M50.3277 26.2646L49.3315 23.0055L48.3354 26.2646L46.011 28.7569L49.3315 27.99L52.6521 28.7569L50.3277 26.2646Z" fill="white"/>
<path d="M64.6685 23.0055L65.6647 26.2646L67.9891 28.7569L64.6685 27.99L61.348 28.7569L63.6723 26.2646L64.6685 23.0055Z" fill="white"/>
<path d="M81.0017 26.2646L80.0055 23.0055L79.0093 26.2646L76.685 28.7569L80.0055 27.99L83.3261 28.7569L81.0017 26.2646Z" fill="white"/>
<path d="M95.3425 23.0055L96.3387 26.2646L98.6631 28.7569L95.3425 27.99L92.0219 28.7569L94.3463 26.2646L95.3425 23.0055Z" fill="white"/>
<path d="M111.676 26.2646L110.679 23.0055L109.683 26.2646L107.359 28.7569L110.679 27.99L114 28.7569L111.676 26.2646Z" fill="white"/>
<path d="M3.32056 34.5082L4.31672 37.7673L6.64111 40.2596L3.32056 39.4928L0 40.2596L2.32439 37.7673L3.32056 34.5082Z" fill="white"/>
<path d="M19.6537 37.7673L18.6575 34.5082L17.6614 37.7673L15.337 40.2596L18.6575 39.4928L21.9781 40.2596L19.6537 37.7673Z" fill="white"/>
<path d="M33.9945 34.5082L34.9907 37.7673L37.3151 40.2596L33.9945 39.4928L30.674 40.2596L32.9984 37.7673L33.9945 34.5082Z" fill="white"/>
<path d="M50.3277 37.7673L49.3315 34.5082L48.3354 37.7673L46.011 40.2596L49.3315 39.4928L52.6521 40.2596L50.3277 37.7673Z" fill="white"/>
<path d="M64.6685 34.5082L65.6647 37.7673L67.9891 40.2596L64.6685 39.4928L61.348 40.2596L63.6723 37.7673L64.6685 34.5082Z" fill="white"/>
<path d="M81.0017 37.7673L80.0055 34.5082L79.0093 37.7673L76.685 40.2596L80.0055 39.4928L83.3261 40.2596L81.0017 37.7673Z" fill="white"/>
<path d="M95.3425 34.5082L96.3387 37.7673L98.6631 40.2596L95.3425 39.4928L92.0219 40.2596L94.3463 37.7673L95.3425 34.5082Z" fill="white"/>
<path d="M111.676 37.7673L110.679 34.5082L109.683 37.7673L107.359 40.2596L110.679 39.4928L114 40.2596L111.676 37.7673Z" fill="white"/>
<path d="M3.32056 46.011L4.31672 49.2701L6.64111 51.7623L3.32056 50.9955L0 51.7623L2.32439 49.2701L3.32056 46.011Z" fill="white"/>
<path d="M19.6537 49.2701L18.6575 46.011L17.6614 49.2701L15.337 51.7623L18.6575 50.9955L21.9781 51.7623L19.6537 49.2701Z" fill="white"/>
<path d="M33.9945 46.011L34.9907 49.2701L37.3151 51.7623L33.9945 50.9955L30.674 51.7623L32.9984 49.2701L33.9945 46.011Z" fill="white"/>
<path d="M50.3277 49.2701L49.3315 46.011L48.3354 49.2701L46.011 51.7623L49.3315 50.9955L52.6521 51.7623L50.3277 49.2701Z" fill="white"/>
<path d="M64.6685 46.011L65.6647 49.2701L67.9891 51.7623L64.6685 50.9955L61.348 51.7623L63.6723 49.2701L64.6685 46.011Z" fill="white"/>
<path d="M81.0017 49.2701L80.0055 46.011L79.0093 49.2701L76.685 51.7623L80.0055 50.9955L83.3261 51.7623L81.0017 49.2701Z" fill="white"/>
<path d="M95.3425 46.011L96.3387 49.2701L98.6631 51.7623L95.3425 50.9955L92.0219 51.7623L94.3463 49.2701L95.3425 46.011Z" fill="white"/>
<path d="M111.676 49.2701L110.679 46.011L109.683 49.2701L107.359 51.7623L110.679 50.9955L114 51.7623L111.676 49.2701Z" fill="white"/>
<path d="M3.32056 57.5137L4.31672 60.7728L6.64111 63.2651L3.32056 62.4982L0 63.2651L2.32439 60.7728L3.32056 57.5137Z" fill="white"/>
<path d="M19.6537 60.7728L18.6575 57.5137L17.6614 60.7728L15.337 63.2651L18.6575 62.4982L21.9781 63.2651L19.6537 60.7728Z" fill="white"/>
<path d="M33.9945 57.5137L34.9907 60.7728L37.3151 63.2651L33.9945 62.4982L30.674 63.2651L32.9984 60.7728L33.9945 57.5137Z" fill="white"/>
<path d="M50.3277 60.7728L49.3315 57.5137L48.3354 60.7728L46.011 63.2651L49.3315 62.4982L52.6521 63.2651L50.3277 60.7728Z" fill="white"/>
<path d="M64.6685 57.5137L65.6647 60.7728L67.9891 63.2651L64.6685 62.4982L61.348 63.2651L63.6723 60.7728L64.6685 57.5137Z" fill="white"/>
<path d="M81.0017 60.7728L80.0055 57.5137L79.0093 60.7728L76.685 63.2651L80.0055 62.4982L83.3261 63.2651L81.0017 60.7728Z" fill="white"/>
<path d="M95.3425 57.5137L96.3387 60.7728L98.6631 63.2651L95.3425 62.4982L92.0219 63.2651L94.3463 60.7728L95.3425 57.5137Z" fill="white"/>
<path d="M111.676 60.7728L110.679 57.5137L109.683 60.7728L107.359 63.2651L110.679 62.4982L114 63.2651L111.676 60.7728Z" fill="white"/>
<path d="M3.32056 69.0165L4.31672 72.2756L6.64111 74.7678L3.32056 74.001L0 74.7678L2.32439 72.2756L3.32056 69.0165Z" fill="white"/>
<path d="M19.6537 72.2756L18.6575 69.0165L17.6614 72.2756L15.337 74.7678L18.6575 74.001L21.9781 74.7678L19.6537 72.2756Z" fill="white"/>
<path d="M33.9945 69.0165L34.9907 72.2756L37.3151 74.7678L33.9945 74.001L30.674 74.7678L32.9984 72.2756L33.9945 69.0165Z" fill="white"/>
<path d="M50.3277 72.2756L49.3315 69.0165L48.3354 72.2756L46.011 74.7678L49.3315 74.001L52.6521 74.7678L50.3277 72.2756Z" fill="white"/>
<path d="M64.6685 69.0165L65.6647 72.2756L67.9891 74.7678L64.6685 74.001L61.348 74.7678L63.6723 72.2756L64.6685 69.0165Z" fill="white"/>
<path d="M81.0017 72.2756L80.0055 69.0165L79.0093 72.2756L76.685 74.7678L80.0055 74.001L83.3261 74.7678L81.0017 72.2756Z" fill="white"/>
<path d="M95.3425 69.0165L96.3387 72.2756L98.6631 74.7678L95.3425 74.001L92.0219 74.7678L94.3463 72.2756L95.3425 69.0165Z" fill="white"/>
<path d="M111.676 72.2756L110.679 69.0165L109.683 72.2756L107.359 74.7678L110.679 74.001L114 74.7678L111.676 72.2756Z" fill="white"/>
<path d="M3.32056 80.5192L4.31672 83.7783L6.64111 86.2706L3.32056 85.5037L0 86.2706L2.32439 83.7783L3.32056 80.5192Z" fill="white"/>
<path d="M19.6537 83.7783L18.6575 80.5192L17.6614 83.7783L15.337 86.2706L18.6575 85.5037L21.9781 86.2706L19.6537 83.7783Z" fill="white"/>
<path d="M33.9945 80.5192L34.9907 83.7783L37.3151 86.2706L33.9945 85.5037L30.674 86.2706L32.9984 83.7783L33.9945 80.5192Z" fill="white"/>
<path d="M50.3277 83.7783L49.3315 80.5192L48.3354 83.7783L46.011 86.2706L49.3315 85.5037L52.6521 86.2706L50.3277 83.7783Z" fill="white"/>
<path d="M64.6685 80.5192L65.6647 83.7783L67.9891 86.2706L64.6685 85.5037L61.348 86.2706L63.6723 83.7783L64.6685 80.5192Z" fill="white"/>
<path d="M81.0017 83.7783L80.0055 80.5192L79.0093 83.7783L76.685 86.2706L80.0055 85.5037L83.3261 86.2706L81.0017 83.7783Z" fill="white"/>
<path d="M95.3425 80.5192L96.3387 83.7783L98.6631 86.2706L95.3425 85.5037L92.0219 86.2706L94.3463 83.7783L95.3425 80.5192Z" fill="white"/>
<path d="M111.676 83.7783L110.679 80.5192L109.683 83.7783L107.359 86.2706L110.679 85.5037L114 86.2706L111.676 83.7783Z" fill="white"/>
</svg>
