<svg width="115" height="100" viewBox="0 0 115 100" fill="none" xmlns="http://www.w3.org/2000/svg">
<path d="M7.66667 0H0V7.66667H7.66667V0Z" fill="white"/>
<path d="M23 0H15.3333V7.66667H23V0Z" fill="white"/>
<path d="M30.6667 0H38.3334V7.66667H30.6667V0Z" fill="white"/>
<path d="M53.6667 0H46V7.66667H53.6667V0Z" fill="white"/>
<path d="M61.3334 0H69V7.66667H61.3334V0Z" fill="white"/>
<path d="M84.3334 0H76.6667V7.66667H84.3334V0Z" fill="white"/>
<path d="M92.0001 0H99.6667V7.66667H92.0001V0Z" fill="white"/>
<path d="M115 0H107.333V7.66667H115V0Z" fill="white"/>
<path d="M0 15.3333H7.66667V23H0V15.3333Z" fill="white"/>
<path d="M23 15.3333H15.3333V23H23V15.3333Z" fill="white"/>
<path d="M30.6667 15.3333H38.3334V23H30.6667V15.3333Z" fill="white"/>
<path d="M53.6667 15.3333H46V23H53.6667V15.3333Z" fill="white"/>
<path d="M61.3334 15.3333H69V23H61.3334V15.3333Z" fill="white"/>
<path d="M84.3334 15.3333H76.6667V23H84.3334V15.3333Z" fill="white"/>
<path d="M92.0001 15.3333H99.6667V23H92.0001V15.3333Z" fill="white"/>
<path d="M115 15.3333H107.333V23H115V15.3333Z" fill="white"/>
<path d="M0 30.6667H7.66667V38.3334H0V30.6667Z" fill="white"/>
<path d="M23 30.6667H15.3333V38.3334H23V30.6667Z" fill="white"/>
<path d="M30.6667 30.6667H38.3334V38.3334H30.6667V30.6667Z" fill="white"/>
<path d="M53.6667 30.6667H46V38.3334H53.6667V30.6667Z" fill="white"/>
<path d="M61.3334 30.6667H69V38.3334H61.3334V30.6667Z" fill="white"/>
<path d="M84.3334 30.6667H76.6667V38.3334H84.3334V30.6667Z" fill="white"/>
<path d="M92.0001 30.6667H99.6667V38.3334H92.0001V30.6667Z" fill="white"/>
<path d="M115 30.6667H107.333V38.3334H115V30.6667Z" fill="white"/>
<path d="M0 46H7.66667V53.6667H0V46Z" fill="white"/>
<path d="M23 46H15.3333V53.6667H23V46Z" fill="white"/>
<path d="M30.6667 46H38.3334V53.6667H30.6667V46Z" fill="white"/>
<path d="M53.6667 46H46V53.6667H53.6667V46Z" fill="white"/>
<path d="M61.3334 46H69V53.6667H61.3334V46Z" fill="white"/>
<path d="M84.3334 46H76.6667V53.6667H84.3334V46Z" fill="white"/>
<path d="M92.0001 46H99.6667V53.6667H92.0001V46Z" fill="white"/>
<path d="M115 46H107.333V53.6667H115V46Z" fill="white"/>
<path d="M0 61.3334H7.66667V69H0V61.3334Z" fill="white"/>
<path d="M23 61.3334H15.3333V69H23V61.3334Z" fill="white"/>
<path d="M30.6667 61.3334H38.3334V69H30.6667V61.3334Z" fill="white"/>
<path d="M53.6667 61.3334H46V69H53.6667V61.3334Z" fill="white"/>
<path d="M61.3334 61.3334H69V69H61.3334V61.3334Z" fill="white"/>
<path d="M84.3334 61.3334H76.6667V69H84.3334V61.3334Z" fill="white"/>
<path d="M92.0001 61.3334H99.6667V69H92.0001V61.3334Z" fill="white"/>
<path d="M115 61.3334H107.333V69H115V61.3334Z" fill="white"/>
<path d="M0 76.6667H7.66667V84.3334H0V76.6667Z" fill="white"/>
<path d="M23 76.6667H15.3333V84.3334H23V76.6667Z" fill="white"/>
<path d="M30.6667 76.6667H38.3334V84.3334H30.6667V76.6667Z" fill="white"/>
<path d="M53.6667 76.6667H46V84.3334H53.6667V76.6667Z" fill="white"/>
<path d="M61.3334 76.6667H69V84.3334H61.3334V76.6667Z" fill="white"/>
<path d="M84.3334 76.6667H76.6667V84.3334H84.3334V76.6667Z" fill="white"/>
<path d="M92.0001 76.6667H99.6667V84.3334H92.0001V76.6667Z" fill="white"/>
<path d="M115 76.6667H107.333V84.3334H115V76.6667Z" fill="white"/>
<path d="M0 92.0001H7.66667V99.6667H0V92.0001Z" fill="white"/>
<path d="M23 92.0001H15.3333V99.6667H23V92.0001Z" fill="white"/>
<path d="M30.6667 92.0001H38.3334V99.6667H30.6667V92.0001Z" fill="white"/>
<path d="M53.6667 92.0001H46V99.6667H53.6667V92.0001Z" fill="white"/>
<path d="M61.3334 92.0001H69V99.6667H61.3334V92.0001Z" fill="white"/>
<path d="M84.3334 92.0001H76.6667V99.6667H84.3334V92.0001Z" fill="white"/>
<path d="M92.0001 92.0001H99.6667V99.6667H92.0001V92.0001Z" fill="white"/>
<path d="M115 92.0001H107.333V99.6667H115V92.0001Z" fill="white"/>
</svg>
