<svg width="40" height="45" viewBox="0 0 40 45" fill="none" xmlns="http://www.w3.org/2000/svg">
<path d="M16.0566 1.68125L17.4025 0.904186L17.6912 1.40418L18.3641 1.01565C18.6152 0.870689 18.8806 0.761755 19.1532 0.688737L19.0038 0.131053C19.6561 -0.0436999 20.3438 -0.0437002 20.9962 0.131053L20.8468 0.688736C21.1193 0.761754 21.3847 0.870688 21.6358 1.01565L22.3087 1.40418L22.5974 0.904185L23.9433 1.68125L23.6546 2.18124L25.0006 2.95831L25.2892 2.45831L26.6351 3.23537L26.3465 3.73537L27.6924 4.51243L27.9811 4.01243L29.327 4.78949L29.0383 5.28949L30.3842 6.06655L30.6729 5.56656L32.0188 6.34362L31.7301 6.84362L33.076 7.62068L33.3647 7.12068L34.7106 7.89774L34.4219 8.39774L35.7678 9.1748L36.0565 8.6748L37.4024 9.45187L37.1138 9.95186L37.7867 10.3404C38.0378 10.4854 38.2648 10.6607 38.4643 10.8602L38.8726 10.452C39.3501 10.9296 39.694 11.5252 39.8688 12.1775L39.3111 12.327C39.3842 12.5995 39.4225 12.8838 39.4225 13.1737V13.9508H39.9999V15.5049H39.4225V17.059H39.9999V18.6132H39.4225V20.1673H39.9999V21.7214H39.4225V23.2755H39.9999V24.8296H39.4225V26.3838H39.9999V27.9379H39.4225V29.492H39.9999V31.0461H39.4225V31.8232C39.4225 32.1131 39.3842 32.3974 39.3111 32.67L39.8688 32.8194C39.694 33.4717 39.3501 34.0673 38.8726 34.5449L38.4643 34.1367C38.2648 34.3362 38.0378 34.5116 37.7867 34.6565L37.1138 35.0451L37.4024 35.5451L36.0565 36.3221L35.7678 35.8221L34.4219 36.5992L34.7106 37.0992L33.3647 37.8762L33.076 37.3762L31.7301 38.1533L32.0188 38.6533L30.6729 39.4304L30.3842 38.9304L29.0383 39.7074L29.327 40.2074L27.9811 40.9845L27.6924 40.4845L26.3465 41.2616L26.6351 41.7616L25.2892 42.5386L25.0006 42.0386L23.6547 42.8157L23.9433 43.3157L22.5974 44.0927L22.3087 43.5927L21.6358 43.9813C21.3847 44.1262 21.1193 44.2352 20.8468 44.3082L20.9962 44.8659C20.3438 45.0406 19.6561 45.0406 19.0038 44.8659L19.1532 44.3082C18.8806 44.2352 18.6152 44.1262 18.3641 43.9813L17.6912 43.5927L17.4025 44.0927L16.0566 43.3157L16.3453 42.8157L14.9994 42.0386L14.7107 42.5386L13.3648 41.7616L13.6535 41.2616L12.3075 40.4845L12.0189 40.9845L10.673 40.2074L10.9616 39.7074L9.61573 38.9304L9.32705 39.4304L7.98114 38.6533L8.26981 38.1533L6.9239 37.3762L6.63523 37.8762L5.28932 37.0992L5.57799 36.5992L4.23208 35.8221L3.94341 36.3221L2.5975 35.5451L2.88617 35.0451L2.21321 34.6565C1.96213 34.5116 1.73511 34.3362 1.53559 34.1367L1.12732 34.5449C0.649814 34.0673 0.305941 33.4717 0.131114 32.8194L0.688781 32.67C0.615732 32.3974 0.577394 32.1131 0.577394 31.8232V31.0461H4.59643e-05V29.492H0.577394V27.9379H4.59643e-05V26.3838H0.577394V24.8297H4.59643e-05V23.2755H0.577394V21.7214H4.59643e-05V20.1673H0.577394V18.6132H4.59643e-05V17.059H0.577394V15.5049H4.59643e-05V13.9508H0.577394V13.1737C0.577394 12.8838 0.615732 12.5995 0.688781 12.327L0.131114 12.1775C0.305941 11.5252 0.649813 10.9296 1.12732 10.452L1.53559 10.8602C1.73511 10.6607 1.96213 10.4854 2.21321 10.3404L2.88617 9.95187L2.59749 9.45187L3.9434 8.67481L4.23208 9.1748L5.57799 8.39774L5.28932 7.89774L6.63523 7.12068L6.9239 7.62068L8.26981 6.84362L7.98114 6.34362L9.32705 5.56656L9.61572 6.06656L10.9616 5.28949L10.673 4.7895L12.0189 4.01243L12.3075 4.51243L13.6535 3.73537L13.3648 3.23537L14.7107 2.45831L14.9994 2.95831L16.3453 2.18125L16.0566 1.68125Z" stroke="white" stroke-width="1.14997" stroke-dasharray="1.53 1.53"/>
</svg>
