<svg width="63" height="60" viewBox="0 0 63 60" fill="none" xmlns="http://www.w3.org/2000/svg">
<path d="M52.9389 26.1552L42.2195 36.6041L44.75 51.3581L31.5001 44.3922L18.2501 51.3581L20.7806 36.6041L10.0612 26.1552L24.8751 24.0026L31.5001 10.5789L38.125 24.0026L52.9389 26.1552Z" fill="white"/>
<path fill-rule="evenodd" clip-rule="evenodd" d="M41.2341 19.7233L31.5001 0L21.766 19.7233L0 22.8861L15.75 38.2386L12.0319 59.9167L31.5001 49.6817L50.9682 59.9167L47.2501 38.2386L63.0001 22.8861L41.2341 19.7233ZM38.6384 23.2961L54.6001 25.6155L43.0501 36.8739L45.7767 52.7712L31.5001 45.2655L17.2234 52.7712L19.95 36.8739L8.40001 25.6155L24.3617 23.2961L31.5001 8.8323L38.6384 23.2961Z" fill="white"/>
</svg>
