<svg width="77" height="115" viewBox="0 0 77 115" fill="none" xmlns="http://www.w3.org/2000/svg">
<path d="M0 6.5124V10.0535L17.4131 0H11.2798L0 6.5124Z" fill="white"/>
<path d="M27.8786 0L0 16.0957V19.6368L34.012 0H27.8786Z" fill="white"/>
<path d="M44.4775 0L0 25.6791V29.2201L50.6108 0H44.4775Z" fill="white"/>
<path d="M61.0763 0L0 35.2624V38.8035L67.2096 0H61.0763Z" fill="white"/>
<path d="M76.6667 0.582215L0 44.8457V48.3868L76.6667 4.1233V0.582215Z" fill="white"/>
<path d="M76.6667 10.1655L0 54.4291V57.9702L76.6667 13.7066V10.1655Z" fill="white"/>
<path d="M76.6667 19.7489L0 64.0124V67.5535L76.6667 23.29V19.7489Z" fill="white"/>
<path d="M76.6667 29.3322L0 73.5957V77.1368L76.6667 32.8733V29.3322Z" fill="white"/>
<path d="M76.6667 38.9155L0 83.1791V86.7202L76.6667 42.4566V38.9155Z" fill="white"/>
<path d="M76.6667 48.4989L0 92.7624V96.3035L76.6667 52.04V48.4989Z" fill="white"/>
<path d="M76.6667 58.0822L0 102.346V105.887L76.6667 61.6233V58.0822Z" fill="white"/>
<path d="M76.6667 67.6656L0 111.929V115H0.814317L76.6667 71.2066V67.6656Z" fill="white"/>
<path d="M76.6667 77.2489L11.2798 115H17.4131L76.6667 80.79V77.2489Z" fill="white"/>
<path d="M76.6667 86.8322L27.8786 115H34.012L76.6667 90.3733V86.8322Z" fill="white"/>
<path d="M76.6667 96.4156L44.4775 115H50.6108L76.6667 99.9566V96.4156Z" fill="white"/>
<path d="M76.6667 105.999L61.0763 115H67.2096L76.6667 109.54V105.999Z" fill="white"/>
</svg>
