<svg width="108" height="108" viewBox="0 0 108 108" fill="none" xmlns="http://www.w3.org/2000/svg">
<path fill-rule="evenodd" clip-rule="evenodd" d="M2.33768 1.51946L1.92857 0L1.51946 1.51946L0 1.92857L1.51946 2.33768L1.92857 3.85714L2.33768 2.33768L3.85714 1.92857L2.33768 1.51946ZM2.33768 36.2337L1.92857 34.7143L1.51946 36.2337L0 36.6429L1.51946 37.052L1.92857 38.5714L2.33768 37.052L3.85714 36.6429L2.33768 36.2337ZM1.92857 69.4286L2.33768 70.948L3.85714 71.3571L2.33768 71.7663L1.92857 73.2857L1.51946 71.7663L0 71.3571L1.51946 70.948L1.92857 69.4286ZM2.33768 105.662L1.92857 104.143L1.51946 105.662L0 106.071L1.51946 106.481L1.92857 108L2.33768 106.481L3.85714 106.071L2.33768 105.662ZM36.6429 0L37.052 1.51946L38.5714 1.92857L37.052 2.33768L36.6429 3.85714L36.2337 2.33768L34.7143 1.92857L36.2337 1.51946L36.6429 0ZM37.052 36.2337L36.6429 34.7143L36.2337 36.2337L34.7143 36.6429L36.2337 37.052L36.6429 38.5714L37.052 37.052L38.5714 36.6429L37.052 36.2337ZM36.6429 69.4286L37.052 70.948L38.5714 71.3571L37.052 71.7663L36.6429 73.2857L36.2337 71.7663L34.7143 71.3571L36.2337 70.948L36.6429 69.4286ZM37.052 105.662L36.6429 104.143L36.2337 105.662L34.7143 106.071L36.2337 106.481L36.6429 108L37.052 106.481L38.5714 106.071L37.052 105.662ZM71.3571 0L71.7663 1.51946L73.2857 1.92857L71.7663 2.33768L71.3571 3.85714L70.948 2.33768L69.4286 1.92857L70.948 1.51946L71.3571 0ZM71.7663 36.2337L71.3571 34.7143L70.948 36.2337L69.4286 36.6429L70.948 37.052L71.3571 38.5714L71.7663 37.052L73.2857 36.6429L71.7663 36.2337ZM71.3571 69.4286L71.7663 70.948L73.2857 71.3571L71.7663 71.7663L71.3571 73.2857L70.948 71.7663L69.4286 71.3571L70.948 70.948L71.3571 69.4286ZM71.7663 105.662L71.3571 104.143L70.948 105.662L69.4286 106.071L70.948 106.481L71.3571 108L71.7663 106.481L73.2857 106.071L71.7663 105.662ZM106.071 0L106.481 1.51946L108 1.92857L106.481 2.33768L106.071 3.85714L105.662 2.33768L104.143 1.92857L105.662 1.51946L106.071 0ZM106.481 36.2337L106.071 34.7143L105.662 36.2337L104.143 36.6429L105.662 37.052L106.071 38.5714L106.481 37.052L108 36.6429L106.481 36.2337ZM106.071 69.4286L106.481 70.948L108 71.3571L106.481 71.7663L106.071 73.2857L105.662 71.7663L104.143 71.3571L105.662 70.948L106.071 69.4286ZM106.481 105.662L106.071 104.143L105.662 105.662L104.143 106.071L105.662 106.481L106.071 108L106.481 106.481L108 106.071L106.481 105.662Z" fill="white"/>
</svg>
