<svg width="23" height="67" viewBox="0 0 23 67" fill="none" xmlns="http://www.w3.org/2000/svg">
<path fill-rule="evenodd" clip-rule="evenodd" d="M22.5719 11.8825C21.985 12.4929 21.0143 12.512 20.4039 11.925L11.5 3.36358L2.59613 11.925C1.9857 12.512 1.01504 12.4929 0.428088 11.8825C-0.158861 11.2721 -0.139829 10.3014 0.470598 9.71445L9.90587 0.642082C10.7962 -0.21403 12.2038 -0.214026 13.0942 0.642082L22.5294 9.71445C23.1399 10.3014 23.1589 11.2721 22.5719 11.8825ZM22.5719 25.2991C21.985 25.9096 21.0143 25.9286 20.4039 25.3417L11.5 16.7802L2.59613 25.3417C1.9857 25.9286 1.01504 25.9096 0.428088 25.2991C-0.158862 24.6887 -0.13983 23.718 0.470598 23.1311L9.90587 14.0587C10.7962 13.2026 12.2038 13.2026 13.0942 14.0587L22.5294 23.1311C23.1399 23.718 23.1589 24.6887 22.5719 25.2991ZM20.4039 38.7583C21.0143 39.3452 21.985 39.3262 22.5719 38.7158C23.1589 38.1054 23.1399 37.1347 22.5294 36.5478L13.0942 27.4754C12.2038 26.6193 10.7962 26.6193 9.90587 27.4754L0.470597 36.5477C-0.13983 37.1347 -0.158862 38.1054 0.428087 38.7158C1.01504 39.3262 1.9857 39.3452 2.59613 38.7583L11.5 30.1969L20.4039 38.7583ZM22.5719 52.1324C21.985 52.7429 21.0143 52.7619 20.4039 52.1749L11.5 43.6135L2.59613 52.1749C1.9857 52.7619 1.01504 52.7429 0.428086 52.1324C-0.158863 51.522 -0.139831 50.5513 0.470596 49.9644L9.90587 40.892C10.7962 40.0359 12.2038 40.0359 13.0942 40.892L22.5294 49.9644C23.1399 50.5513 23.1589 51.522 22.5719 52.1324ZM20.4039 65.5916C21.0143 66.1785 21.985 66.1595 22.5719 65.5491C23.1589 64.9386 23.1399 63.968 22.5294 63.381L13.0942 54.3087C12.2038 53.4526 10.7962 53.4526 9.90587 54.3087L0.470596 63.381C-0.139832 63.968 -0.158864 64.9386 0.428086 65.5491C1.01504 66.1595 1.9857 66.1785 2.59613 65.5916L11.5 57.0302L20.4039 65.5916Z" fill="white"/>
</svg>
