<svg width="119" height="89" viewBox="0 0 119 89" fill="none" xmlns="http://www.w3.org/2000/svg">
<path d="M6.97954 4.5366L5.75807 0L4.5366 4.5366L0 5.75807L4.5366 6.97954L5.75807 11.5161L6.97954 6.97954L11.5161 5.75807L6.97954 4.5366Z" fill="white"/>
<path d="M22.3344 4.5366L21.1129 0L19.8914 4.5366L15.3548 5.75807L19.8914 6.97954L21.1129 11.5161L22.3344 6.97954L26.871 5.75807L22.3344 4.5366Z" fill="white"/>
<path d="M36.4678 0L37.6892 4.5366L42.2258 5.75807L37.6892 6.97954L36.4678 11.5161L35.2463 6.97954L30.7097 5.75807L35.2463 4.5366L36.4678 0Z" fill="white"/>
<path d="M53.0441 4.5366L51.8226 0L50.6011 4.5366L46.0645 5.75807L50.6011 6.97954L51.8226 11.5161L53.0441 6.97954L57.5807 5.75807L53.0441 4.5366Z" fill="white"/>
<path d="M67.1775 0L68.3989 4.5366L72.9355 5.75807L68.3989 6.97954L67.1775 11.5161L65.956 6.97954L61.4194 5.75807L65.956 4.5366L67.1775 0Z" fill="white"/>
<path d="M83.7538 4.5366L82.5323 0L81.3108 4.5366L76.7742 5.75807L81.3108 6.97954L82.5323 11.5161L83.7538 6.97954L88.2904 5.75807L83.7538 4.5366Z" fill="white"/>
<path d="M97.8871 0L99.1086 4.5366L103.645 5.75807L99.1086 6.97954L97.8871 11.5161L96.6657 6.97954L92.1291 5.75807L96.6657 4.5366L97.8871 0Z" fill="white"/>
<path d="M114.463 4.5366L113.242 0L112.021 4.5366L107.484 5.75807L112.021 6.97954L113.242 11.5161L114.463 6.97954L119 5.75807L114.463 4.5366Z" fill="white"/>
<path d="M5.75807 15.3548L6.97954 19.8914L11.5161 21.1129L6.97954 22.3344L5.75807 26.871L4.5366 22.3344L0 21.1129L4.5366 19.8914L5.75807 15.3548Z" fill="white"/>
<path d="M22.3344 19.8914L21.1129 15.3548L19.8914 19.8914L15.3548 21.1129L19.8914 22.3344L21.1129 26.871L22.3344 22.3344L26.871 21.1129L22.3344 19.8914Z" fill="white"/>
<path d="M36.4678 15.3548L37.6892 19.8914L42.2258 21.1129L37.6892 22.3344L36.4678 26.871L35.2463 22.3344L30.7097 21.1129L35.2463 19.8914L36.4678 15.3548Z" fill="white"/>
<path d="M53.0441 19.8914L51.8226 15.3548L50.6011 19.8914L46.0645 21.1129L50.6011 22.3344L51.8226 26.871L53.0441 22.3344L57.5807 21.1129L53.0441 19.8914Z" fill="white"/>
<path d="M67.1775 15.3548L68.3989 19.8914L72.9355 21.1129L68.3989 22.3344L67.1775 26.871L65.956 22.3344L61.4194 21.1129L65.956 19.8914L67.1775 15.3548Z" fill="white"/>
<path d="M83.7538 19.8914L82.5323 15.3548L81.3108 19.8914L76.7742 21.1129L81.3108 22.3344L82.5323 26.871L83.7538 22.3344L88.2904 21.1129L83.7538 19.8914Z" fill="white"/>
<path d="M97.8871 15.3548L99.1086 19.8914L103.645 21.1129L99.1086 22.3344L97.8871 26.871L96.6657 22.3344L92.1291 21.1129L96.6657 19.8914L97.8871 15.3548Z" fill="white"/>
<path d="M114.463 19.8914L113.242 15.3548L112.021 19.8914L107.484 21.1129L112.021 22.3344L113.242 26.871L114.463 22.3344L119 21.1129L114.463 19.8914Z" fill="white"/>
<path d="M5.75807 30.7097L6.97954 35.2463L11.5161 36.4678L6.97954 37.6892L5.75807 42.2258L4.5366 37.6892L0 36.4678L4.5366 35.2463L5.75807 30.7097Z" fill="white"/>
<path d="M22.3344 35.2463L21.1129 30.7097L19.8914 35.2463L15.3548 36.4678L19.8914 37.6892L21.1129 42.2258L22.3344 37.6892L26.871 36.4678L22.3344 35.2463Z" fill="white"/>
<path d="M36.4678 30.7097L37.6892 35.2463L42.2258 36.4678L37.6892 37.6892L36.4678 42.2258L35.2463 37.6892L30.7097 36.4678L35.2463 35.2463L36.4678 30.7097Z" fill="white"/>
<path d="M53.0441 35.2463L51.8226 30.7097L50.6011 35.2463L46.0645 36.4678L50.6011 37.6892L51.8226 42.2258L53.0441 37.6892L57.5807 36.4678L53.0441 35.2463Z" fill="white"/>
<path d="M67.1775 30.7097L68.3989 35.2463L72.9355 36.4678L68.3989 37.6892L67.1775 42.2258L65.956 37.6892L61.4194 36.4678L65.956 35.2463L67.1775 30.7097Z" fill="white"/>
<path d="M83.7538 35.2463L82.5323 30.7097L81.3108 35.2463L76.7742 36.4678L81.3108 37.6892L82.5323 42.2258L83.7538 37.6892L88.2904 36.4678L83.7538 35.2463Z" fill="white"/>
<path d="M97.8871 30.7097L99.1086 35.2463L103.645 36.4678L99.1086 37.6892L97.8871 42.2258L96.6657 37.6892L92.1291 36.4678L96.6657 35.2463L97.8871 30.7097Z" fill="white"/>
<path d="M114.463 35.2463L113.242 30.7097L112.021 35.2463L107.484 36.4678L112.021 37.6892L113.242 42.2258L114.463 37.6892L119 36.4678L114.463 35.2463Z" fill="white"/>
<path d="M5.75807 46.0645L6.97954 50.6011L11.5161 51.8226L6.97954 53.0441L5.75807 57.5807L4.5366 53.0441L0 51.8226L4.5366 50.6011L5.75807 46.0645Z" fill="white"/>
<path d="M22.3344 50.6011L21.1129 46.0645L19.8914 50.6011L15.3548 51.8226L19.8914 53.0441L21.1129 57.5807L22.3344 53.0441L26.871 51.8226L22.3344 50.6011Z" fill="white"/>
<path d="M36.4678 46.0645L37.6892 50.6011L42.2258 51.8226L37.6892 53.0441L36.4678 57.5807L35.2463 53.0441L30.7097 51.8226L35.2463 50.6011L36.4678 46.0645Z" fill="white"/>
<path d="M53.0441 50.6011L51.8226 46.0645L50.6011 50.6011L46.0645 51.8226L50.6011 53.0441L51.8226 57.5807L53.0441 53.0441L57.5807 51.8226L53.0441 50.6011Z" fill="white"/>
<path d="M67.1775 46.0645L68.3989 50.6011L72.9355 51.8226L68.3989 53.0441L67.1775 57.5807L65.956 53.0441L61.4194 51.8226L65.956 50.6011L67.1775 46.0645Z" fill="white"/>
<path d="M83.7538 50.6011L82.5323 46.0645L81.3108 50.6011L76.7742 51.8226L81.3108 53.0441L82.5323 57.5807L83.7538 53.0441L88.2904 51.8226L83.7538 50.6011Z" fill="white"/>
<path d="M97.8871 46.0645L99.1086 50.6011L103.645 51.8226L99.1086 53.0441L97.8871 57.5807L96.6657 53.0441L92.1291 51.8226L96.6657 50.6011L97.8871 46.0645Z" fill="white"/>
<path d="M114.463 50.6011L113.242 46.0645L112.021 50.6011L107.484 51.8226L112.021 53.0441L113.242 57.5807L114.463 53.0441L119 51.8226L114.463 50.6011Z" fill="white"/>
<path d="M5.75807 61.4194L6.97954 65.956L11.5161 67.1775L6.97954 68.3989L5.75807 72.9355L4.5366 68.3989L0 67.1775L4.5366 65.956L5.75807 61.4194Z" fill="white"/>
<path d="M22.3344 65.956L21.1129 61.4194L19.8914 65.956L15.3548 67.1775L19.8914 68.3989L21.1129 72.9355L22.3344 68.3989L26.871 67.1775L22.3344 65.956Z" fill="white"/>
<path d="M36.4678 61.4194L37.6892 65.956L42.2258 67.1775L37.6892 68.3989L36.4678 72.9355L35.2463 68.3989L30.7097 67.1775L35.2463 65.956L36.4678 61.4194Z" fill="white"/>
<path d="M53.0441 65.956L51.8226 61.4194L50.6011 65.956L46.0645 67.1775L50.6011 68.3989L51.8226 72.9355L53.0441 68.3989L57.5807 67.1775L53.0441 65.956Z" fill="white"/>
<path d="M67.1775 61.4194L68.3989 65.956L72.9355 67.1775L68.3989 68.3989L67.1775 72.9355L65.956 68.3989L61.4194 67.1775L65.956 65.956L67.1775 61.4194Z" fill="white"/>
<path d="M83.7538 65.956L82.5323 61.4194L81.3108 65.956L76.7742 67.1775L81.3108 68.3989L82.5323 72.9355L83.7538 68.3989L88.2904 67.1775L83.7538 65.956Z" fill="white"/>
<path d="M97.8871 61.4194L99.1086 65.956L103.645 67.1775L99.1086 68.3989L97.8871 72.9355L96.6657 68.3989L92.1291 67.1775L96.6657 65.956L97.8871 61.4194Z" fill="white"/>
<path d="M114.463 65.956L113.242 61.4194L112.021 65.956L107.484 67.1775L112.021 68.3989L113.242 72.9355L114.463 68.3989L119 67.1775L114.463 65.956Z" fill="white"/>
<path d="M5.75807 76.7742L6.97954 81.3108L11.5161 82.5323L6.97954 83.7538L5.75807 88.2904L4.5366 83.7538L0 82.5323L4.5366 81.3108L5.75807 76.7742Z" fill="white"/>
<path d="M22.3344 81.3108L21.1129 76.7742L19.8914 81.3108L15.3548 82.5323L19.8914 83.7538L21.1129 88.2904L22.3344 83.7538L26.871 82.5323L22.3344 81.3108Z" fill="white"/>
<path d="M36.4678 76.7742L37.6892 81.3108L42.2258 82.5323L37.6892 83.7538L36.4678 88.2904L35.2463 83.7538L30.7097 82.5323L35.2463 81.3108L36.4678 76.7742Z" fill="white"/>
<path d="M53.0441 81.3108L51.8226 76.7742L50.6011 81.3108L46.0645 82.5323L50.6011 83.7538L51.8226 88.2904L53.0441 83.7538L57.5807 82.5323L53.0441 81.3108Z" fill="white"/>
<path d="M67.1775 76.7742L68.3989 81.3108L72.9355 82.5323L68.3989 83.7538L67.1775 88.2904L65.956 83.7538L61.4194 82.5323L65.956 81.3108L67.1775 76.7742Z" fill="white"/>
<path d="M83.7538 81.3108L82.5323 76.7742L81.3108 81.3108L76.7742 82.5323L81.3108 83.7538L82.5323 88.2904L83.7538 83.7538L88.2904 82.5323L83.7538 81.3108Z" fill="white"/>
<path d="M97.8871 76.7742L99.1086 81.3108L103.645 82.5323L99.1086 83.7538L97.8871 88.2904L96.6657 83.7538L92.1291 82.5323L96.6657 81.3108L97.8871 76.7742Z" fill="white"/>
<path d="M114.463 81.3108L113.242 76.7742L112.021 81.3108L107.484 82.5323L112.021 83.7538L113.242 88.2904L114.463 83.7538L119 82.5323L114.463 81.3108Z" fill="white"/>
</svg>
