<svg width="40" height="35" viewBox="0 0 40 35" fill="none" xmlns="http://www.w3.org/2000/svg">
<path d="M19.5 1.63582L19.8333 0.545273L19.979 0.589809L19.9826 0.601526L20 0.596215L20.0173 0.601527L20.0209 0.589808L20.1666 0.545272L20.5 1.63582L20.3159 1.69207L20.6493 2.78262L20.8333 2.72637L21.1666 3.81691L20.9826 3.87317L21.3159 4.96371L21.5 4.90746L21.8333 5.998L21.6492 6.05426L21.9826 7.1448L22.1666 7.08855L22.5 8.1791L22.3159 8.23535L22.6492 9.3259L22.8333 9.26964L23.1666 10.3602L22.9826 10.4164L23.3159 11.507L23.4999 11.4507L23.8333 12.5413L23.6492 12.5975L23.9826 13.6881L24.1666 13.6318L24.4999 14.7224L24.3159 14.7786L24.6492 15.8692L24.8333 15.8129L25.1666 16.9035L24.9826 16.9597L25.3159 18.0503L25.4999 17.994L25.8333 19.0846L25.6492 19.1408L25.8159 19.6861L25.8289 19.7286L25.8592 19.7611L26.2481 20.1781L26.3888 20.0468L27.1666 20.8807L27.0259 21.012L27.8036 21.846L27.9444 21.7147L28.7222 22.5486L28.5814 22.6799L29.3592 23.5138L29.4999 23.3826L30.2777 24.2165L30.137 24.3478L30.9147 25.1817L31.0555 25.0505L31.8332 25.8844L31.6925 26.0157L32.4703 26.8496L32.611 26.7184L33.3888 27.5523L33.2481 27.6836L34.0258 28.5175L34.1666 28.3863L34.9443 29.2202L34.8036 29.3515L35.5814 30.1854L35.7221 30.0542L36.4999 30.8881L36.3592 31.0194L37.1369 31.8533L37.2777 31.7221L38.0554 32.556L37.9147 32.6873L38.6925 33.5212L38.8332 33.3899L39.611 34.2239L39.4996 34.3278L39.4876 34.3251L39.4835 34.3428L39.4703 34.3552L39.4786 34.3641L39.4443 34.5126L38.3332 34.256L38.3765 34.0685L37.2654 33.8119L37.2221 33.9994L36.111 33.7428L36.1543 33.5553L35.0432 33.2987L34.9999 33.4862L33.8888 33.2296L33.9321 33.0421L32.821 32.7855L32.7777 32.973L31.6666 32.7164L31.7099 32.5289L30.5988 32.2723L30.5555 32.4598L29.4444 32.2032L29.4877 32.0157L28.3766 31.7591L28.3333 31.9466L27.2222 31.69L27.2655 31.5025L26.1544 31.2459L26.111 31.4334L24.9999 31.1768L25.0432 30.9893L23.9321 30.7327L23.8888 30.9202L22.7777 30.6636L22.821 30.4761L21.7099 30.2195L21.6666 30.407L20.5555 30.1504L20.5988 29.9629L20.0433 29.8346L20 29.8246L19.9567 29.8346L19.4011 29.9629L19.4444 30.1504L18.3333 30.407L18.29 30.2195L17.1789 30.4761L17.2222 30.6636L16.1111 30.9202L16.0678 30.7327L14.9567 30.9893L15 31.1768L13.8889 31.4334L13.8456 31.2459L12.7345 31.5025L12.7778 31.69L11.6667 31.9466L11.6234 31.7591L10.5123 32.0157L10.5556 32.2032L9.44445 32.4598L9.40115 32.2723L8.29004 32.5289L8.33334 32.7164L7.22224 32.973L7.17893 32.7855L6.06783 33.0421L6.11113 33.2296L5.00002 33.4862L4.95672 33.2987L3.84561 33.5553L3.88892 33.7428L2.77781 33.9994L2.73451 33.8119L1.6234 34.0685L1.66671 34.256L0.555599 34.5126L0.521315 34.3641L0.529672 34.3552L0.516384 34.3428L0.512295 34.3251L0.500356 34.3278L0.388933 34.2239L1.16671 33.39L1.30745 33.5212L2.08522 32.6873L1.94448 32.556L2.72226 31.7221L2.863 31.8533L3.64077 31.0194L3.50003 30.8881L4.27781 30.0542L4.41855 30.1854L5.19632 29.3515L5.05558 29.2202L5.83336 28.3863L5.9741 28.5175L6.75187 27.6836L6.61113 27.5523L7.3889 26.7184L7.52964 26.8496L8.30742 26.0157L8.16668 25.8844L8.94445 25.0505L9.08519 25.1817L9.86297 24.3478L9.72223 24.2165L10.5 23.3826L10.6407 23.5138L11.4185 22.6799L11.2778 22.5486L12.0556 21.7147L12.1963 21.846L12.9741 21.012L12.8333 20.8807L13.6111 20.0468L13.7518 20.1781L14.1407 19.7611L14.171 19.7286L14.184 19.6861L14.3507 19.1408L14.1667 19.0846L14.5 17.994L14.684 18.0503L15.0174 16.9597L14.8333 16.9035L15.1667 15.8129L15.3507 15.8692L15.684 14.7786L15.5 14.7224L15.8333 13.6318L16.0174 13.6881L16.3507 12.5975L16.1666 12.5413L16.5 11.4507L16.684 11.507L17.0174 10.4164L16.8333 10.3602L17.1666 9.26964L17.3507 9.32589L17.684 8.23535L17.5 8.17909L17.8333 7.08855L18.0173 7.1448L18.3507 6.05426L18.1666 5.998L18.5 4.90746L18.684 4.96371L19.0173 3.87317L18.8333 3.81691L19.1666 2.72637L19.3507 2.78262L19.684 1.69207L19.5 1.63582Z" stroke="white" stroke-width="0.383325" stroke-dasharray="1.15 1.15"/>
</svg>
