<svg width="77" height="5" viewBox="0 0 77 5" fill="none" xmlns="http://www.w3.org/2000/svg">
<path d="M38.4987 4.24307L38.423 4.41967L38.4972 4.45146L38.5719 4.42073L38.4987 4.24307ZM57.7115 4.24307L57.6358 4.41967L57.71 4.45146L57.7846 4.42073L57.7115 4.24307ZM19.2859 4.24307L19.2103 4.41967L19.2845 4.45146L19.3591 4.42073L19.2859 4.24307ZM9.87169 0.208391L9.94737 0.0317973L9.87318 -2.68872e-07L9.79854 0.0307343L9.87169 0.208391ZM48.2972 0.208391L48.3729 0.0317973L48.2987 -2.68872e-07L48.2241 0.0307343L48.2972 0.208391ZM67.51 0.208391L67.5857 0.0317973L67.5115 -2.68872e-07L67.4368 0.0307343L67.51 0.208391ZM29.0845 0.208391L29.1601 0.0317973L29.0859 -2.68872e-07L29.0113 0.0307343L29.0845 0.208391ZM0.327782 4.34601C0.425899 4.30561 0.472687 4.19332 0.432286 4.0952C0.391884 3.99709 0.279594 3.9503 0.181477 3.9907L0.327782 4.34601ZM3.08474 2.79524C2.98662 2.83564 2.93983 2.94793 2.98024 3.04605C3.02064 3.14416 3.13293 3.19095 3.23104 3.15055L3.08474 2.79524ZM3.59395 3.00112C3.69207 2.96072 3.73886 2.84843 3.69846 2.75031C3.65806 2.65219 3.54576 2.6054 3.44765 2.64581L3.59395 3.00112ZM6.35091 1.45034C6.25279 1.49075 6.20601 1.60304 6.24641 1.70115C6.28681 1.79927 6.3991 1.84606 6.49722 1.80566L6.35091 1.45034ZM6.86012 1.65622C6.95824 1.61582 7.00503 1.50353 6.96463 1.40542C6.92423 1.3073 6.81194 1.26051 6.71382 1.30091L6.86012 1.65622ZM9.61708 0.105451C9.51896 0.145852 9.47218 0.258143 9.51258 0.35626C9.55298 0.454377 9.66527 0.501164 9.76339 0.460763L9.61708 0.105451ZM9.97034 0.4597C10.0679 0.501499 10.1808 0.456319 10.2226 0.35879C10.2644 0.26126 10.2192 0.148312 10.1217 0.106514L9.97034 0.4597ZM12.9111 1.30197C12.8136 1.26018 12.7006 1.30536 12.6588 1.40289C12.617 1.50041 12.6622 1.61336 12.7598 1.65516L12.9111 1.30197ZM13.1084 1.80459C13.206 1.84639 13.3189 1.80121 13.3607 1.70368C13.4025 1.60615 13.3573 1.49321 13.2598 1.45141L13.1084 1.80459ZM16.0492 2.64687C15.9517 2.60507 15.8387 2.65025 15.7969 2.74778C15.7551 2.84531 15.8003 2.95826 15.8978 3.00005L16.0492 2.64687ZM16.2465 3.14949C16.344 3.19129 16.457 3.14611 16.4988 3.04858C16.5406 2.95105 16.4954 2.8381 16.3979 2.7963L16.2465 3.14949ZM19.1873 3.99176C19.0898 3.94996 18.9768 3.99514 18.935 4.09267C18.8932 4.1902 18.9384 4.30315 19.0359 4.34495L19.1873 3.99176ZM19.5406 4.34601C19.6387 4.30561 19.6855 4.19332 19.6451 4.0952C19.6047 3.99709 19.4924 3.9503 19.3942 3.9907L19.5406 4.34601ZM22.2975 2.79524C22.1994 2.83564 22.1526 2.94793 22.193 3.04605C22.2334 3.14416 22.3457 3.19095 22.4438 3.15055L22.2975 2.79524ZM22.8067 3.00112C22.9048 2.96072 22.9516 2.84843 22.9112 2.75031C22.8708 2.65219 22.7585 2.6054 22.6604 2.64581L22.8067 3.00112ZM25.5637 1.45034C25.4656 1.49075 25.4188 1.60304 25.4592 1.70115C25.4996 1.79927 25.6119 1.84606 25.71 1.80566L25.5637 1.45034ZM26.0729 1.65622C26.171 1.61582 26.2178 1.50353 26.1774 1.40542C26.137 1.3073 26.0247 1.26051 25.9266 1.30091L26.0729 1.65622ZM28.8299 0.105451C28.7317 0.145852 28.6849 0.258143 28.7253 0.35626C28.7657 0.454377 28.878 0.501164 28.9762 0.460763L28.8299 0.105451ZM29.1831 0.4597C29.2806 0.501499 29.3936 0.456319 29.4354 0.35879C29.4772 0.26126 29.432 0.148312 29.3345 0.106514L29.1831 0.4597ZM32.1239 1.30197C32.0264 1.26018 31.9134 1.30536 31.8716 1.40289C31.8298 1.50041 31.875 1.61336 31.9725 1.65516L32.1239 1.30197ZM32.3212 1.80459C32.4187 1.84639 32.5317 1.80121 32.5735 1.70368C32.6153 1.60615 32.5701 1.49321 32.4726 1.45141L32.3212 1.80459ZM35.262 2.64687C35.1644 2.60507 35.0515 2.65025 35.0097 2.74778C34.9679 2.84531 35.0131 2.95826 35.1106 3.00005L35.262 2.64687ZM35.4593 3.14949C35.5568 3.19129 35.6698 3.14611 35.7116 3.04858C35.7534 2.95105 35.7082 2.8381 35.6106 2.7963L35.4593 3.14949ZM38.4001 3.99176C38.3025 3.94996 38.1896 3.99514 38.1478 4.09267C38.106 4.1902 38.1512 4.30315 38.2487 4.34495L38.4001 3.99176ZM38.7533 4.34601C38.8514 4.30561 38.8982 4.19332 38.8578 4.0952C38.8174 3.99709 38.7051 3.9503 38.607 3.9907L38.7533 4.34601ZM41.5103 2.79524C41.4122 2.83564 41.3654 2.94793 41.4058 3.04605C41.4462 3.14416 41.5585 3.19095 41.6566 3.15055L41.5103 2.79524ZM42.0195 3.00112C42.1176 2.96072 42.1644 2.84843 42.124 2.75031C42.0836 2.65219 41.9713 2.6054 41.8732 2.64581L42.0195 3.00112ZM44.7764 1.45034C44.6783 1.49075 44.6315 1.60304 44.6719 1.70115C44.7123 1.79927 44.8246 1.84606 44.9228 1.80566L44.7764 1.45034ZM45.2857 1.65622C45.3838 1.61582 45.4306 1.50353 45.3902 1.40542C45.3498 1.3073 45.2375 1.26051 45.1394 1.30091L45.2857 1.65622ZM48.0426 0.105451C47.9445 0.145852 47.8977 0.258143 47.9381 0.35626C47.9785 0.454377 48.0908 0.501164 48.1889 0.460763L48.0426 0.105451ZM48.3959 0.4597C48.4934 0.501499 48.6064 0.456319 48.6482 0.35879C48.69 0.26126 48.6448 0.148312 48.5472 0.106514L48.3959 0.4597ZM51.3367 1.30197C51.2391 1.26018 51.1262 1.30536 51.0844 1.40289C51.0426 1.50041 51.0878 1.61336 51.1853 1.65516L51.3367 1.30197ZM51.534 1.80459C51.6315 1.84639 51.7444 1.80121 51.7862 1.70368C51.828 1.60615 51.7829 1.49321 51.6853 1.45141L51.534 1.80459ZM54.4747 2.64687C54.3772 2.60507 54.2643 2.65025 54.2225 2.74778C54.1807 2.84531 54.2258 2.95826 54.3234 3.00005L54.4747 2.64687ZM54.6721 3.14949C54.7696 3.19129 54.8825 3.14611 54.9243 3.04858C54.9661 2.95105 54.9209 2.8381 54.8234 2.7963L54.6721 3.14949ZM57.6128 3.99176C57.5153 3.94996 57.4024 3.99514 57.3606 4.09267C57.3188 4.1902 57.3639 4.30315 57.4615 4.34495L57.6128 3.99176ZM57.9661 4.34601C58.0642 4.30561 58.111 4.19332 58.0706 4.0952C58.0302 3.99709 57.9179 3.9503 57.8198 3.9907L57.9661 4.34601ZM60.723 2.79524C60.6249 2.83564 60.5781 2.94793 60.6185 3.04605C60.6589 3.14416 60.7712 3.19095 60.8694 3.15055L60.723 2.79524ZM61.2323 3.00112C61.3304 2.96072 61.3772 2.84843 61.3368 2.75031C61.2964 2.65219 61.1841 2.6054 61.086 2.64581L61.2323 3.00112ZM63.9892 1.45034C63.8911 1.49075 63.8443 1.60304 63.8847 1.70115C63.9251 1.79927 64.0374 1.84606 64.1355 1.80566L63.9892 1.45034ZM64.4984 1.65622C64.5965 1.61582 64.6433 1.50353 64.6029 1.40542C64.5625 1.3073 64.4502 1.26051 64.3521 1.30091L64.4984 1.65622ZM67.2554 0.105451C67.1573 0.145852 67.1105 0.258143 67.1509 0.35626C67.1913 0.454377 67.3036 0.501164 67.4017 0.460763L67.2554 0.105451ZM67.6087 0.4597C67.7062 0.501499 67.8191 0.456319 67.8609 0.35879C67.9027 0.26126 67.8576 0.148312 67.76 0.106514L67.6087 0.4597ZM70.5494 1.30197C70.4519 1.26018 70.339 1.30536 70.2972 1.40289C70.2554 1.50041 70.3005 1.61336 70.3981 1.65516L70.5494 1.30197ZM70.7467 1.80459C70.8443 1.84639 70.9572 1.80121 70.999 1.70368C71.0408 1.60615 70.9956 1.49321 70.8981 1.45141L70.7467 1.80459ZM73.6875 2.64687C73.59 2.60507 73.477 2.65025 73.4352 2.74778C73.3934 2.84531 73.4386 2.95826 73.5361 3.00005L73.6875 2.64687ZM73.8848 3.14949C73.9824 3.19129 74.0953 3.14611 74.1371 3.04858C74.1789 2.95105 74.1337 2.8381 74.0362 2.7963L73.8848 3.14949ZM76.8256 3.99176C76.7281 3.94996 76.6151 3.99514 76.5733 4.09267C76.5315 4.1902 76.5767 4.30315 76.6742 4.34495L76.8256 3.99176ZM0.146328 4.42073L0.327782 4.34601L0.181477 3.9907L2.27272e-05 4.06542L0.146328 4.42073ZM3.23104 3.15055L3.59395 3.00112L3.44765 2.64581L3.08474 2.79524L3.23104 3.15055ZM6.49722 1.80566L6.86012 1.65622L6.71382 1.30091L6.35091 1.45034L6.49722 1.80566ZM9.76339 0.460763L9.94484 0.386047L9.79854 0.0307343L9.61708 0.105451L9.76339 0.460763ZM9.79601 0.384984L9.97034 0.4597L10.1217 0.106514L9.94737 0.0317973L9.79601 0.384984ZM12.7598 1.65516L13.1084 1.80459L13.2598 1.45141L12.9111 1.30197L12.7598 1.65516ZM15.8978 3.00005L16.2465 3.14949L16.3979 2.7963L16.0492 2.64687L15.8978 3.00005ZM19.0359 4.34495L19.2103 4.41967L19.3616 4.06648L19.1873 3.99176L19.0359 4.34495ZM19.3591 4.42073L19.5406 4.34601L19.3942 3.9907L19.2128 4.06542L19.3591 4.42073ZM22.4438 3.15055L22.8067 3.00112L22.6604 2.64581L22.2975 2.79524L22.4438 3.15055ZM25.71 1.80566L26.0729 1.65622L25.9266 1.30091L25.5637 1.45034L25.71 1.80566ZM28.9762 0.460763L29.1576 0.386047L29.0113 0.0307343L28.8299 0.105451L28.9762 0.460763ZM29.0088 0.384984L29.1831 0.4597L29.3345 0.106514L29.1601 0.0317973L29.0088 0.384984ZM31.9725 1.65516L32.3212 1.80459L32.4726 1.45141L32.1239 1.30197L31.9725 1.65516ZM35.1106 3.00005L35.4593 3.14949L35.6106 2.7963L35.262 2.64687L35.1106 3.00005ZM38.2487 4.34495L38.423 4.41967L38.5744 4.06648L38.4001 3.99176L38.2487 4.34495ZM38.5719 4.42073L38.7533 4.34601L38.607 3.9907L38.4256 4.06542L38.5719 4.42073ZM41.6566 3.15055L42.0195 3.00112L41.8732 2.64581L41.5103 2.79524L41.6566 3.15055ZM44.9228 1.80566L45.2857 1.65622L45.1394 1.30091L44.7764 1.45034L44.9228 1.80566ZM48.1889 0.460763L48.3704 0.386047L48.2241 0.0307343L48.0426 0.105451L48.1889 0.460763ZM48.2215 0.384984L48.3959 0.4597L48.5472 0.106514L48.3729 0.0317973L48.2215 0.384984ZM51.1853 1.65516L51.534 1.80459L51.6853 1.45141L51.3367 1.30197L51.1853 1.65516ZM54.3234 3.00005L54.6721 3.14949L54.8234 2.7963L54.4747 2.64687L54.3234 3.00005ZM57.4615 4.34495L57.6358 4.41967L57.7872 4.06648L57.6128 3.99176L57.4615 4.34495ZM57.7846 4.42073L57.9661 4.34601L57.8198 3.9907L57.6383 4.06542L57.7846 4.42073ZM60.8694 3.15055L61.2323 3.00112L61.086 2.64581L60.723 2.79524L60.8694 3.15055ZM64.1355 1.80566L64.4984 1.65622L64.3521 1.30091L63.9892 1.45034L64.1355 1.80566ZM67.4017 0.460763L67.5832 0.386047L67.4368 0.0307343L67.2554 0.105451L67.4017 0.460763ZM67.4343 0.384984L67.6087 0.4597L67.76 0.106514L67.5857 0.0317973L67.4343 0.384984ZM70.3981 1.65516L70.7467 1.80459L70.8981 1.45141L70.5494 1.30197L70.3981 1.65516ZM73.5361 3.00005L73.8848 3.14949L74.0362 2.7963L73.6875 2.64687L73.5361 3.00005ZM76.6742 4.34495L76.8486 4.41967L76.9999 4.06648L76.8256 3.99176L76.6742 4.34495Z" fill="white"/>
</svg>
