<svg width="49" height="49" viewBox="0 0 49 49" fill="none" xmlns="http://www.w3.org/2000/svg">
<path fill-rule="evenodd" clip-rule="evenodd" d="M28.2831 18.3836L23.3333 0L18.3836 18.3836L0 23.3333L18.3836 28.2831L23.3333 46.6667L24.1859 43.5003L24.4292 44.4041L25.1803 44.2019L24.5886 42.0045L28.2831 28.2831L42.0045 24.5886L44.2019 25.1803L44.4041 24.4292L43.5003 24.1859L46.6667 23.3333L28.2831 18.3836ZM43.5003 24.1859L41.3402 23.6043L41.138 24.3553L42.0045 24.5886L43.5003 24.1859ZM24.5886 42.0045L24.3553 41.138L23.6043 41.3402L24.1859 43.5003L24.5886 42.0045ZM26.0792 3.8653L26.0581 3.87095L26.0052 4.06751L25.6667 3.97636L25.3281 4.06751L25.2752 3.87096L25.2542 3.8653L25.6667 2.33333L26.0792 3.8653ZM26.9041 6.92923L27.7291 9.99316L26.978 10.1954L26.1531 7.13145L26.9041 6.92923ZM28.554 13.0571L29.379 16.121L28.628 16.3232L27.803 13.2593L28.554 13.0571ZM30.2039 19.185L30.6164 20.7169L32.1484 21.1294L31.9462 21.8804L29.9818 21.3515L29.4529 19.3872L30.2039 19.185ZM35.2123 21.9544L38.2762 22.7793L38.074 23.5303L35.0101 22.7054L35.2123 21.9544ZM47.4624 25.2752L47.468 25.2542L49 25.6667L47.468 26.0792L47.4624 26.0581L47.2658 26.0052L47.357 25.6667L47.2658 25.3281L47.4624 25.2752ZM44.4041 26.9041L41.3402 27.7291L41.138 26.978L44.2019 26.1531L44.4041 26.9041ZM38.2762 28.554L35.2123 29.379L35.0101 28.628L38.074 27.803L38.2762 28.554ZM32.1484 30.2039L30.6164 30.6164L30.2039 32.1484L29.4529 31.9462L29.9818 29.9818L31.9462 29.4529L32.1484 30.2039ZM29.379 35.2123L28.554 38.2762L27.803 38.074L28.628 35.0101L29.379 35.2123ZM27.7291 41.3402L26.9041 44.4041L26.1531 44.2019L26.978 41.138L27.7291 41.3402ZM26.0581 47.4624L26.0792 47.468L25.6667 49L25.2542 47.468L25.2752 47.4624L25.3281 47.2658L25.6667 47.357L26.0052 47.2658L26.0581 47.4624ZM22.7793 38.2762L21.9544 35.2123L22.7054 35.0101L23.5303 38.074L22.7793 38.2762ZM21.1294 32.1484L20.7169 30.6164L19.185 30.2039L19.3872 29.4529L21.3515 29.9818L21.8804 31.9462L21.1294 32.1484ZM16.121 29.379L13.0571 28.554L13.2593 27.803L16.3232 28.628L16.121 29.379ZM9.99316 27.7291L6.92923 26.9041L7.13145 26.1531L10.1954 26.978L9.99316 27.7291ZM3.87096 26.0581L3.8653 26.0792L2.33333 25.6667L3.8653 25.2542L3.87095 25.2752L4.06751 25.3281L3.97636 25.6667L4.06751 26.0052L3.87096 26.0581ZM6.92923 24.4292L9.99316 23.6043L10.1954 24.3553L7.13145 25.1803L6.92923 24.4292ZM13.0571 22.7793L16.121 21.9544L16.3232 22.7054L13.2593 23.5303L13.0571 22.7793ZM19.185 21.1294L20.7169 20.7169L21.1294 19.185L21.8804 19.3872L21.3515 21.3515L19.3872 21.8804L19.185 21.1294ZM21.9544 16.121L22.7793 13.0571L23.5303 13.2593L22.7054 16.3232L21.9544 16.121ZM23.6043 9.99316L24.4292 6.92923L25.1803 7.13145L24.3553 10.1954L23.6043 9.99316Z" fill="white"/>
</svg>
