<svg width="23" height="100" viewBox="0 0 23 100" fill="none" xmlns="http://www.w3.org/2000/svg">
<path fill-rule="evenodd" clip-rule="evenodd" d="M1.91666 3.83333C2.97521 3.83333 3.83333 2.97521 3.83333 1.91666C3.83333 0.85812 2.97521 0 1.91666 0C0.85812 0 0 0.85812 0 1.91666C0 2.97521 0.85812 3.83333 1.91666 3.83333ZM1.91666 23C2.97521 23 3.83333 22.1418 3.83333 21.0833C3.83333 20.0248 2.97521 19.1666 1.91666 19.1666C0.85812 19.1666 0 20.0248 0 21.0833C0 22.1418 0.85812 23 1.91666 23ZM3.83333 40.2499C3.83333 41.3085 2.97521 42.1666 1.91666 42.1666C0.85812 42.1666 0 41.3085 0 40.2499C0 39.1914 0.85812 38.3333 1.91666 38.3333C2.97521 38.3333 3.83333 39.1914 3.83333 40.2499ZM1.91666 61.3332C2.97521 61.3332 3.83333 60.4751 3.83333 59.4166C3.83333 58.358 2.97521 57.4999 1.91666 57.4999C0.85812 57.4999 0 58.358 0 59.4166C0 60.4751 0.85812 61.3332 1.91666 61.3332ZM3.83333 78.5832C3.83333 79.6418 2.97521 80.4999 1.91666 80.4999C0.85812 80.4999 0 79.6418 0 78.5832C0 77.5247 0.85812 76.6665 1.91666 76.6665C2.97521 76.6665 3.83333 77.5247 3.83333 78.5832ZM1.91666 99.6665C2.97521 99.6665 3.83333 98.8084 3.83333 97.7498C3.83333 96.6913 2.97521 95.8332 1.91666 95.8332C0.85812 95.8332 0 96.6913 0 97.7498C0 98.8084 0.85812 99.6665 1.91666 99.6665ZM23 1.91666C23 2.97521 22.1418 3.83333 21.0833 3.83333C20.0248 3.83333 19.1666 2.97521 19.1666 1.91666C19.1666 0.85812 20.0248 0 21.0833 0C22.1418 0 23 0.85812 23 1.91666ZM21.0833 23C22.1418 23 23 22.1418 23 21.0833C23 20.0248 22.1418 19.1666 21.0833 19.1666C20.0248 19.1666 19.1666 20.0248 19.1666 21.0833C19.1666 22.1418 20.0248 23 21.0833 23ZM23 40.2499C23 41.3085 22.1418 42.1666 21.0833 42.1666C20.0248 42.1666 19.1666 41.3085 19.1666 40.2499C19.1666 39.1914 20.0248 38.3333 21.0833 38.3333C22.1418 38.3333 23 39.1914 23 40.2499ZM21.0833 61.3332C22.1418 61.3332 23 60.4751 23 59.4166C23 58.358 22.1418 57.4999 21.0833 57.4999C20.0248 57.4999 19.1666 58.358 19.1666 59.4166C19.1666 60.4751 20.0248 61.3332 21.0833 61.3332ZM23 78.5832C23 79.6418 22.1418 80.4999 21.0833 80.4999C20.0248 80.4999 19.1666 79.6418 19.1666 78.5832C19.1666 77.5247 20.0248 76.6665 21.0833 76.6665C22.1418 76.6665 23 77.5247 23 78.5832ZM21.0833 99.6665C22.1418 99.6665 23 98.8084 23 97.7498C23 96.6913 22.1418 95.8332 21.0833 95.8332C20.0248 95.8332 19.1666 96.6913 19.1666 97.7498C19.1666 98.8084 20.0248 99.6665 21.0833 99.6665Z" fill="white"/>
</svg>
