<svg width="115" height="115" viewBox="0 0 115 115" fill="none" xmlns="http://www.w3.org/2000/svg">
<path d="M110.893 26.7453C111.212 27.2969 111.522 27.8539 111.824 28.4161C111.276 28.0578 110.91 27.4448 110.893 26.7453Z" fill="white"/>
<path d="M99.6491 12.5677C100.606 13.4657 101.534 14.3939 102.432 15.3509C102.085 15.9926 101.406 16.4286 100.625 16.4286C99.4908 16.4286 98.5714 15.5092 98.5714 14.375C98.5714 13.5941 99.0073 12.9149 99.6491 12.5677Z" fill="white"/>
<path d="M86.5839 3.1764C87.1461 3.47804 87.7031 3.78815 88.2547 4.10657C87.5552 4.09025 86.9422 3.72415 86.5839 3.1764Z" fill="white"/>
<path d="M26.7453 4.10657C27.2969 3.78815 27.8539 3.47804 28.4161 3.1764C28.0578 3.72415 27.4448 4.09025 26.7453 4.10657Z" fill="white"/>
<path d="M12.5677 15.3509C13.4657 14.3939 14.3939 13.4657 15.3509 12.5677C15.9926 12.9149 16.4286 13.5941 16.4286 14.375C16.4286 15.5092 15.5092 16.4286 14.375 16.4286C13.5941 16.4286 12.9149 15.9926 12.5677 15.3509Z" fill="white"/>
<path d="M3.1764 28.4161C3.47804 27.8539 3.78815 27.2969 4.10657 26.7453C4.09025 27.4448 3.72415 28.0578 3.1764 28.4161Z" fill="white"/>
<path d="M111.824 86.5839C111.522 87.1461 111.212 87.7031 110.893 88.2547C110.91 87.5552 111.276 86.9422 111.824 86.5839Z" fill="white"/>
<path d="M102.432 99.6491C102.085 99.0073 101.406 98.5714 100.625 98.5714C99.4908 98.5714 98.5714 99.4908 98.5714 100.625C98.5714 101.406 99.0073 102.085 99.6491 102.432C100.606 101.534 101.534 100.606 102.432 99.6491Z" fill="white"/>
<path d="M88.2547 110.893C87.5552 110.91 86.9422 111.276 86.5839 111.824C87.1461 111.522 87.7031 111.212 88.2547 110.893Z" fill="white"/>
<path d="M28.4161 111.824C28.0578 111.276 27.4448 110.91 26.7453 110.893C27.2969 111.212 27.8539 111.522 28.4161 111.824Z" fill="white"/>
<path d="M15.3509 102.432C15.9926 102.085 16.4286 101.406 16.4286 100.625C16.4286 99.4908 15.5092 98.5714 14.375 98.5714C13.5941 98.5714 12.9149 99.0073 12.5677 99.6491C13.4657 100.606 14.3939 101.534 15.3509 102.432Z" fill="white"/>
<path d="M4.10657 88.2547C4.09025 87.5552 3.72415 86.9422 3.1764 86.5839C3.47804 87.1461 3.78815 87.7031 4.10657 88.2547Z" fill="white"/>
<path d="M41.0714 2.05357C41.0714 3.18773 40.152 4.10714 39.0179 4.10714C37.8837 4.10714 36.9643 3.18773 36.9643 2.05357C36.9643 0.919415 37.8837 0 39.0179 0C40.152 0 41.0714 0.919415 41.0714 2.05357Z" fill="white"/>
<path d="M53.3929 2.05357C53.3929 3.18773 52.4734 4.10714 51.3393 4.10714C50.2051 4.10714 49.2857 3.18773 49.2857 2.05357C49.2857 0.919415 50.2051 0 51.3393 0C52.4734 0 53.3929 0.919415 53.3929 2.05357Z" fill="white"/>
<path d="M65.7143 2.05357C65.7143 3.18773 64.7949 4.10714 63.6607 4.10714C62.5266 4.10714 61.6071 3.18773 61.6071 2.05357C61.6071 0.919415 62.5266 0 63.6607 0C64.7949 0 65.7143 0.919415 65.7143 2.05357Z" fill="white"/>
<path d="M78.0357 2.05357C78.0357 3.18773 77.1163 4.10714 75.9821 4.10714C74.848 4.10714 73.9286 3.18773 73.9286 2.05357C73.9286 0.919415 74.848 0 75.9821 0C77.1163 0 78.0357 0.919415 78.0357 2.05357Z" fill="white"/>
<path d="M28.75 14.375C28.75 15.5092 27.8306 16.4286 26.6964 16.4286C25.5623 16.4286 24.6429 15.5092 24.6429 14.375C24.6429 13.2408 25.5623 12.3214 26.6964 12.3214C27.8306 12.3214 28.75 13.2408 28.75 14.375Z" fill="white"/>
<path d="M41.0714 14.375C41.0714 15.5092 40.152 16.4286 39.0179 16.4286C37.8837 16.4286 36.9643 15.5092 36.9643 14.375C36.9643 13.2408 37.8837 12.3214 39.0179 12.3214C40.152 12.3214 41.0714 13.2408 41.0714 14.375Z" fill="white"/>
<path d="M53.3929 14.375C53.3929 15.5092 52.4734 16.4286 51.3393 16.4286C50.2051 16.4286 49.2857 15.5092 49.2857 14.375C49.2857 13.2408 50.2051 12.3214 51.3393 12.3214C52.4734 12.3214 53.3929 13.2408 53.3929 14.375Z" fill="white"/>
<path d="M65.7143 14.375C65.7143 15.5092 64.7949 16.4286 63.6607 16.4286C62.5266 16.4286 61.6071 15.5092 61.6071 14.375C61.6071 13.2408 62.5266 12.3214 63.6607 12.3214C64.7949 12.3214 65.7143 13.2408 65.7143 14.375Z" fill="white"/>
<path d="M78.0357 14.375C78.0357 15.5092 77.1163 16.4286 75.9821 16.4286C74.848 16.4286 73.9286 15.5092 73.9286 14.375C73.9286 13.2408 74.848 12.3214 75.9821 12.3214C77.1163 12.3214 78.0357 13.2408 78.0357 14.375Z" fill="white"/>
<path d="M90.3571 14.375C90.3571 15.5092 89.4377 16.4286 88.3036 16.4286C87.1694 16.4286 86.25 15.5092 86.25 14.375C86.25 13.2408 87.1694 12.3214 88.3036 12.3214C89.4377 12.3214 90.3571 13.2408 90.3571 14.375Z" fill="white"/>
<path d="M16.4286 26.6964C16.4286 27.8306 15.5092 28.75 14.375 28.75C13.2408 28.75 12.3214 27.8306 12.3214 26.6964C12.3214 25.5623 13.2408 24.6429 14.375 24.6429C15.5092 24.6429 16.4286 25.5623 16.4286 26.6964Z" fill="white"/>
<path d="M28.75 26.6964C28.75 27.8306 27.8306 28.75 26.6964 28.75C25.5623 28.75 24.6429 27.8306 24.6429 26.6964C24.6429 25.5623 25.5623 24.6429 26.6964 24.6429C27.8306 24.6429 28.75 25.5623 28.75 26.6964Z" fill="white"/>
<path d="M41.0714 26.6964C41.0714 27.8306 40.152 28.75 39.0179 28.75C37.8837 28.75 36.9643 27.8306 36.9643 26.6964C36.9643 25.5623 37.8837 24.6429 39.0179 24.6429C40.152 24.6429 41.0714 25.5623 41.0714 26.6964Z" fill="white"/>
<path d="M53.3929 26.6964C53.3929 27.8306 52.4734 28.75 51.3393 28.75C50.2051 28.75 49.2857 27.8306 49.2857 26.6964C49.2857 25.5623 50.2051 24.6429 51.3393 24.6429C52.4734 24.6429 53.3929 25.5623 53.3929 26.6964Z" fill="white"/>
<path d="M65.7143 26.6964C65.7143 27.8306 64.7949 28.75 63.6607 28.75C62.5266 28.75 61.6071 27.8306 61.6071 26.6964C61.6071 25.5623 62.5266 24.6429 63.6607 24.6429C64.7949 24.6429 65.7143 25.5623 65.7143 26.6964Z" fill="white"/>
<path d="M78.0357 26.6964C78.0357 27.8306 77.1163 28.75 75.9821 28.75C74.848 28.75 73.9286 27.8306 73.9286 26.6964C73.9286 25.5623 74.848 24.6429 75.9821 24.6429C77.1163 24.6429 78.0357 25.5623 78.0357 26.6964Z" fill="white"/>
<path d="M90.3571 26.6964C90.3571 27.8306 89.4377 28.75 88.3036 28.75C87.1694 28.75 86.25 27.8306 86.25 26.6964C86.25 25.5623 87.1694 24.6429 88.3036 24.6429C89.4377 24.6429 90.3571 25.5623 90.3571 26.6964Z" fill="white"/>
<path d="M102.679 26.6964C102.679 27.8306 101.759 28.75 100.625 28.75C99.4908 28.75 98.5714 27.8306 98.5714 26.6964C98.5714 25.5623 99.4908 24.6429 100.625 24.6429C101.759 24.6429 102.679 25.5623 102.679 26.6964Z" fill="white"/>
<path d="M4.10714 39.0179C4.10714 40.152 3.18773 41.0714 2.05357 41.0714C0.919415 41.0714 0 40.152 0 39.0179C0 37.8837 0.919415 36.9643 2.05357 36.9643C3.18773 36.9643 4.10714 37.8837 4.10714 39.0179Z" fill="white"/>
<path d="M16.4286 39.0179C16.4286 40.152 15.5092 41.0714 14.375 41.0714C13.2408 41.0714 12.3214 40.152 12.3214 39.0179C12.3214 37.8837 13.2408 36.9643 14.375 36.9643C15.5092 36.9643 16.4286 37.8837 16.4286 39.0179Z" fill="white"/>
<path d="M28.75 39.0179C28.75 40.152 27.8306 41.0714 26.6964 41.0714C25.5623 41.0714 24.6429 40.152 24.6429 39.0179C24.6429 37.8837 25.5623 36.9643 26.6964 36.9643C27.8306 36.9643 28.75 37.8837 28.75 39.0179Z" fill="white"/>
<path d="M41.0714 39.0179C41.0714 40.152 40.152 41.0714 39.0179 41.0714C37.8837 41.0714 36.9643 40.152 36.9643 39.0179C36.9643 37.8837 37.8837 36.9643 39.0179 36.9643C40.152 36.9643 41.0714 37.8837 41.0714 39.0179Z" fill="white"/>
<path d="M53.3929 39.0179C53.3929 40.152 52.4734 41.0714 51.3393 41.0714C50.2051 41.0714 49.2857 40.152 49.2857 39.0179C49.2857 37.8837 50.2051 36.9643 51.3393 36.9643C52.4734 36.9643 53.3929 37.8837 53.3929 39.0179Z" fill="white"/>
<path d="M65.7143 39.0179C65.7143 40.152 64.7949 41.0714 63.6607 41.0714C62.5266 41.0714 61.6071 40.152 61.6071 39.0179C61.6071 37.8837 62.5266 36.9643 63.6607 36.9643C64.7949 36.9643 65.7143 37.8837 65.7143 39.0179Z" fill="white"/>
<path d="M78.0357 39.0179C78.0357 40.152 77.1163 41.0714 75.9821 41.0714C74.848 41.0714 73.9286 40.152 73.9286 39.0179C73.9286 37.8837 74.848 36.9643 75.9821 36.9643C77.1163 36.9643 78.0357 37.8837 78.0357 39.0179Z" fill="white"/>
<path d="M90.3571 39.0179C90.3571 40.152 89.4377 41.0714 88.3036 41.0714C87.1694 41.0714 86.25 40.152 86.25 39.0179C86.25 37.8837 87.1694 36.9643 88.3036 36.9643C89.4377 36.9643 90.3571 37.8837 90.3571 39.0179Z" fill="white"/>
<path d="M102.679 39.0179C102.679 40.152 101.759 41.0714 100.625 41.0714C99.4908 41.0714 98.5714 40.152 98.5714 39.0179C98.5714 37.8837 99.4908 36.9643 100.625 36.9643C101.759 36.9643 102.679 37.8837 102.679 39.0179Z" fill="white"/>
<path d="M115 39.0179C115 40.152 114.081 41.0714 112.946 41.0714C111.812 41.0714 110.893 40.152 110.893 39.0179C110.893 37.8837 111.812 36.9643 112.946 36.9643C114.081 36.9643 115 37.8837 115 39.0179Z" fill="white"/>
<path d="M4.10714 51.3393C4.10714 52.4734 3.18773 53.3929 2.05357 53.3929C0.919415 53.3929 0 52.4734 0 51.3393C0 50.2051 0.919415 49.2857 2.05357 49.2857C3.18773 49.2857 4.10714 50.2051 4.10714 51.3393Z" fill="white"/>
<path d="M16.4286 51.3393C16.4286 52.4734 15.5092 53.3929 14.375 53.3929C13.2408 53.3929 12.3214 52.4734 12.3214 51.3393C12.3214 50.2051 13.2408 49.2857 14.375 49.2857C15.5092 49.2857 16.4286 50.2051 16.4286 51.3393Z" fill="white"/>
<path d="M28.75 51.3393C28.75 52.4734 27.8306 53.3929 26.6964 53.3929C25.5623 53.3929 24.6429 52.4734 24.6429 51.3393C24.6429 50.2051 25.5623 49.2857 26.6964 49.2857C27.8306 49.2857 28.75 50.2051 28.75 51.3393Z" fill="white"/>
<path d="M41.0714 51.3393C41.0714 52.4734 40.152 53.3929 39.0179 53.3929C37.8837 53.3929 36.9643 52.4734 36.9643 51.3393C36.9643 50.2051 37.8837 49.2857 39.0179 49.2857C40.152 49.2857 41.0714 50.2051 41.0714 51.3393Z" fill="white"/>
<path d="M53.3929 51.3393C53.3929 52.4734 52.4734 53.3929 51.3393 53.3929C50.2051 53.3929 49.2857 52.4734 49.2857 51.3393C49.2857 50.2051 50.2051 49.2857 51.3393 49.2857C52.4734 49.2857 53.3929 50.2051 53.3929 51.3393Z" fill="white"/>
<path d="M65.7143 51.3393C65.7143 52.4734 64.7949 53.3929 63.6607 53.3929C62.5266 53.3929 61.6071 52.4734 61.6071 51.3393C61.6071 50.2051 62.5266 49.2857 63.6607 49.2857C64.7949 49.2857 65.7143 50.2051 65.7143 51.3393Z" fill="white"/>
<path d="M78.0357 51.3393C78.0357 52.4734 77.1163 53.3929 75.9821 53.3929C74.848 53.3929 73.9286 52.4734 73.9286 51.3393C73.9286 50.2051 74.848 49.2857 75.9821 49.2857C77.1163 49.2857 78.0357 50.2051 78.0357 51.3393Z" fill="white"/>
<path d="M90.3571 51.3393C90.3571 52.4734 89.4377 53.3929 88.3036 53.3929C87.1694 53.3929 86.25 52.4734 86.25 51.3393C86.25 50.2051 87.1694 49.2857 88.3036 49.2857C89.4377 49.2857 90.3571 50.2051 90.3571 51.3393Z" fill="white"/>
<path d="M102.679 51.3393C102.679 52.4734 101.759 53.3929 100.625 53.3929C99.4908 53.3929 98.5714 52.4734 98.5714 51.3393C98.5714 50.2051 99.4908 49.2857 100.625 49.2857C101.759 49.2857 102.679 50.2051 102.679 51.3393Z" fill="white"/>
<path d="M115 51.3393C115 52.4734 114.081 53.3929 112.946 53.3929C111.812 53.3929 110.893 52.4734 110.893 51.3393C110.893 50.2051 111.812 49.2857 112.946 49.2857C114.081 49.2857 115 50.2051 115 51.3393Z" fill="white"/>
<path d="M4.10714 63.6607C4.10714 64.7949 3.18773 65.7143 2.05357 65.7143C0.919415 65.7143 0 64.7949 0 63.6607C0 62.5266 0.919415 61.6071 2.05357 61.6071C3.18773 61.6071 4.10714 62.5266 4.10714 63.6607Z" fill="white"/>
<path d="M16.4286 63.6607C16.4286 64.7949 15.5092 65.7143 14.375 65.7143C13.2408 65.7143 12.3214 64.7949 12.3214 63.6607C12.3214 62.5266 13.2408 61.6071 14.375 61.6071C15.5092 61.6071 16.4286 62.5266 16.4286 63.6607Z" fill="white"/>
<path d="M28.75 63.6607C28.75 64.7949 27.8306 65.7143 26.6964 65.7143C25.5623 65.7143 24.6429 64.7949 24.6429 63.6607C24.6429 62.5266 25.5623 61.6071 26.6964 61.6071C27.8306 61.6071 28.75 62.5266 28.75 63.6607Z" fill="white"/>
<path d="M41.0714 63.6607C41.0714 64.7949 40.152 65.7143 39.0179 65.7143C37.8837 65.7143 36.9643 64.7949 36.9643 63.6607C36.9643 62.5266 37.8837 61.6071 39.0179 61.6071C40.152 61.6071 41.0714 62.5266 41.0714 63.6607Z" fill="white"/>
<path d="M53.3929 63.6607C53.3929 64.7949 52.4734 65.7143 51.3393 65.7143C50.2051 65.7143 49.2857 64.7949 49.2857 63.6607C49.2857 62.5266 50.2051 61.6071 51.3393 61.6071C52.4734 61.6071 53.3929 62.5266 53.3929 63.6607Z" fill="white"/>
<path d="M65.7143 63.6607C65.7143 64.7949 64.7949 65.7143 63.6607 65.7143C62.5266 65.7143 61.6071 64.7949 61.6071 63.6607C61.6071 62.5266 62.5266 61.6071 63.6607 61.6071C64.7949 61.6071 65.7143 62.5266 65.7143 63.6607Z" fill="white"/>
<path d="M78.0357 63.6607C78.0357 64.7949 77.1163 65.7143 75.9821 65.7143C74.848 65.7143 73.9286 64.7949 73.9286 63.6607C73.9286 62.5266 74.848 61.6071 75.9821 61.6071C77.1163 61.6071 78.0357 62.5266 78.0357 63.6607Z" fill="white"/>
<path d="M90.3571 63.6607C90.3571 64.7949 89.4377 65.7143 88.3036 65.7143C87.1694 65.7143 86.25 64.7949 86.25 63.6607C86.25 62.5266 87.1694 61.6071 88.3036 61.6071C89.4377 61.6071 90.3571 62.5266 90.3571 63.6607Z" fill="white"/>
<path d="M102.679 63.6607C102.679 64.7949 101.759 65.7143 100.625 65.7143C99.4908 65.7143 98.5714 64.7949 98.5714 63.6607C98.5714 62.5266 99.4908 61.6071 100.625 61.6071C101.759 61.6071 102.679 62.5266 102.679 63.6607Z" fill="white"/>
<path d="M115 63.6607C115 64.7949 114.081 65.7143 112.946 65.7143C111.812 65.7143 110.893 64.7949 110.893 63.6607C110.893 62.5266 111.812 61.6071 112.946 61.6071C114.081 61.6071 115 62.5266 115 63.6607Z" fill="white"/>
<path d="M4.10714 75.9821C4.10714 77.1163 3.18773 78.0357 2.05357 78.0357C0.919415 78.0357 0 77.1163 0 75.9821C0 74.848 0.919415 73.9286 2.05357 73.9286C3.18773 73.9286 4.10714 74.848 4.10714 75.9821Z" fill="white"/>
<path d="M16.4286 75.9821C16.4286 77.1163 15.5092 78.0357 14.375 78.0357C13.2408 78.0357 12.3214 77.1163 12.3214 75.9821C12.3214 74.848 13.2408 73.9286 14.375 73.9286C15.5092 73.9286 16.4286 74.848 16.4286 75.9821Z" fill="white"/>
<path d="M28.75 75.9821C28.75 77.1163 27.8306 78.0357 26.6964 78.0357C25.5623 78.0357 24.6429 77.1163 24.6429 75.9821C24.6429 74.848 25.5623 73.9286 26.6964 73.9286C27.8306 73.9286 28.75 74.848 28.75 75.9821Z" fill="white"/>
<path d="M41.0714 75.9821C41.0714 77.1163 40.152 78.0357 39.0179 78.0357C37.8837 78.0357 36.9643 77.1163 36.9643 75.9821C36.9643 74.848 37.8837 73.9286 39.0179 73.9286C40.152 73.9286 41.0714 74.848 41.0714 75.9821Z" fill="white"/>
<path d="M53.3929 75.9821C53.3929 77.1163 52.4734 78.0357 51.3393 78.0357C50.2051 78.0357 49.2857 77.1163 49.2857 75.9821C49.2857 74.848 50.2051 73.9286 51.3393 73.9286C52.4734 73.9286 53.3929 74.848 53.3929 75.9821Z" fill="white"/>
<path d="M65.7143 75.9821C65.7143 77.1163 64.7949 78.0357 63.6607 78.0357C62.5266 78.0357 61.6071 77.1163 61.6071 75.9821C61.6071 74.848 62.5266 73.9286 63.6607 73.9286C64.7949 73.9286 65.7143 74.848 65.7143 75.9821Z" fill="white"/>
<path d="M78.0357 75.9821C78.0357 77.1163 77.1163 78.0357 75.9821 78.0357C74.848 78.0357 73.9286 77.1163 73.9286 75.9821C73.9286 74.848 74.848 73.9286 75.9821 73.9286C77.1163 73.9286 78.0357 74.848 78.0357 75.9821Z" fill="white"/>
<path d="M90.3571 75.9821C90.3571 77.1163 89.4377 78.0357 88.3036 78.0357C87.1694 78.0357 86.25 77.1163 86.25 75.9821C86.25 74.848 87.1694 73.9286 88.3036 73.9286C89.4377 73.9286 90.3571 74.848 90.3571 75.9821Z" fill="white"/>
<path d="M102.679 75.9821C102.679 77.1163 101.759 78.0357 100.625 78.0357C99.4908 78.0357 98.5714 77.1163 98.5714 75.9821C98.5714 74.848 99.4908 73.9286 100.625 73.9286C101.759 73.9286 102.679 74.848 102.679 75.9821Z" fill="white"/>
<path d="M115 75.9821C115 77.1163 114.081 78.0357 112.946 78.0357C111.812 78.0357 110.893 77.1163 110.893 75.9821C110.893 74.848 111.812 73.9286 112.946 73.9286C114.081 73.9286 115 74.848 115 75.9821Z" fill="white"/>
<path d="M16.4286 88.3036C16.4286 89.4377 15.5092 90.3571 14.375 90.3571C13.2408 90.3571 12.3214 89.4377 12.3214 88.3036C12.3214 87.1694 13.2408 86.25 14.375 86.25C15.5092 86.25 16.4286 87.1694 16.4286 88.3036Z" fill="white"/>
<path d="M28.75 88.3036C28.75 89.4377 27.8306 90.3571 26.6964 90.3571C25.5623 90.3571 24.6429 89.4377 24.6429 88.3036C24.6429 87.1694 25.5623 86.25 26.6964 86.25C27.8306 86.25 28.75 87.1694 28.75 88.3036Z" fill="white"/>
<path d="M41.0714 88.3036C41.0714 89.4377 40.152 90.3571 39.0179 90.3571C37.8837 90.3571 36.9643 89.4377 36.9643 88.3036C36.9643 87.1694 37.8837 86.25 39.0179 86.25C40.152 86.25 41.0714 87.1694 41.0714 88.3036Z" fill="white"/>
<path d="M53.3929 88.3036C53.3929 89.4377 52.4734 90.3571 51.3393 90.3571C50.2051 90.3571 49.2857 89.4377 49.2857 88.3036C49.2857 87.1694 50.2051 86.25 51.3393 86.25C52.4734 86.25 53.3929 87.1694 53.3929 88.3036Z" fill="white"/>
<path d="M65.7143 88.3036C65.7143 89.4377 64.7949 90.3571 63.6607 90.3571C62.5266 90.3571 61.6071 89.4377 61.6071 88.3036C61.6071 87.1694 62.5266 86.25 63.6607 86.25C64.7949 86.25 65.7143 87.1694 65.7143 88.3036Z" fill="white"/>
<path d="M78.0357 88.3036C78.0357 89.4377 77.1163 90.3571 75.9821 90.3571C74.848 90.3571 73.9286 89.4377 73.9286 88.3036C73.9286 87.1694 74.848 86.25 75.9821 86.25C77.1163 86.25 78.0357 87.1694 78.0357 88.3036Z" fill="white"/>
<path d="M90.3571 88.3036C90.3571 89.4377 89.4377 90.3571 88.3036 90.3571C87.1694 90.3571 86.25 89.4377 86.25 88.3036C86.25 87.1694 87.1694 86.25 88.3036 86.25C89.4377 86.25 90.3571 87.1694 90.3571 88.3036Z" fill="white"/>
<path d="M102.679 88.3036C102.679 89.4377 101.759 90.3571 100.625 90.3571C99.4908 90.3571 98.5714 89.4377 98.5714 88.3036C98.5714 87.1694 99.4908 86.25 100.625 86.25C101.759 86.25 102.679 87.1694 102.679 88.3036Z" fill="white"/>
<path d="M28.75 100.625C28.75 101.759 27.8306 102.679 26.6964 102.679C25.5623 102.679 24.6429 101.759 24.6429 100.625C24.6429 99.4908 25.5623 98.5714 26.6964 98.5714C27.8306 98.5714 28.75 99.4908 28.75 100.625Z" fill="white"/>
<path d="M41.0714 100.625C41.0714 101.759 40.152 102.679 39.0179 102.679C37.8837 102.679 36.9643 101.759 36.9643 100.625C36.9643 99.4908 37.8837 98.5714 39.0179 98.5714C40.152 98.5714 41.0714 99.4908 41.0714 100.625Z" fill="white"/>
<path d="M53.3929 100.625C53.3929 101.759 52.4734 102.679 51.3393 102.679C50.2051 102.679 49.2857 101.759 49.2857 100.625C49.2857 99.4908 50.2051 98.5714 51.3393 98.5714C52.4734 98.5714 53.3929 99.4908 53.3929 100.625Z" fill="white"/>
<path d="M65.7143 100.625C65.7143 101.759 64.7949 102.679 63.6607 102.679C62.5266 102.679 61.6071 101.759 61.6071 100.625C61.6071 99.4908 62.5266 98.5714 63.6607 98.5714C64.7949 98.5714 65.7143 99.4908 65.7143 100.625Z" fill="white"/>
<path d="M78.0357 100.625C78.0357 101.759 77.1163 102.679 75.9821 102.679C74.848 102.679 73.9286 101.759 73.9286 100.625C73.9286 99.4908 74.848 98.5714 75.9821 98.5714C77.1163 98.5714 78.0357 99.4908 78.0357 100.625Z" fill="white"/>
<path d="M90.3571 100.625C90.3571 101.759 89.4377 102.679 88.3036 102.679C87.1694 102.679 86.25 101.759 86.25 100.625C86.25 99.4908 87.1694 98.5714 88.3036 98.5714C89.4377 98.5714 90.3571 99.4908 90.3571 100.625Z" fill="white"/>
<path d="M41.0714 112.946C41.0714 114.081 40.152 115 39.0179 115C37.8837 115 36.9643 114.081 36.9643 112.946C36.9643 111.812 37.8837 110.893 39.0179 110.893C40.152 110.893 41.0714 111.812 41.0714 112.946Z" fill="white"/>
<path d="M53.3929 112.946C53.3929 114.081 52.4734 115 51.3393 115C50.2051 115 49.2857 114.081 49.2857 112.946C49.2857 111.812 50.2051 110.893 51.3393 110.893C52.4734 110.893 53.3929 111.812 53.3929 112.946Z" fill="white"/>
<path d="M65.7143 112.946C65.7143 114.081 64.7949 115 63.6607 115C62.5266 115 61.6071 114.081 61.6071 112.946C61.6071 111.812 62.5266 110.893 63.6607 110.893C64.7949 110.893 65.7143 111.812 65.7143 112.946Z" fill="white"/>
<path d="M78.0357 112.946C78.0357 114.081 77.1163 115 75.9821 115C74.848 115 73.9286 114.081 73.9286 112.946C73.9286 111.812 74.848 110.893 75.9821 110.893C77.1163 110.893 78.0357 111.812 78.0357 112.946Z" fill="white"/>
</svg>
