<svg width="27" height="25" viewBox="0 0 27 25" fill="none" xmlns="http://www.w3.org/2000/svg">
<path d="M12.0918 9.60171L12.092 9.60179L13.0461 10.0171L13.1628 8.98304L13.1628 8.98284L13.1628 8.98272L13.1629 8.98239L13.1632 8.97921L13.1655 8.96094C13.1676 8.94385 13.1711 8.91707 13.176 8.88133C13.1859 8.80983 13.2018 8.70257 13.225 8.56529C13.2713 8.29047 13.3466 7.89683 13.4614 7.42982C13.6922 6.49075 14.0766 5.27941 14.6905 4.14529C15.3063 3.00773 16.1258 1.99752 17.2036 1.38815C18.2584 0.791784 19.6353 0.536206 21.4753 1.03115C22.7424 1.37197 23.6566 1.96436 24.3144 2.72078C24.9769 3.48256 25.4127 4.44939 25.656 5.58313C26.1472 7.87217 25.8308 10.7323 25.1418 13.595C24.457 16.4404 23.4251 19.2048 22.56 21.265C22.1282 22.2932 21.7397 23.1418 21.4598 23.7323C21.3685 23.9246 21.2889 24.0895 21.223 24.2242C21.071 24.2209 20.8847 24.2159 20.6679 24.2083C20.0093 24.1853 19.0701 24.1387 17.9527 24.0445C15.7131 23.8558 12.7782 23.4773 9.95794 22.7221C7.11956 21.9621 4.48955 20.8441 2.77801 19.233C1.93174 18.4364 1.32281 17.5314 1.01021 16.497C0.698355 15.4652 0.666591 14.2559 1.04863 12.8245C1.53942 10.9857 2.44883 9.92194 3.49267 9.30692C4.55932 8.67846 5.84418 8.47357 7.13747 8.50864C8.42683 8.5436 9.66834 8.81569 10.5972 9.0848C11.0591 9.21863 11.4377 9.34998 11.699 9.44706C11.8295 9.49556 11.9303 9.53537 11.9972 9.56248C12.0307 9.57604 12.0556 9.5864 12.0715 9.59308L12.0884 9.60027L12.0914 9.60153L12.0917 9.60167L12.0918 9.60171Z" stroke="white" stroke-width="1.5333"/>
</svg>
