<svg width="44" height="30" viewBox="0 0 44 30" fill="none" xmlns="http://www.w3.org/2000/svg">
<path fill-rule="evenodd" clip-rule="evenodd" d="M12.7452 0.278539C13.2303 0.694357 13.2865 1.42471 12.8707 1.90983L2.59233 13.9013C2.22097 14.3345 2.22097 14.9738 2.59233 15.4071L12.8707 27.3985C13.2865 27.8836 13.2303 28.614 12.7452 29.0298C12.2601 29.4456 11.5297 29.3894 11.1139 28.9043L0.835554 16.9129C-0.278516 15.6131 -0.278519 13.6952 0.835552 12.3955L11.1139 0.404023C11.5297 -0.0810981 12.2601 -0.137279 12.7452 0.278539ZM28.1706 0.278539C28.6558 0.694357 28.7119 1.42471 28.2961 1.90983L18.0178 13.9013C17.6464 14.3345 17.6464 14.9738 18.0178 15.4071L28.2961 27.3985C28.7119 27.8836 28.6558 28.614 28.1706 29.0298C27.6855 29.4456 26.9552 29.3894 26.5393 28.9043L16.261 16.9129C15.1469 15.6131 15.1469 13.6952 16.261 12.3955L26.5393 0.404023C26.9552 -0.0810981 27.6855 -0.137279 28.1706 0.278539ZM43.7215 1.90983C44.1374 1.42471 44.0812 0.694357 43.5961 0.278539C43.1109 -0.137279 42.3806 -0.0810981 41.9648 0.404023L31.6864 12.3955C30.5723 13.6952 30.5723 15.6131 31.6864 16.9129L41.9648 28.9043C42.3806 29.3894 43.1109 29.4456 43.5961 29.0298C44.0812 28.614 44.1374 27.8836 43.7215 27.3985L33.4432 15.4071C33.0718 14.9738 33.0718 14.3345 33.4432 13.9013L43.7215 1.90983Z" fill="white"/>
</svg>
