<svg width="117" height="60" viewBox="0 0 117 60" fill="none" xmlns="http://www.w3.org/2000/svg">
<path fill-rule="evenodd" clip-rule="evenodd" d="M29.7187 0L30.6562 0.525004L44.1094 8.05875L57.5625 0.525004L58.5 0L59.4375 0.525004L72.8906 8.05874L86.3437 0.525004L87.2812 0L88.2187 0.525004L101.672 8.05874L115.125 0.525004L117 3.87324L102.609 11.932L101.672 12.457L100.734 11.932L87.2812 4.39825L73.8281 11.932L72.8906 12.457L71.9531 11.932L58.5 4.39825L45.0469 11.932L44.1094 12.457L43.1719 11.932L29.7187 4.39825L16.2656 11.932L15.3281 12.457L14.3906 11.932L0 3.87324L1.87501 0.525004L15.3281 8.05875L28.7812 0.525004L29.7187 0ZM29.7187 23.4087L30.6562 23.9337L44.1094 31.4675L57.5625 23.9337L58.5 23.4087L59.4375 23.9337L72.8906 31.4675L86.3437 23.9337L87.2812 23.4087L88.2187 23.9337L101.672 31.4675L115.125 23.9337L117 27.282L102.609 35.3407L101.672 35.8657L100.734 35.3407L87.2812 27.807L73.8281 35.3407L72.8906 35.8657L71.9531 35.3407L58.5 27.807L45.0469 35.3407L44.1094 35.8657L43.1719 35.3407L29.7187 27.807L16.2656 35.3407L15.3281 35.8657L14.3906 35.3407L0 27.282L1.87501 23.9337L15.3281 31.4675L28.7812 23.9337L29.7187 23.4087ZM30.6562 47.3425L29.7187 46.8175L28.7812 47.3425L15.3281 54.8762L1.87501 47.3425L0 50.6907L14.3906 58.7495L15.3281 59.2745L16.2656 58.7495L29.7187 51.2157L43.1719 58.7495L44.1094 59.2745L45.0469 58.7495L58.5 51.2157L71.9531 58.7495L72.8906 59.2745L73.8281 58.7495L87.2812 51.2157L100.734 58.7495L101.672 59.2745L102.609 58.7495L117 50.6907L115.125 47.3425L101.672 54.8762L88.2187 47.3425L87.2812 46.8175L86.3437 47.3425L72.8906 54.8762L59.4375 47.3425L58.5 46.8175L57.5625 47.3425L44.1094 54.8762L30.6562 47.3425Z" fill="white"/>
</svg>
