<svg width="115" height="115" viewBox="0 0 115 115" fill="none" xmlns="http://www.w3.org/2000/svg">
<path fill-rule="evenodd" clip-rule="evenodd" d="M57.5 39.9834C47.8259 39.9834 39.9834 47.8259 39.9834 57.5C39.9834 67.1741 47.8259 75.0166 57.5 75.0166C67.1741 75.0166 75.0166 67.1741 75.0166 57.5C75.0166 47.8259 67.1741 39.9834 57.5 39.9834ZM40.745 57.5C40.745 48.2465 48.2465 40.745 57.5 40.745C66.7535 40.745 74.255 48.2465 74.255 57.5C74.255 66.7535 66.7535 74.255 57.5 74.255C48.2465 74.255 40.745 66.7535 40.745 57.5Z" fill="white"/>
<path fill-rule="evenodd" clip-rule="evenodd" d="M57.5 37.1275C46.2486 37.1275 37.1275 46.2486 37.1275 57.5C37.1275 68.7514 46.2486 77.8725 57.5 77.8725C68.7514 77.8725 77.8725 68.7514 77.8725 57.5C77.8725 46.2486 68.7514 37.1275 57.5 37.1275ZM37.8891 57.5C37.8891 46.6692 46.6692 37.8891 57.5 37.8891C68.3308 37.8891 77.1109 46.6692 77.1109 57.5C77.1109 68.3308 68.3308 77.1109 57.5 77.1109C46.6692 77.1109 37.8891 68.3308 37.8891 57.5Z" fill="white"/>
<path fill-rule="evenodd" clip-rule="evenodd" d="M34.2715 57.5C34.2715 44.6713 44.6713 34.2715 57.5 34.2715C70.3287 34.2715 80.7285 44.6713 80.7285 57.5C80.7285 70.3287 70.3287 80.7285 57.5 80.7285C44.6713 80.7285 34.2715 70.3287 34.2715 57.5ZM57.5 35.0331C45.0919 35.0331 35.0331 45.0919 35.0331 57.5C35.0331 69.9081 45.0919 79.9669 57.5 79.9669C69.9081 79.9669 79.9669 69.9081 79.9669 57.5C79.9669 45.0919 69.9081 35.0331 57.5 35.0331Z" fill="white"/>
<path fill-rule="evenodd" clip-rule="evenodd" d="M31.4156 57.5C31.4156 43.094 43.094 31.4156 57.5 31.4156C71.906 31.4156 83.5844 43.094 83.5844 57.5C83.5844 71.906 71.906 83.5844 57.5 83.5844C43.094 83.5844 31.4156 71.906 31.4156 57.5ZM57.5 32.1772C43.5146 32.1772 32.1772 43.5146 32.1772 57.5C32.1772 71.4854 43.5146 82.8228 57.5 82.8228C71.4854 82.8228 82.8228 71.4854 82.8228 57.5C82.8228 43.5146 71.4854 32.1772 57.5 32.1772Z" fill="white"/>
<path fill-rule="evenodd" clip-rule="evenodd" d="M28.5596 57.5C28.5596 41.5167 41.5167 28.5596 57.5 28.5596C73.4833 28.5596 86.4404 41.5167 86.4404 57.5C86.4404 73.4833 73.4833 86.4404 57.5 86.4404C41.5167 86.4404 28.5596 73.4833 28.5596 57.5ZM57.5 29.3212C41.9373 29.3212 29.3212 41.9373 29.3212 57.5C29.3212 73.0627 41.9373 85.6788 57.5 85.6788C73.0627 85.6788 85.6788 73.0627 85.6788 57.5C85.6788 41.9373 73.0627 29.3212 57.5 29.3212Z" fill="white"/>
<path fill-rule="evenodd" clip-rule="evenodd" d="M57.5 25.7036C39.9394 25.7036 25.7036 39.9394 25.7036 57.5C25.7036 75.0606 39.9394 89.2964 57.5 89.2964C75.0606 89.2964 89.2964 75.0606 89.2964 57.5C89.2964 39.9394 75.0606 25.7036 57.5 25.7036ZM26.4652 57.5C26.4652 40.36 40.36 26.4652 57.5 26.4652C74.64 26.4652 88.5348 40.36 88.5348 57.5C88.5348 74.64 74.64 88.5348 57.5 88.5348C40.36 88.5348 26.4652 74.64 26.4652 57.5Z" fill="white"/>
<path fill-rule="evenodd" clip-rule="evenodd" d="M22.8477 57.5C22.8477 38.3621 38.3621 22.8477 57.5 22.8477C76.6379 22.8477 92.1523 38.3621 92.1523 57.5C92.1523 76.6379 76.6379 92.1523 57.5 92.1523C38.3621 92.1523 22.8477 76.6379 22.8477 57.5ZM57.5 23.6093C38.7827 23.6093 23.6093 38.7827 23.6093 57.5C23.6093 76.2173 38.7827 91.3907 57.5 91.3907C76.2173 91.3907 91.3907 76.2173 91.3907 57.5C91.3907 38.7827 76.2173 23.6093 57.5 23.6093Z" fill="white"/>
<path fill-rule="evenodd" clip-rule="evenodd" d="M57.5 19.9917C36.7847 19.9917 19.9917 36.7847 19.9917 57.5C19.9917 78.2152 36.7847 95.0083 57.5 95.0083C78.2152 95.0083 95.0083 78.2152 95.0083 57.5C95.0083 36.7847 78.2152 19.9917 57.5 19.9917ZM20.7533 57.5C20.7533 37.2054 37.2054 20.7533 57.5 20.7533C77.7946 20.7533 94.2467 37.2054 94.2467 57.5C94.2467 77.7946 77.7946 94.2467 57.5 94.2467C37.2054 94.2467 20.7533 77.7946 20.7533 57.5Z" fill="white"/>
<path fill-rule="evenodd" clip-rule="evenodd" d="M17.1358 57.5C17.1358 35.2074 35.2074 17.1358 57.5 17.1358C79.7926 17.1358 97.8642 35.2074 97.8642 57.5C97.8642 79.7926 79.7926 97.8642 57.5 97.8642C35.2074 97.8642 17.1358 79.7926 17.1358 57.5ZM57.5 17.8974C35.6281 17.8974 17.8974 35.6281 17.8974 57.5C17.8974 79.3719 35.6281 97.1026 57.5 97.1026C79.3719 97.1026 97.1026 79.3719 97.1026 57.5C97.1026 35.6281 79.3719 17.8974 57.5 17.8974Z" fill="white"/>
<path fill-rule="evenodd" clip-rule="evenodd" d="M57.5 14.2798C33.6301 14.2798 14.2798 33.6301 14.2798 57.5C14.2798 81.3699 33.6301 100.72 57.5 100.72C81.3699 100.72 100.72 81.3699 100.72 57.5C100.72 33.6301 81.3699 14.2798 57.5 14.2798ZM15.0414 57.5C15.0414 34.0508 34.0508 15.0414 57.5 15.0414C80.9492 15.0414 99.9586 34.0508 99.9586 57.5C99.9586 80.9492 80.9492 99.9586 57.5 99.9586C34.0508 99.9586 15.0414 80.9492 15.0414 57.5Z" fill="white"/>
<path fill-rule="evenodd" clip-rule="evenodd" d="M11.4238 57.5C11.4238 32.0528 32.0528 11.4238 57.5 11.4238C82.9472 11.4238 103.576 32.0528 103.576 57.5C103.576 82.9472 82.9472 103.576 57.5 103.576C32.0528 103.576 11.4238 82.9472 11.4238 57.5ZM57.5 12.1854C32.4735 12.1854 12.1854 32.4735 12.1854 57.5C12.1854 82.5265 32.4735 102.815 57.5 102.815C82.5265 102.815 102.815 82.5265 102.815 57.5C102.815 32.4735 82.5265 12.1854 57.5 12.1854Z" fill="white"/>
<path fill-rule="evenodd" clip-rule="evenodd" d="M57.5 8.56788C30.4755 8.56788 8.56788 30.4755 8.56788 57.5C8.56788 84.5245 30.4755 106.432 57.5 106.432C84.5245 106.432 106.432 84.5245 106.432 57.5C106.432 30.4755 84.5245 8.56788 57.5 8.56788ZM9.32947 57.5C9.32947 30.8961 30.8961 9.32947 57.5 9.32947C84.1038 9.32947 105.671 30.8961 105.671 57.5C105.671 84.1038 84.1038 105.671 57.5 105.671C30.8961 105.671 9.32947 84.1038 9.32947 57.5Z" fill="white"/>
<path fill-rule="evenodd" clip-rule="evenodd" d="M5.71192 57.5C5.71192 28.8982 28.8982 5.71192 57.5 5.71192C86.1018 5.71192 109.288 28.8982 109.288 57.5C109.288 86.1018 86.1018 109.288 57.5 109.288C28.8982 109.288 5.71192 86.1018 5.71192 57.5ZM57.5 6.47351C29.3188 6.47351 6.47351 29.3188 6.47351 57.5C6.47351 85.6811 29.3188 108.526 57.5 108.526C85.6811 108.526 108.526 85.6811 108.526 57.5C108.526 29.3188 85.6811 6.47351 57.5 6.47351Z" fill="white"/>
<path fill-rule="evenodd" clip-rule="evenodd" d="M57.5 2.85596C27.3209 2.85596 2.85596 27.3209 2.85596 57.5C2.85596 87.6791 27.3209 112.144 57.5 112.144C87.6791 112.144 112.144 87.6791 112.144 57.5C112.144 27.3209 87.6791 2.85596 57.5 2.85596ZM3.61755 57.5C3.61755 27.7415 27.7415 3.61755 57.5 3.61755C87.2585 3.61755 111.382 27.7415 111.382 57.5C111.382 87.2585 87.2585 111.382 57.5 111.382C27.7415 111.382 3.61755 87.2585 3.61755 57.5Z" fill="white"/>
<path fill-rule="evenodd" clip-rule="evenodd" d="M0 57.5C0 25.7436 25.7436 0 57.5 0C89.2564 0 115 25.7436 115 57.5C115 89.2564 89.2564 115 57.5 115C25.7436 115 0 89.2564 0 57.5ZM57.5 0.761589C26.1642 0.761589 0.761589 26.1642 0.761589 57.5C0.761589 88.8358 26.1642 114.238 57.5 114.238C88.8358 114.238 114.238 88.8358 114.238 57.5C114.238 26.1642 88.8358 0.761589 57.5 0.761589Z" fill="white"/>
</svg>
