<svg width="115" height="111" viewBox="0 0 115 111" fill="none" xmlns="http://www.w3.org/2000/svg">
<path d="M34.9157 0.459682C35.2835 0.302722 35.6533 0.149478 36.025 0H78.9751C79.3468 0.149478 79.7166 0.302722 80.0844 0.459682H34.9157Z" fill="white"/>
<path d="M26.273 5.0565C26.5126 4.90154 26.7534 4.74831 26.9955 4.59682H88.0046C88.2466 4.74831 88.4875 4.90154 88.7271 5.0565H26.273Z" fill="white"/>
<path d="M20.109 9.65333C20.2895 9.499 20.471 9.34577 20.6534 9.19364H94.3467C94.5291 9.34577 94.7106 9.499 94.8911 9.65333H20.109Z" fill="white"/>
<path d="M15.3188 14.2501C15.4619 14.0961 15.6058 13.9429 15.7505 13.7905H99.2496C99.3943 13.9429 99.5382 14.0961 99.6813 14.2501H15.3188Z" fill="white"/>
<path d="M11.4727 18.847C11.5884 18.6931 11.7048 18.5399 11.822 18.3873H103.178C103.295 18.5399 103.412 18.6931 103.527 18.847H11.4727Z" fill="white"/>
<path d="M8.35102 23.4438C8.44489 23.2901 8.53945 23.1369 8.63472 22.9841H106.365C106.461 23.1369 106.555 23.2901 106.649 23.4438H8.35102Z" fill="white"/>
<path d="M5.82477 28.0406C5.90025 27.887 5.97639 27.7338 6.0532 27.5809H108.947C109.024 27.7338 109.1 27.887 109.175 28.0406H5.82477Z" fill="white"/>
<path d="M3.81168 32.6374C3.87102 32.4839 3.93101 32.3307 3.99163 32.1777H111.008C111.069 32.3307 111.129 32.4839 111.188 32.6374H3.81168Z" fill="white"/>
<path d="M2.25668 37.2343C2.30142 37.0808 2.34678 36.9275 2.39275 36.7746H112.607C112.653 36.9275 112.699 37.0808 112.743 37.2343H2.25668Z" fill="white"/>
<path d="M1.12189 41.8311C1.15308 41.6776 1.18487 41.5244 1.21728 41.3714H113.783C113.815 41.5244 113.847 41.6776 113.878 41.8311H1.12189Z" fill="white"/>
<path d="M0.381054 46.4279C0.399424 46.2745 0.418398 46.1213 0.437975 45.9682H114.562C114.582 46.1213 114.601 46.2745 114.619 46.4279H0.381054Z" fill="white"/>
<path d="M0.0162855 51.0247C0.0223264 50.8713 0.0289693 50.7181 0.0362118 50.565H114.964C114.971 50.7181 114.978 50.8713 114.984 51.0247H0.0162855Z" fill="white"/>
<path d="M0.0162855 55.6215C0.0102567 55.4685 0.00482743 55.3152 0 55.1619H115C114.995 55.3152 114.99 55.4685 114.984 55.6215H0.0162855Z" fill="white"/>
<path d="M0.381054 60.2184C0.36273 60.0653 0.345007 59.9121 0.32789 59.7587H114.672C114.655 59.9121 114.637 60.0653 114.619 60.2184H0.381054Z" fill="white"/>
<path d="M1.12189 64.8152C1.09079 64.6622 1.06031 64.509 1.03043 64.3555H113.97C113.94 64.509 113.909 64.6622 113.878 64.8152H1.12189Z" fill="white"/>
<path d="M2.25668 69.412C2.2121 69.259 2.16814 69.1058 2.12481 68.9523H112.875C112.832 69.1058 112.788 69.259 112.743 69.412H2.25668Z" fill="white"/>
<path d="M3.81168 74.0088C3.75259 73.8559 3.69413 73.7027 3.6363 73.5491H111.364C111.306 73.7027 111.247 73.8559 111.188 74.0088H3.81168Z" fill="white"/>
<path d="M5.82477 78.6056C5.74967 78.4528 5.67523 78.2996 5.60145 78.146H109.399C109.325 78.2996 109.25 78.4528 109.175 78.6056H5.82477Z" fill="white"/>
<path d="M8.35102 83.2025C8.25773 83.0497 8.16514 82.8965 8.07324 82.7428H106.927C106.835 82.8965 106.742 83.0497 106.649 83.2025H8.35102Z" fill="white"/>
<path d="M11.4727 87.7993C11.3579 87.6466 11.2438 87.4934 11.1305 87.3396H103.87C103.756 87.4934 103.642 87.6466 103.527 87.7993H11.4727Z" fill="white"/>
<path d="M15.3188 92.3961C15.1771 92.2436 15.0363 92.0904 14.8964 91.9364H100.104C99.9637 92.0904 99.8229 92.2436 99.6813 92.3961H15.3188Z" fill="white"/>
<path d="M20.109 96.9929C19.931 96.8408 19.754 96.6875 19.5779 96.5333H95.4221C95.2461 96.6875 95.069 96.8408 94.8911 96.9929H20.109Z" fill="white"/>
<path d="M26.273 101.59C26.0386 101.438 25.8054 101.285 25.5734 101.13H89.4266C89.1946 101.285 88.9614 101.438 88.7271 101.59H26.273Z" fill="white"/>
<path d="M34.9157 106.187C34.5645 106.037 34.2152 105.883 33.8677 105.727H81.1324C80.7849 105.883 80.4355 106.037 80.0844 106.187H34.9157Z" fill="white"/>
<path d="M64.8116 110.324C62.4172 110.627 59.9769 110.783 57.5 110.783C55.0232 110.783 52.5829 110.627 50.1885 110.324H64.8116Z" fill="white"/>
</svg>
