<svg width="58" height="35" viewBox="0 0 58 35" fill="none" xmlns="http://www.w3.org/2000/svg">
<path d="M0.131441 5.57018L0.263011 5.71183L0.263863 5.71104L0.266831 5.7083L0.278966 5.69712C0.289782 5.68718 0.306008 5.67233 0.327408 5.65289C0.370209 5.614 0.433701 5.55677 0.515994 5.4838C0.680592 5.33786 0.920336 5.12905 1.22011 4.87835C1.81987 4.37676 2.65887 3.70833 3.61634 3.04031C4.5744 2.37188 5.64746 1.70641 6.71559 1.2087C7.78659 0.709646 8.83712 0.386655 9.75429 0.386655C11.581 0.386655 12.9722 1.66593 14.4342 3.02342L14.4629 3.05013C15.8876 4.37314 17.3849 5.76351 19.3771 5.76351C21.3694 5.76351 22.8667 4.37314 24.2914 3.05013L24.3201 3.02342C25.782 1.66593 27.1733 0.386655 29 0.386655C30.8267 0.386655 32.218 1.66593 33.6799 3.02342L33.7086 3.05014C35.1333 4.37314 36.6306 5.76351 38.6229 5.76351C40.6152 5.76351 42.1124 4.37314 43.5371 3.05014L43.5658 3.02342C45.0278 1.66593 46.419 0.386655 48.2457 0.386655C49.1629 0.386655 50.2134 0.709646 51.2844 1.2087C52.3525 1.70641 53.4256 2.37188 54.3837 3.04031C55.3411 3.70833 56.1801 4.37676 56.7799 4.87835C57.0797 5.12905 57.3194 5.33786 57.484 5.4838C57.5663 5.55677 57.6298 5.614 57.6726 5.65289C57.694 5.67233 57.7102 5.68718 57.721 5.69712L57.7332 5.7083L57.7368 5.71169L57.8686 5.57018L57.9878 5.44168C58.0001 5.42846 58 5.42841 58 5.42841L57.9989 5.42736L57.9955 5.42427L57.9826 5.41239C57.9713 5.40198 57.9545 5.38664 57.9326 5.36671C57.8887 5.32683 57.8241 5.26855 57.7405 5.19449C57.5735 5.04638 57.3309 4.83512 57.0279 4.58175C56.4222 4.07518 55.5741 3.39939 54.6049 2.7232C53.6363 2.04742 52.5432 1.36867 51.4477 0.858224C50.3551 0.349115 49.2447 0 48.2457 0C46.2534 0 44.7562 1.39038 43.3315 2.71338L43.3027 2.74009C41.8408 4.09758 40.4495 5.37685 38.6229 5.37685C36.7962 5.37685 35.4049 4.09758 33.943 2.74009L33.9142 2.71338C32.4895 1.39038 30.9923 0 29 0C27.0077 0 25.5105 1.39038 24.0858 2.71338L24.057 2.74009C22.5951 4.09758 21.2038 5.37685 19.3771 5.37685C17.5505 5.37685 16.1592 4.09758 14.6973 2.74009L14.6685 2.71338C13.2438 1.39037 11.7466 0 9.75429 0C8.75528 0 7.64486 0.349115 6.55228 0.858224C5.45684 1.36867 4.36371 2.04742 3.3951 2.7232C2.42592 3.39939 1.57777 4.07518 0.972057 4.58175C0.669093 4.83512 0.426515 5.04638 0.259476 5.19449C0.175951 5.26855 0.111296 5.32683 0.0674043 5.36671C0.045458 5.38664 0.0287011 5.40198 0.0173705 5.41239L0.00447301 5.42427L0.000247293 5.42818C0.000247293 5.42818 -0.000108952 5.42851 0.131441 5.57018Z" fill="white"/>
<path d="M0.131441 15.2487L0.263011 15.3903L0.263863 15.3896L0.266831 15.3868L0.278966 15.3756C0.289782 15.3657 0.306008 15.3508 0.327408 15.3314C0.370209 15.2925 0.433701 15.2353 0.515994 15.1623C0.680592 15.0164 0.920336 14.8076 1.22011 14.5569C1.81987 14.0553 2.65887 13.3868 3.61634 12.7188C4.5744 12.0504 5.64746 11.3849 6.71559 10.8872C7.78659 10.3882 8.83712 10.0652 9.75429 10.0652C11.581 10.0652 12.9722 11.3444 14.4342 12.7019L14.4629 12.7286C15.8876 14.0517 17.3849 15.442 19.3771 15.442C21.3694 15.442 22.8667 14.0517 24.2914 12.7286L24.3201 12.7019C25.782 11.3444 27.1733 10.0652 29 10.0652C30.8267 10.0652 32.218 11.3444 33.6799 12.7019L33.7086 12.7287C35.1333 14.0517 36.6306 15.442 38.6229 15.442C40.6152 15.442 42.1124 14.0517 43.5371 12.7287L43.5658 12.7019C45.0278 11.3444 46.419 10.0652 48.2457 10.0652C49.1629 10.0652 50.2134 10.3882 51.2844 10.8872C52.3525 11.3849 53.4256 12.0504 54.3837 12.7188C55.3411 13.3868 56.1801 14.0553 56.7799 14.5569C57.0797 14.8076 57.3194 15.0164 57.484 15.1623C57.5663 15.2353 57.6298 15.2925 57.6726 15.3314C57.694 15.3508 57.7102 15.3657 57.721 15.3756L57.7332 15.3868L57.7368 15.3902L57.8686 15.2487C58.0001 15.107 58 15.1069 58 15.1069L57.9989 15.1059L57.9955 15.1028L57.9826 15.0909C57.9713 15.0805 57.9545 15.0652 57.9326 15.0452C57.8887 15.0053 57.8241 14.9471 57.7405 14.873C57.5735 14.7249 57.3309 14.5136 57.0279 14.2603C56.4222 13.7537 55.5741 13.0779 54.6049 12.4017C53.6363 11.7259 52.5432 11.0472 51.4477 10.5367C50.3551 10.0276 49.2447 9.67852 48.2457 9.67852C46.2534 9.67852 44.7562 11.0689 43.3315 12.3919L43.3027 12.4186C41.8408 13.7761 40.4495 15.0554 38.6229 15.0554C36.7962 15.0554 35.4049 13.7761 33.943 12.4186L33.9142 12.3919C32.4895 11.0689 30.9923 9.67852 29 9.67852C27.0077 9.67852 25.5105 11.0689 24.0858 12.3919L24.057 12.4186C22.5951 13.7761 21.2038 15.0554 19.3771 15.0554C17.5505 15.0554 16.1592 13.7761 14.6973 12.4186L14.6685 12.3919C13.2438 11.0689 11.7466 9.67852 9.75429 9.67852C8.75528 9.67852 7.64486 10.0276 6.55228 10.5367C5.45684 11.0472 4.36371 11.7259 3.3951 12.4017C2.42592 13.0779 1.57777 13.7537 0.972057 14.2603C0.669093 14.5136 0.426515 14.7249 0.259476 14.873C0.175951 14.9471 0.111296 15.0053 0.0674043 15.0452C0.045458 15.0652 0.0287011 15.0805 0.0173705 15.0909L0.00447301 15.1028L0.00113154 15.1059L0.000247293 15.1067C0.000247293 15.1067 -0.000108952 15.107 0.131441 15.2487Z" fill="white"/>
<path d="M0.263011 25.0688L0.131441 24.9271C-0.000108952 24.7855 2.98939e-06 24.7854 2.98939e-06 24.7854L0.00113154 24.7843L0.00447301 24.7812L0.0173705 24.7694C0.0287011 24.7589 0.045458 24.7436 0.0674043 24.7237C0.111296 24.6838 0.175951 24.6255 0.259476 24.5515C0.426515 24.4034 0.669093 24.1921 0.972057 23.9387C1.57777 23.4321 2.42592 22.7564 3.3951 22.0802C4.36371 21.4044 5.45684 20.7256 6.55228 20.2152C7.64486 19.7061 8.75528 19.357 9.75429 19.357C11.7466 19.357 13.2438 20.7473 14.6685 22.0703L14.6973 22.097C16.1592 23.4545 17.5505 24.7338 19.3771 24.7338C21.2038 24.7338 22.5951 23.4545 24.057 22.097L24.0858 22.0703C25.5105 20.7473 27.0077 19.357 29 19.357C30.9923 19.357 32.4895 20.7473 33.9142 22.0703L33.943 22.097C35.4049 23.4545 36.7962 24.7338 38.6229 24.7338C40.4495 24.7338 41.8408 23.4545 43.3027 22.097L43.3315 22.0703C44.7562 20.7473 46.2534 19.357 48.2457 19.357C49.2447 19.357 50.3551 19.7061 51.4477 20.2152C52.5432 20.7256 53.6363 21.4044 54.6049 22.0802C55.5741 22.7564 56.4222 23.4321 57.0279 23.9387C57.3309 24.1921 57.5735 24.4034 57.7405 24.5515C57.8241 24.6255 57.8887 24.6838 57.9326 24.7237C57.9545 24.7436 57.9713 24.7589 57.9826 24.7694L57.9955 24.7812L57.9998 24.7851C57.9998 24.7851 58.0001 24.7855 57.8686 24.9271L57.737 25.0688L57.7361 25.068L57.7332 25.0653L57.721 25.0541L57.7131 25.0468L57.6974 25.0324C57.6901 25.0258 57.6818 25.0182 57.6726 25.0099C57.6298 24.971 57.5663 24.9137 57.484 24.8408C57.3194 24.6948 57.0797 24.486 56.7799 24.2353C56.1801 23.7337 55.3411 23.0653 54.3837 22.3973C53.4256 21.7288 52.3525 21.0634 51.2844 20.5657C50.2134 20.0666 49.1629 19.7436 48.2457 19.7436C46.419 19.7436 45.0278 21.0229 43.5658 22.3804L43.5371 22.4071C42.1124 23.7301 40.6152 25.1205 38.6229 25.1205C36.6306 25.1205 35.1333 23.7301 33.7086 22.4071L33.6799 22.3804C32.218 21.0229 30.8267 19.7436 29 19.7436C27.1733 19.7436 25.782 21.0229 24.3201 22.3804L24.2914 22.4071C22.8667 23.7301 21.3694 25.1205 19.3771 25.1205C17.3849 25.1205 15.8876 23.7301 14.4629 22.4071L14.4342 22.3804C12.9722 21.0229 11.581 19.7436 9.75429 19.7436C8.83712 19.7436 7.78659 20.0666 6.71559 20.5657C5.64746 21.0634 4.5744 21.7288 3.61634 22.3973C2.65887 23.0653 1.81987 23.7337 1.22011 24.2353C0.920336 24.486 0.680592 24.6948 0.515994 24.8408C0.433701 24.9137 0.370209 24.971 0.327408 25.0099C0.306008 25.0293 0.289782 25.0441 0.278966 25.0541L0.266831 25.0653L0.263011 25.0688Z" fill="white"/>
<path d="M0.131441 34.6054L0.263011 34.747L0.266831 34.7435L0.278966 34.7323C0.289782 34.7224 0.306008 34.7075 0.327408 34.6881C0.370209 34.6492 0.433701 34.5919 0.515994 34.519C0.680592 34.373 0.920336 34.1642 1.22011 33.9135C1.81987 33.4119 2.65887 32.7435 3.61634 32.0755C4.5744 31.4071 5.64746 30.7416 6.71559 30.2439C7.78659 29.7448 8.83712 29.4218 9.75429 29.4218C11.581 29.4218 12.9722 30.7011 14.4342 32.0586L14.4629 32.0853C15.8876 33.4083 17.3849 34.7987 19.3771 34.7987C21.3694 34.7987 22.8667 33.4083 24.2914 32.0853L24.3201 32.0586C25.782 30.7011 27.1733 29.4218 29 29.4218C30.8267 29.4218 32.218 30.7011 33.6799 32.0586L33.7086 32.0853C35.1333 33.4083 36.6306 34.7987 38.6229 34.7987C40.6152 34.7987 42.1124 33.4083 43.5371 32.0853L43.5658 32.0586C45.0278 30.7011 46.419 29.4218 48.2457 29.4218C49.1629 29.4218 50.2134 29.7448 51.2844 30.2439C52.3525 30.7416 53.4256 31.4071 54.3837 32.0755C55.3411 32.7435 56.1801 33.4119 56.7799 33.9135C57.0797 34.1642 57.3194 34.373 57.484 34.519C57.5663 34.5919 57.6298 34.6492 57.6726 34.6881C57.694 34.7075 57.7102 34.7224 57.721 34.7323L57.7332 34.7435L57.7361 34.7462L57.7368 34.7469L57.8686 34.6054C58.0001 34.4637 58 34.4636 58 34.4636L57.9989 34.4625L57.9955 34.4594L57.9826 34.4476C57.9713 34.4372 57.9545 34.4218 57.9326 34.4019C57.8887 34.362 57.8241 34.3037 57.7405 34.2297C57.5735 34.0816 57.3309 33.8703 57.0279 33.6169C56.4222 33.1104 55.5741 32.4346 54.6049 31.7584C53.6363 31.0826 52.5432 30.4038 51.4477 29.8934C50.3551 29.3843 49.2447 29.0352 48.2457 29.0352C46.2534 29.0352 44.7562 30.4256 43.3315 31.7486L43.3027 31.7753C41.8408 33.1328 40.4495 34.412 38.6229 34.412C36.7962 34.412 35.4049 33.1328 33.943 31.7753L33.9142 31.7486C32.4895 30.4256 30.9923 29.0352 29 29.0352C27.0077 29.0352 25.5105 30.4256 24.0858 31.7486L24.057 31.7753C22.5951 33.1328 21.2038 34.412 19.3771 34.412C17.5505 34.412 16.1592 33.1328 14.6973 31.7753L14.6685 31.7486C13.2438 30.4255 11.7466 29.0352 9.75429 29.0352C8.75528 29.0352 7.64486 29.3843 6.55228 29.8934C5.45684 30.4038 4.36371 31.0826 3.3951 31.7584C2.42592 32.4346 1.57777 33.1104 0.972057 33.6169C0.669093 33.8703 0.426515 34.0816 0.259476 34.2297C0.175951 34.3037 0.111296 34.362 0.0674043 34.4019C0.045458 34.4218 0.0287011 34.4372 0.0173705 34.4476L0.00447301 34.4594L0.00113154 34.4625L0.000247293 34.4634C0.000247293 34.4634 -0.000108952 34.4637 0.131441 34.6054Z" fill="white"/>
</svg>
