<svg width="104" height="96" viewBox="0 0 104 96" fill="none" xmlns="http://www.w3.org/2000/svg">
<path d="M0 0V3.08148H104V0H0Z" fill="white"/>
<path d="M104 7.70371H0V10.7852H104V7.70371Z" fill="white"/>
<path d="M104 15.4074H0V18.4889H104V15.4074Z" fill="white"/>
<path d="M104 23.1111H0V26.1926H104V23.1111Z" fill="white"/>
<path d="M104 30.8148H0V33.8963H104V30.8148Z" fill="white"/>
<path d="M104 38.5185H0V41.6H104V38.5185Z" fill="white"/>
<path d="M104 46.2223H0V49.3037H104V46.2223Z" fill="white"/>
<path d="M104 53.926H0V57.0075H104V53.926Z" fill="white"/>
<path d="M104 61.6297H0V64.7112H104V61.6297Z" fill="white"/>
<path d="M104 69.3334H0V72.4149H104V69.3334Z" fill="white"/>
<path d="M104 77.0371H0V80.1186H104V77.0371Z" fill="white"/>
<path d="M104 84.7408H0V87.8223H104V84.7408Z" fill="white"/>
<path d="M104 92.4445H0V95.526H104V92.4445Z" fill="white"/>
</svg>
