<svg width="72" height="59" viewBox="0 0 72 59" fill="none" xmlns="http://www.w3.org/2000/svg">
<path d="M36.6909 12.3567L36.6909 12.3567L36.3822 12.7741L36.6909 12.3567ZM36.6909 12.3567L36.691 12.3566L36.6917 12.3557L36.6948 12.3515L36.708 12.3338C36.7133 12.3269 36.7197 12.3184 36.7272 12.3084C36.737 12.2955 36.7486 12.2802 36.7622 12.2625C36.8104 12.1993 36.8829 12.1056 36.9784 11.9851C37.1694 11.7439 37.4525 11.3953 37.8192 10.9682L37.5275 10.7178C38.1401 10.0042 38.9823 9.07509 40.0144 8.06222L40.2837 8.33657C41.0731 7.56196 41.9739 6.73857 42.9682 5.92632L42.725 5.62865C43.6319 4.88777 44.6162 4.15561 45.6645 3.47669L45.8735 3.79933C46.8665 3.15626 47.9155 2.56304 49.0089 2.0577L48.8477 1.70878C49.9469 1.20074 51.0922 0.779037 52.2722 0.481663L52.3662 0.854394C53.5101 0.56612 54.6841 0.398181 55.8779 0.385198L55.8738 0.000839135C57.0562 -0.0120214 58.26 0.122971 59.4753 0.438939L59.3786 0.810954C60.4642 1.09323 61.5615 1.52466 62.6631 2.13177L62.8486 1.79513C63.8443 2.34382 64.8414 3.03151 65.8348 3.87583L65.5859 4.16872C66.0249 4.54187 66.4638 4.94669 66.902 5.3849C67.3678 5.85065 67.795 6.32228 68.1855 6.79919L68.4829 6.55567C69.3424 7.60544 70.0301 8.68351 70.5614 9.78424L70.2152 9.9513C70.7747 11.1106 71.1555 12.2948 71.3772 13.4978L71.7552 13.4282C71.9877 14.69 72.0497 15.9721 71.9619 17.2667L71.5784 17.2407C71.4953 18.4649 71.2749 19.704 70.9339 20.9516L71.3047 21.0529C70.9748 22.2599 70.535 23.4713 70.0012 24.6813L69.6496 24.5261C69.1507 25.6571 68.5679 26.7885 67.9141 27.9155L68.2466 28.1084C67.6142 29.1986 66.9171 30.2829 66.1671 31.3571L65.8519 31.1371C65.1324 32.1677 64.3634 33.1896 63.5554 34.1989L63.8555 34.4391C63.0582 35.4351 62.2239 36.418 61.3627 37.3842L61.0757 37.1284C60.2264 38.0813 59.3505 39.0181 58.4579 39.9353L58.7334 40.2034C57.8329 41.1287 56.9158 42.0336 55.9922 42.9146L55.7269 42.6365C54.7888 43.5313 53.8437 44.4014 52.9023 45.2429L53.1584 45.5295C52.1787 46.4053 51.2032 47.25 50.2438 48.0593L49.9959 47.7655C48.9831 48.6198 47.9881 49.4346 47.0251 50.2047L47.2652 50.5049C46.2084 51.3499 45.1902 52.1411 44.2291 52.8717L43.9965 52.5657C42.879 53.4151 41.8388 54.1823 40.9053 54.8565L41.1304 55.1682C39.8466 56.0954 38.764 56.8472 37.9582 57.3959L37.7418 57.0781C37.2424 57.4182 36.8499 57.6797 36.5825 57.8561C36.4999 57.9106 36.4292 57.957 36.371 57.995C36.3093 57.9587 36.2338 57.9142 36.1452 57.8616C35.8647 57.6952 35.453 57.448 34.9295 57.1259L34.728 57.4533C33.8821 56.9329 32.7458 56.218 31.4004 55.3329L31.6117 55.0118C30.6315 54.367 29.5399 53.6316 28.3685 52.815L28.1487 53.1303C27.1379 52.4257 26.0678 51.6608 24.9586 50.8417L25.1869 50.5325C24.1769 49.7867 23.1345 48.9958 22.0749 48.1646L21.8376 48.467C20.8302 47.6766 19.8072 46.8498 18.7817 45.9903L19.0286 45.6957C18.043 44.8697 17.0553 44.0137 16.0773 43.1312L15.8197 43.4166C14.8533 42.5445 13.8959 41.6465 12.9588 40.7259L13.2282 40.4517C12.2974 39.5372 11.3871 38.6008 10.5083 37.6457L10.2255 37.906C9.33215 36.9351 8.47078 35.9446 7.6528 34.9379L7.95112 34.6955C7.12107 33.674 6.33677 32.6365 5.61012 31.5868L5.29408 31.8056C4.53359 30.7071 3.83503 29.5943 3.21203 28.4712L3.54816 28.2848C2.90635 27.1278 2.34682 25.9621 1.88413 24.792L1.52668 24.9334C1.03406 23.6877 0.648672 22.4349 0.388334 21.1803L0.764698 21.1022C0.500329 19.8282 0.368083 18.5555 0.385993 17.2892L0.0016489 17.2838C0.0199946 15.9866 0.19226 14.6934 0.538236 13.4102L0.90936 13.5103C1.23008 12.3207 1.70428 11.1384 2.3497 9.96784L2.0131 9.78223C2.60939 8.70081 3.34774 7.63089 4.24069 6.57621L4.53405 6.82458C4.94274 6.34188 5.38486 5.86184 5.8618 5.38491C6.2999 4.94682 6.73869 4.54213 7.17766 4.16913L6.92876 3.87621C7.92207 3.0322 8.91925 2.34494 9.915 1.79674L10.1004 2.13346C11.2018 1.52707 12.299 1.09636 13.3848 0.81479L13.2883 0.442714C14.5033 0.127622 15.707 -0.00661273 16.8894 0.00689023L16.885 0.391249C18.0784 0.404878 19.2522 0.573254 20.396 0.861794L20.49 0.489091C21.6697 0.78669 22.8147 1.2084 23.9138 1.71629L23.7525 2.06522C24.8457 2.57042 25.8947 3.16334 26.8877 3.806L27.0966 3.4833C28.1449 4.16178 29.1293 4.89342 30.0363 5.63372L29.7933 5.9315C30.7877 6.74316 31.6888 7.5659 32.4785 8.33989L32.7475 8.06538C33.7801 9.07748 34.6226 10.0059 35.2356 10.7189L34.9441 10.9695C35.3109 11.3962 35.5943 11.7446 35.7854 11.9856C35.881 12.1061 35.9535 12.1997 36.0018 12.2628C36.0259 12.2943 36.044 12.3182 36.056 12.3341L36.0692 12.3517L36.0723 12.3559L36.073 12.3568L36.0731 12.3569L36.0731 12.3569L36.6909 12.3567Z" stroke="white" stroke-width="0.766649" stroke-dasharray="3.83 3.83"/>
</svg>
