<svg width="39" height="112" viewBox="0 0 39 112" fill="none" xmlns="http://www.w3.org/2000/svg">
<path fill-rule="evenodd" clip-rule="evenodd" d="M0.430945 82.0104L-1.26366e-06 82.8723L0.430945 83.7342L13.9217 110.716C14.3977 111.668 15.5554 112.054 16.5074 111.578C17.4594 111.102 17.8453 109.944 17.3693 108.992L4.30947 82.8723L17.3693 56.7526L17.8002 55.8907L17.3693 55.0288L4.30946 28.9092L17.3693 2.78957C17.8453 1.83755 17.4594 0.679904 16.5074 0.20389C15.5554 -0.272124 14.3977 0.113763 13.9217 1.06579L0.430943 28.0473L-3.62246e-06 28.9092L0.430943 29.7711L13.4908 55.8907L0.430945 82.0104ZM21.6307 82.0104L21.1998 82.8723L21.6307 83.7342L35.1215 110.716C35.5975 111.668 36.7551 112.054 37.7072 111.578C38.6592 111.102 39.0451 109.944 38.5691 108.992L25.5092 82.8723L38.5691 56.7526L39 55.8907L38.5691 55.0288L25.5092 28.9092L38.5691 2.78957C39.0451 1.83755 38.6592 0.679903 37.7072 0.203889C36.7551 -0.272125 35.5975 0.113762 35.1215 1.06579L21.6307 28.0473L21.1998 28.9092L21.6307 29.7711L34.6905 55.8907L21.6307 82.0104Z" fill="white"/>
</svg>
