<svg width="99" height="39" viewBox="0 0 99 39" fill="none" xmlns="http://www.w3.org/2000/svg">
<path d="M1.27993 12.281C2.11655 12.4235 2.9103 11.8613 3.05379 11.0251L3.05394 11.0242L3.05539 11.0163C3.05736 11.0056 3.06092 10.9866 3.0662 10.96C3.07676 10.9066 3.09416 10.8227 3.11944 10.7126C3.17008 10.492 3.25184 10.1684 3.37272 9.77669C3.61623 8.98755 4.00958 7.95087 4.60806 6.92809C5.80404 4.88418 7.68836 3.07571 10.7652 3.07571C13.9679 3.07571 16.444 4.98145 19.4178 7.35363L19.5763 7.48013C21.1314 8.72128 22.8405 10.0854 24.8113 11.0452C26.3584 11.7986 28.0667 12.3028 29.9884 12.3028C31.9016 12.3028 33.6033 11.803 35.145 11.0551C37.1244 10.0948 38.84 8.72557 40.4004 7.48013L40.559 7.35363C43.5328 4.98145 46.0089 3.07571 49.2115 3.07571C52.4142 3.07571 54.8903 4.98145 57.8641 7.35363L58.0227 7.48013C59.5978 8.73735 61.3311 10.1207 63.3343 11.0822C64.8611 11.8151 66.5447 12.3028 68.4347 12.3028C70.3162 12.3028 71.9933 11.8194 73.5146 11.092C75.5265 10.1302 77.2662 8.74162 78.8468 7.48013L79.0053 7.35363C81.9791 4.98145 84.4552 3.07571 87.6579 3.07571C90.7585 3.07571 92.7955 4.91159 94.1399 6.98739C94.809 8.02042 95.2704 9.0653 95.5646 9.85825C95.7109 10.2522 95.8134 10.5776 95.8783 10.7996C95.9106 10.9105 95.9334 10.995 95.9475 11.049C95.9545 11.0759 95.9593 11.0951 95.962 11.1061L95.9639 11.1137L95.9643 11.1153L95.9644 11.116L95.9646 11.1165C96.1584 11.9421 96.9841 12.4551 97.8104 12.2628C98.6376 12.0702 99.1521 11.2435 98.9595 10.4163L97.4617 10.765C98.9595 10.4163 98.9594 10.4157 98.9592 10.415L98.9588 10.4136L98.958 10.41L98.9557 10.4003L98.9486 10.3709C98.9427 10.347 98.9345 10.3144 98.9239 10.2737C98.9027 10.1925 98.8719 10.0788 98.8306 9.93736C98.7481 9.65475 98.623 9.25927 98.4482 8.78822C98.1005 7.85108 97.5464 6.58918 96.7215 5.31544C95.0779 2.77768 92.2131 0 87.6579 0C83.2882 0 80.0215 2.60726 77.2458 4.8227L77.0873 4.94919C74.1135 7.32137 71.6374 9.22712 68.4347 9.22712C65.2321 9.22712 62.7559 7.32137 59.7821 4.94919L59.6236 4.8227C56.8479 2.60726 53.5812 0 49.2115 0C44.8419 0 41.5752 2.60726 38.7995 4.82269L38.641 4.94919C35.6671 7.32137 33.191 9.22712 29.9884 9.22712C26.7857 9.22712 24.3096 7.32137 21.3358 4.94919L21.1773 4.82269C18.4015 2.60726 15.1349 0 10.7652 0C6.1863 0 3.45705 2.80509 1.95342 5.37474C1.20209 6.65874 0.72412 7.92883 0.433762 8.86978C0.287715 9.34307 0.186899 9.74041 0.121704 10.0244C0.0890646 10.1666 0.0652309 10.2809 0.0490354 10.3627C0.0409343 10.4036 0.0347344 10.4365 0.030291 10.4607L0.0249216 10.4904L0.0231888 10.5003L0.0225544 10.504L0.0222944 10.5055C0.0221801 10.5062 0.0220722 10.5068 1.5381 10.765L0.0220722 10.5068C-0.120513 11.3441 0.442648 12.1384 1.27993 12.281Z" fill="white"/>
<path d="M3.05379 24.0969C2.9103 24.9331 2.11655 25.4952 1.27993 25.3528C0.442648 25.2102 -0.120513 24.4158 0.0220722 23.5786L1.5381 23.8367C0.0220722 23.5786 0.0221801 23.5779 0.0222944 23.5772L0.0225544 23.5757L0.0231888 23.5721L0.0249216 23.5622L0.030291 23.5324C0.0347344 23.5082 0.0409343 23.4754 0.0490354 23.4345C0.0652309 23.3527 0.0890646 23.2383 0.121704 23.0962C0.186899 22.8122 0.287715 22.4148 0.433762 21.9415C0.72412 21.0006 1.20209 19.7305 1.95342 18.4465C3.45705 15.8768 6.1863 13.0718 10.7652 13.0718C15.1349 13.0718 18.4015 15.679 21.1773 17.8944L21.3358 18.0209C24.3096 20.3931 26.7857 22.2989 29.9884 22.2989C33.191 22.2989 35.6671 20.3931 38.641 18.0209L38.7995 17.8944C41.5752 15.679 44.8419 13.0718 49.2115 13.0718C53.5812 13.0718 56.8479 15.679 59.6236 17.8944L59.7821 18.0209C62.7559 20.3931 65.2321 22.2989 68.4347 22.2989C71.6374 22.2989 74.1135 20.3931 77.0873 18.0209L77.2458 17.8944C80.0215 15.679 83.2882 13.0718 87.6579 13.0718C92.2131 13.0718 95.0779 15.8494 96.7215 18.3872C97.5464 19.6609 98.1005 20.9228 98.4482 21.86C98.623 22.331 98.7481 22.7265 98.8306 23.0091C98.8719 23.1506 98.9027 23.2642 98.9239 23.3455C98.9345 23.3861 98.9427 23.4187 98.9486 23.4426L98.9557 23.472L98.958 23.4817L98.9588 23.4853L98.9592 23.4868C98.9594 23.4874 98.9595 23.488 97.4617 23.8367L98.9595 23.488C99.1521 24.3153 98.6376 25.142 97.8104 25.3345C96.9841 25.5269 96.1584 25.0138 95.9646 24.1883L95.9644 24.1877L95.9643 24.187L95.9639 24.1854L95.962 24.1779C95.9593 24.1669 95.9545 24.1476 95.9475 24.1207C95.9334 24.0668 95.9106 23.9822 95.8783 23.8714C95.8134 23.6494 95.7109 23.324 95.5646 22.93C95.2704 22.1371 94.809 21.0922 94.1399 20.0591C92.7955 17.9833 90.7585 16.1475 87.6579 16.1475C84.4552 16.1475 81.9791 18.0532 79.0053 20.4254L78.8468 20.5519C77.2662 21.8134 75.5265 23.2019 73.5146 24.1638C71.9933 24.8912 70.3162 25.3746 68.4347 25.3746C66.5447 25.3746 64.8611 24.8868 63.3343 24.154C61.3311 23.1925 59.5978 21.8091 58.0227 20.5519L57.8641 20.4254C54.8903 18.0532 52.4142 16.1475 49.2115 16.1475C46.0089 16.1475 43.5328 18.0532 40.559 20.4254L40.4004 20.5519C38.84 21.7973 37.1244 23.1666 35.145 24.1269C33.6033 24.8748 31.9016 25.3746 29.9884 25.3746C28.0667 25.3746 26.3584 24.8703 24.8113 24.1169C22.8405 23.1572 21.1314 21.793 19.5763 20.5519L19.4178 20.4254C16.444 18.0532 13.9679 16.1475 10.7652 16.1475C7.68836 16.1475 5.80404 17.9559 4.60806 19.9998C4.00958 21.0226 3.61623 22.0593 3.37272 22.8484C3.25184 23.2402 3.17008 23.5637 3.11944 23.7843C3.09416 23.8944 3.07676 23.9784 3.0662 24.0317C3.06092 24.0584 3.05736 24.0773 3.05539 24.0881L3.05394 24.096L3.05379 24.0969Z" fill="white"/>
<path d="M3.05394 37.1677L3.05387 37.1681C2.9106 38.0046 2.11671 38.567 1.27993 38.4245C0.442648 38.2819 -0.120513 37.4876 0.0220722 36.6503L1.5381 36.9085C0.0220722 36.6503 0.0221801 36.6497 0.0222944 36.649L0.0225544 36.6475L0.0231888 36.6438L0.0249216 36.6339L0.030291 36.6042C0.0347344 36.58 0.0409343 36.5471 0.0490354 36.5062C0.0652309 36.4244 0.0890646 36.3101 0.121704 36.1679C0.186899 35.8839 0.287715 35.4866 0.433762 35.0133C0.72412 34.0723 1.20209 32.8022 1.95342 31.5182C3.45705 28.9486 6.1863 26.1435 10.7652 26.1435C15.1349 26.1435 18.4015 28.7508 21.1773 30.9662L21.3358 31.0927C24.3096 33.4649 26.7857 35.3706 29.9884 35.3706C33.191 35.3706 35.6671 33.4649 38.641 31.0927L38.7995 30.9662C41.5752 28.7508 44.8419 26.1435 49.2115 26.1435C53.5812 26.1435 56.8479 28.7508 59.6236 30.9662L59.7821 31.0927C62.7559 33.4649 65.2321 35.3706 68.4347 35.3706C71.6374 35.3706 74.1135 33.4649 77.0873 31.0927L77.2458 30.9662C80.0215 28.7508 83.2882 26.1435 87.6579 26.1435C92.2131 26.1435 95.0779 28.9212 96.7215 31.4589C97.5464 32.7327 98.1005 33.9946 98.4482 34.9317C98.623 35.4028 98.7481 35.7983 98.8306 36.0809C98.8719 36.2223 98.9027 36.336 98.9239 36.4172C98.9345 36.4579 98.9427 36.4905 98.9486 36.5144L98.9557 36.5438L98.958 36.5535L98.9588 36.5571L98.9592 36.5585C98.9594 36.5592 98.9595 36.5598 97.4617 36.9085L98.9595 36.5598C99.1521 37.387 98.6376 38.2137 97.8104 38.4063C96.9841 38.5986 96.1584 38.0856 95.9646 37.26L95.9644 37.2595L95.9643 37.2588L95.9639 37.2572L95.962 37.2496C95.9608 37.2447 95.9591 37.238 95.9571 37.2297C95.9545 37.2197 95.9513 37.2072 95.9475 37.1925C95.9334 37.1385 95.9106 37.054 95.8783 36.9431C95.8134 36.7211 95.7109 36.3957 95.5646 36.0018C95.2704 35.2088 94.809 34.1639 94.1399 33.1309C92.7955 31.0551 90.7585 29.2192 87.6579 29.2192C84.4552 29.2192 81.9791 31.125 79.0053 33.4971L78.8468 33.6236C77.2662 34.8851 75.5265 36.2737 73.5146 37.2355C71.9933 37.9629 70.3162 38.4463 68.4347 38.4463C66.5447 38.4463 64.8611 37.9586 63.3343 37.2258C61.3311 36.2643 59.5978 34.8809 58.0227 33.6236L57.8641 33.4971C54.8903 31.125 52.4142 29.2192 49.2115 29.2192C46.0089 29.2192 43.5328 31.125 40.559 33.4971L40.4004 33.6236C38.84 34.8691 37.1244 36.2383 35.145 37.1986C33.6033 37.9465 31.9016 38.4463 29.9884 38.4463C28.0667 38.4463 26.3584 37.9421 24.8113 37.1887C22.8405 36.2289 21.1314 34.8648 19.5764 33.6237L19.4178 33.4971C16.444 31.125 13.9679 29.2192 10.7652 29.2192C7.68836 29.2192 5.80404 31.0277 4.60806 33.0716C4.00958 34.0944 3.61623 35.1311 3.37272 35.9202C3.25184 36.3119 3.17008 36.6355 3.11944 36.8561C3.09416 36.9662 3.07676 37.0501 3.0662 37.1035C3.06092 37.1301 3.05736 37.1491 3.05539 37.1598L3.05394 37.1677Z" fill="white"/>
</svg>
