<svg width="109" height="12" viewBox="0 0 109 12" fill="none" xmlns="http://www.w3.org/2000/svg">
<path fill-rule="evenodd" clip-rule="evenodd" d="M0.28073 9.76912C-0.0935767 10.1434 -0.0935767 10.7503 0.28073 11.1246C0.655037 11.4989 1.26191 11.4989 1.63621 11.1246L11.1246 1.63621C11.4989 1.26191 11.4989 0.655037 11.1246 0.28073C10.7503 -0.0935768 10.1434 -0.0935765 9.76912 0.28073L0.28073 9.76912ZM11.1246 9.76912C10.7503 10.1434 10.7503 10.7503 11.1246 11.1246C11.4989 11.4989 12.1058 11.4989 12.4801 11.1246L21.9685 1.63621C22.3428 1.26191 22.3428 0.655037 21.9685 0.28073C21.5941 -0.0935768 20.9873 -0.0935765 20.613 0.28073L11.1246 9.76912ZM21.9684 11.1246C21.5941 10.7503 21.5941 10.1434 21.9684 9.76912L31.4568 0.28073C31.8311 -0.0935765 32.438 -0.0935768 32.8123 0.28073C33.1866 0.655037 33.1866 1.26191 32.8123 1.63621L23.3239 11.1246C22.9496 11.4989 22.3427 11.4989 21.9684 11.1246ZM32.8123 9.76912C32.438 10.1434 32.438 10.7503 32.8123 11.1246C33.1866 11.4989 33.7934 11.4989 34.1677 11.1246L43.6561 1.63621C44.0304 1.26191 44.0304 0.655037 43.6561 0.28073C43.2818 -0.0935768 42.675 -0.0935765 42.3007 0.28073L32.8123 9.76912ZM43.6561 11.1246C43.2818 10.7503 43.2818 10.1434 43.6561 9.76912L53.1445 0.28073C53.5188 -0.0935765 54.1257 -0.0935768 54.5 0.28073C54.8743 0.655037 54.8743 1.26191 54.5 1.63621L45.0116 11.1246C44.6373 11.4989 44.0304 11.4989 43.6561 11.1246ZM54.5 9.76912C54.1256 10.1434 54.1256 10.7503 54.5 11.1246C54.8743 11.4989 55.4811 11.4989 55.8554 11.1246L65.3438 1.63621C65.7181 1.26191 65.7181 0.655037 65.3438 0.28073C64.9695 -0.0935768 64.3626 -0.0935765 63.9883 0.28073L54.5 9.76912ZM65.3438 11.1246C64.9695 10.7503 64.9695 10.1434 65.3438 9.76912L74.8322 0.28073C75.2065 -0.0935765 75.8134 -0.0935768 76.1877 0.28073C76.562 0.655037 76.562 1.26191 76.1877 1.63621L66.6993 11.1246C66.325 11.4989 65.7181 11.4989 65.3438 11.1246ZM76.1876 9.76912C75.8133 10.1434 75.8133 10.7503 76.1876 11.1246C76.5619 11.4989 77.1688 11.4989 77.5431 11.1246L87.0315 1.63621C87.4058 1.26191 87.4058 0.655037 87.0315 0.28073C86.6572 -0.0935768 86.0503 -0.0935765 85.676 0.28073L76.1876 9.76912ZM87.0315 11.1246C86.6572 10.7503 86.6572 10.1434 87.0315 9.76912L96.5199 0.28073C96.8942 -0.0935765 97.501 -0.0935768 97.8754 0.28073C98.2497 0.655037 98.2497 1.26191 97.8754 1.63621L88.387 11.1246C88.0127 11.4989 87.4058 11.4989 87.0315 11.1246ZM97.8753 9.76912C97.501 10.1434 97.501 10.7503 97.8753 11.1246C98.2496 11.4989 98.8565 11.4989 99.2308 11.1246L108.719 1.63621C109.094 1.26191 109.094 0.655037 108.719 0.28073C108.345 -0.0935768 107.738 -0.0935765 107.364 0.28073L97.8753 9.76912Z" fill="white"/>
</svg>
