<svg width="53" height="59" viewBox="0 0 53 59" fill="none" xmlns="http://www.w3.org/2000/svg">
<path d="M29.5949 8.49664L43.0577 16.2694C44.9729 17.3751 46.1526 19.4185 46.1526 21.6299V37.1754C46.1526 39.3868 44.9729 41.4302 43.0577 42.5359L29.5949 50.3087C27.6798 51.4144 25.3203 51.4144 23.4052 50.3087L9.94235 42.5359C8.02723 41.4302 6.84746 39.3868 6.84746 37.1754V21.6299C6.84746 19.4185 8.02722 17.3751 9.94235 16.2694L23.4052 8.49665C25.3203 7.39095 27.6798 7.39095 29.5949 8.49664Z" fill="white"/>
<path fill-rule="evenodd" clip-rule="evenodd" d="M30.3687 1.03659C27.9748 -0.345532 25.0253 -0.34553 22.6314 1.03659L3.86862 11.8693C1.47471 13.2514 0 15.8057 0 18.57V40.2354C0 42.9996 1.47471 45.5539 3.86862 46.936L22.6314 57.7687C25.0253 59.1509 27.9748 59.1509 30.3687 57.7687L49.1315 46.936C51.5254 45.5539 53.0001 42.9996 53.0001 40.2354V18.5699C53.0001 15.8057 51.5254 13.2514 49.1315 11.8693L30.3687 1.03659ZM22.6314 7.15652C25.0253 5.77439 27.9748 5.77439 30.3687 7.15652L43.8315 14.9293C46.2254 16.3114 47.7001 18.8657 47.7001 21.6299V37.1754C47.7001 39.9397 46.2254 42.4939 43.8315 43.8761L30.3687 51.6488C27.9748 53.0309 25.0253 53.0309 22.6314 51.6488L9.16863 43.8761C6.77472 42.4939 5.30001 39.9397 5.30001 37.1754V21.6299C5.30001 18.8657 6.77472 16.3114 9.16863 14.9293L22.6314 7.15652Z" fill="white"/>
</svg>
