<svg width="119" height="79" viewBox="0 0 119 79" fill="none" xmlns="http://www.w3.org/2000/svg">
<path fill-rule="evenodd" clip-rule="evenodd" d="M0 39.5H39.5C39.5 39.628 39.5006 39.7558 39.5018 39.8835C39.7076 61.5221 57.3127 79 79 79C100.687 79 118.292 61.5221 118.498 39.8835C118.499 39.7558 118.5 39.628 118.5 39.5H118.117H79C79 17.6848 61.3152 0 39.5 0C17.6848 0 0 17.6848 0 39.5ZM79 78.6165C100.475 78.6165 117.909 61.3103 118.115 39.8835H118.113H117.982H117.851H117.719H117.586H117.452H117.317H117.182H117.046H116.909H116.771H116.633H116.494H116.354H116.213H116.072H115.93H115.787H115.644H115.499H115.354H115.209H115.062H114.915H114.767H114.619H114.47H114.32H114.169H114.018H113.866H113.713H113.56H113.406H113.251H113.096H112.94H112.784H112.626H112.468H112.31H112.151H111.991H111.831H111.67H111.508H111.346H111.183H111.02H110.856H110.691H110.526H110.36H110.194H110.027H109.859H109.691H109.522H109.353H109.183H109.013H108.842H108.671H108.499H108.326H108.153H107.98H107.805H107.631H107.456H107.28H107.104H106.927H106.75H106.573H106.394H106.216H106.037H105.857H105.677H105.496H105.315H105.134H104.952H104.77H104.587H104.404H104.22H104.036H103.851H103.666H103.481H103.295H103.109H102.922H102.735H102.547H102.359H102.171H101.983H101.793H101.604H101.414H101.224H101.033H100.842H100.651H100.459H100.267H100.075H99.8824H99.6893H99.4959H99.3022H99.1081H98.9138H98.7191H98.524H98.3287H98.1331H97.9371H97.7409H97.5443H97.3475H97.1504H96.9529H96.7552H96.5573H96.359H96.1605H95.9618H95.7627H95.5635H95.3639H95.1641H94.9641H94.7639H94.5634H94.3626H94.1617H93.9605H93.7591H93.5575H93.3557H93.1537H92.9514H92.749H92.5464H92.3436H92.1406H91.9375H91.7341H91.5306H91.3269H91.1231H90.9191H90.7149H90.5106H90.3061H90.1015H89.8968H89.6919H89.4869H89.2817H89.0765H88.8711H88.6656H88.46H88.2543H88.0485H87.8425H87.6365H87.4304H87.2243H87.018H86.8117H86.6052H86.3988H86.1922H85.9856H85.779H85.5722H85.3655H85.1587H84.9518H84.7449H84.538H84.3311H84.1241H83.9171H83.7101H83.5031H83.2961H83.0891H82.8821H82.675H82.468H82.261H82.0541H81.8471H81.6402H81.4333H81.2264H81.0196H80.8128H80.6061H80.3994H80.1928H79.9862H79.7797H79.5733H79.3669H79.1607H78.9544H78.7483H78.5423H78.3364H78.1305H77.9248H77.7191H77.5136H77.3082H77.1029H76.8977H76.6926H76.4877H76.2829H76.0783H75.8738H75.6694H75.4652H75.2611H75.0572H74.8535H74.6499H74.4465H74.2433H74.0402H73.8374H73.6347H73.4322H73.2299H73.0279H72.826H72.6243H72.4228H72.2216H72.0206H71.8198H71.6192H71.4189H71.2188H71.0189H70.8193H70.6199H70.4208H70.222H70.0234H69.825H69.627H69.4292H69.2317H69.0345H68.8376H68.6409H68.4446H68.2485H68.0528H67.8573H67.6622H67.4674H67.2729H67.0788H66.8849H66.6914H66.4983H66.3055H66.113H65.9208H65.7291H65.5376H65.3466H65.1559H64.9656H64.7756H64.586H64.3968H64.2081H64.0196H63.8316H63.644H63.4568H63.27H63.0836H62.8976H62.712H62.5269H62.3422H62.1579H61.974H61.7906H61.6077H61.4251H61.2431H61.0615H60.8803H60.6996H60.5194H60.3397H60.1604H59.9817H59.8034H59.6256H59.4482H59.2714H59.0951H58.9193H58.744H58.5692H58.395H58.2212H58.048H57.8754H57.7032H57.5316H57.3605H57.19H57.0201H56.8506H56.6818H56.5135H56.3458H56.1787H56.0121H55.8461H55.6807H55.5159H55.3517H55.1881H55.025H54.8626H54.7008H54.5396H54.379H54.2191H54.0598H53.9011H53.743H53.5856H53.4288H53.2727H53.1172H52.9624H52.8082H52.6547H52.5019H52.3497H52.1982H52.0474H51.8973H51.7478H51.5991H51.4511H51.3037H51.1571H51.0111H50.8659H50.7214H50.5776H50.4346H50.2922H50.1506H50.0098H49.8697H49.7303H49.5917H49.4538H49.3167H49.1804H49.0448H48.91H48.776H48.6427H48.5103H48.3786H48.2477H48.1176H47.9883H47.8598H47.7322H47.6053H47.4792H47.354H47.2296H47.106H46.9833H46.8614H46.7403H46.6201H46.5007H46.3822H46.2646H46.1478H46.0318H45.9168H45.8026H45.6893H45.5769H45.4653H45.3547H45.2449H45.1361H45.0281H44.9211H44.815H44.7098H44.6055H44.5021H44.3997H44.2982H44.1976H44.098H43.9993H43.9015H43.8047H43.7089H43.6141H43.5202H43.4272H43.3353H43.2443H43.1543H43.0653H42.9773H42.8902H42.8042H42.7192H42.6352H42.5522H42.4702H42.3892H42.3092H42.2303H42.1524H42.0756H41.9998H41.925H41.8513H41.7786H41.707H41.6364H41.5669H41.4985H41.4312H41.3649H41.2997H41.2356H41.1726H41.1107H41.0499H40.9902H40.9315H40.874H40.8176H40.7624H40.7082H40.6552H40.6033H40.5526H40.5029H40.4545H40.4072H40.361H40.316H40.2721H40.2294H40.1879H40.1475H40.1084H40.0704H40.0336H39.9979H39.9635H39.9303H39.8982H39.8853C40.0911 61.3103 57.5245 78.6165 79 78.6165Z" fill="white"/>
</svg>
