<svg width="20" height="20" viewBox="0 0 20 20" fill="none" xmlns="http://www.w3.org/2000/svg">
<path d="M17.1117 2.90868C15.2588 1.02346 12.6975 0 10.0817 0C4.52321 0 0.0545304 4.47074 0.108983 9.91104C0.108983 11.6347 0.599443 13.3046 1.41693 14.8127L0 19.9299L5.28609 18.5832C6.75747 19.3913 8.39228 19.7683 10.0273 19.7683C15.5313 19.7683 20 15.2975 20 9.85729C20 7.21787 18.9645 4.74008 17.1118 2.90868H17.1117ZM10.0817 18.0985C8.61033 18.0985 7.13895 17.7216 5.88553 16.9674L5.55858 16.8058L2.39785 17.6138L3.21526 14.5435L2.99729 14.2203C0.599443 10.396 1.74388 5.33258 5.66756 2.9625C9.59125 0.5925 14.6594 1.72368 17.0572 5.60192C19.455 9.48015 18.3106 14.4896 14.387 16.8596C13.1335 17.6676 11.6076 18.0985 10.0817 18.0985V18.0985ZM14.8773 12.1196L14.2779 11.8503C14.2779 11.8503 13.406 11.4732 12.861 11.2039C12.8065 11.2039 12.7521 11.15 12.6975 11.15C12.534 11.15 12.425 11.2039 12.316 11.2578C12.316 11.2578 12.2616 11.3116 11.4986 12.1735C11.4441 12.2812 11.3351 12.3351 11.2261 12.3351H11.1716C11.1172 12.3351 11.0082 12.2812 10.9536 12.2274L10.6812 12.1196C10.0817 11.8503 9.5368 11.5271 9.10079 11.0962C8.99181 10.9885 8.82829 10.8807 8.71931 10.773C8.33783 10.396 7.95635 9.96501 7.68394 9.48023L7.62941 9.37251C7.57495 9.31861 7.57495 9.26479 7.52042 9.15707C7.52042 9.04935 7.52042 8.94163 7.57495 8.88773C7.57495 8.88773 7.79292 8.61839 7.95635 8.45685C8.06542 8.34905 8.11987 8.18751 8.22885 8.07979C8.33783 7.91817 8.39236 7.70273 8.33783 7.54111C8.28338 7.27177 7.62941 5.81743 7.46597 5.49427C7.35691 5.33265 7.24801 5.27883 7.08449 5.22493H6.48505C6.37599 5.22493 6.26708 5.27883 6.15802 5.27883L6.10349 5.33265C5.99451 5.38655 5.88553 5.49427 5.77655 5.54809C5.66756 5.65589 5.61303 5.76354 5.50405 5.87133C5.12257 6.35611 4.90461 6.94861 4.90461 7.54111C4.90461 7.97199 5.01359 8.40295 5.1771 8.78001L5.23163 8.94163C5.72209 9.96501 6.37599 10.8807 7.24801 11.6887L7.46597 11.9041C7.62941 12.0657 7.79292 12.1735 7.9019 12.335C9.04634 13.3046 10.3542 14.0049 11.8256 14.3819C11.9891 14.4357 12.2071 14.4357 12.3706 14.4896H12.9155C13.188 14.4896 13.5149 14.3819 13.733 14.2742C13.8964 14.1665 14.0054 14.1665 14.1144 14.0588L14.2234 13.951C14.3324 13.8432 14.4414 13.7894 14.5504 13.6817C14.6594 13.574 14.7684 13.4663 14.8229 13.3585C14.9319 13.143 14.9863 12.8737 15.0408 12.6044V12.2274C15.0408 12.2274 14.9863 12.1735 14.8773 12.1196Z" fill="white"/>
</svg>
