<svg width="16" height="11" viewBox="0 0 16 11" fill="none" xmlns="http://www.w3.org/2000/svg">
<path d="M7.64667 2.28447C9.86548 2.28457 11.9994 3.13868 13.6075 4.67027C13.7286 4.78851 13.9221 4.78702 14.0414 4.66693L15.1989 3.4966C15.2593 3.43569 15.293 3.35318 15.2925 3.26733C15.292 3.18148 15.2573 3.09937 15.1962 3.03917C10.9756 -1.01306 4.31704 -1.01306 0.0963986 3.03917C0.0352588 3.09932 0.000577277 3.18141 6.8002e-06 3.26726C-0.000549714 3.35311 0.033072 3.43564 0.0934158 3.4966L1.25124 4.66693C1.37043 4.7872 1.56416 4.7887 1.68517 4.67027C3.29344 3.13858 5.42765 2.28447 7.64667 2.28447ZM7.64667 6.09205C8.86576 6.09198 10.0413 6.54593 10.945 7.3657C11.0672 7.48205 11.2597 7.47953 11.3789 7.36002L12.5351 6.18969C12.596 6.1283 12.6297 6.04503 12.6289 5.95849C12.628 5.87196 12.5925 5.78938 12.5304 5.72925C9.77861 3.16484 5.51705 3.16484 2.76524 5.72925C2.70308 5.78938 2.66764 5.872 2.66681 5.95856C2.666 6.04512 2.6999 6.12839 2.76091 6.18969L3.91676 7.36002C4.03591 7.47953 4.22844 7.48205 4.35066 7.3657C5.25372 6.54647 6.42839 6.09256 7.64667 6.09205ZM9.86858 8.88512C9.93042 8.82433 9.96446 8.74066 9.96269 8.65388C9.96092 8.56711 9.9235 8.4849 9.85924 8.42669C8.58199 7.34442 6.71132 7.34442 5.43407 8.42669C5.36977 8.48486 5.33227 8.56704 5.33044 8.65381C5.3286 8.74059 5.3626 8.82428 5.4244 8.88512L7.4247 10.9071C7.48333 10.9665 7.56327 11 7.64667 11C7.73007 11 7.80999 10.9665 7.86861 10.9071L9.86858 8.88512Z" fill="white"/>
</svg>
